G04 #@! TF.GenerationSoftware,KiCad,Pcbnew,5.0.1-33cea8e~68~ubuntu18.04.1*
G04 #@! TF.CreationDate,2018-11-19T17:19:21-08:00*
G04 #@! TF.ProjectId,Bioreactor,42696F72656163746F722E6B69636164,rev?*
G04 #@! TF.SameCoordinates,Original*
G04 #@! TF.FileFunction,Copper,L1,Top,Signal*
G04 #@! TF.FilePolarity,Positive*
%FSLAX46Y46*%
G04 Gerber Fmt 4.6, Leading zero omitted, Abs format (unit mm)*
G04 Created by KiCad (PCBNEW 5.0.1-33cea8e~68~ubuntu18.04.1) date Mon 19 Nov 2018 05:19:21 PM PST*
%MOMM*%
%LPD*%
G01*
G04 APERTURE LIST*
G04 #@! TA.AperFunction,ComponentPad*
%ADD10R,1.560000X1.560000*%
G04 #@! TD*
G04 #@! TA.AperFunction,ComponentPad*
%ADD11C,1.560000*%
G04 #@! TD*
G04 #@! TA.AperFunction,ComponentPad*
%ADD12R,2.600000X2.600000*%
G04 #@! TD*
G04 #@! TA.AperFunction,ComponentPad*
%ADD13C,2.600000*%
G04 #@! TD*
G04 #@! TA.AperFunction,ComponentPad*
%ADD14O,1.700000X1.700000*%
G04 #@! TD*
G04 #@! TA.AperFunction,ComponentPad*
%ADD15R,1.700000X1.700000*%
G04 #@! TD*
G04 #@! TA.AperFunction,Conductor*
%ADD16C,0.100000*%
G04 #@! TD*
G04 #@! TA.AperFunction,SMDPad,CuDef*
%ADD17C,0.975000*%
G04 #@! TD*
G04 #@! TA.AperFunction,ComponentPad*
%ADD18R,2.300000X1.500000*%
G04 #@! TD*
G04 #@! TA.AperFunction,ComponentPad*
%ADD19O,2.300000X1.500000*%
G04 #@! TD*
G04 #@! TA.AperFunction,SMDPad,CuDef*
%ADD20R,0.600000X1.550000*%
G04 #@! TD*
G04 #@! TA.AperFunction,ViaPad*
%ADD21C,0.800000*%
G04 #@! TD*
G04 #@! TA.AperFunction,Conductor*
%ADD22C,0.250000*%
G04 #@! TD*
G04 #@! TA.AperFunction,Conductor*
%ADD23C,0.254000*%
G04 #@! TD*
G04 APERTURE END LIST*
D10*
G04 #@! TO.P,U3,1*
G04 #@! TO.N,+3V3*
X191770000Y-92000000D03*
D11*
G04 #@! TO.P,U3,2*
G04 #@! TO.N,Net-(U3-Pad2)*
X191770000Y-94540000D03*
G04 #@! TO.P,U3,19*
G04 #@! TO.N,+5V*
X191770000Y-137720000D03*
G04 #@! TO.P,U3,3*
G04 #@! TO.N,Net-(U3-Pad3)*
X191770000Y-97080000D03*
G04 #@! TO.P,U3,4*
G04 #@! TO.N,Net-(U3-Pad4)*
X191770000Y-99620000D03*
G04 #@! TO.P,U3,5*
G04 #@! TO.N,AMPLITUDE*
X191770000Y-102160000D03*
G04 #@! TO.P,U3,6*
G04 #@! TO.N,PHASE*
X191770000Y-104700000D03*
G04 #@! TO.P,U3,7*
G04 #@! TO.N,TRIGGER*
X191770000Y-107240000D03*
G04 #@! TO.P,U3,8*
G04 #@! TO.N,Net-(U3-Pad8)*
X191770000Y-109780000D03*
G04 #@! TO.P,U3,9*
G04 #@! TO.N,SCK*
X191770000Y-112320000D03*
G04 #@! TO.P,U3,10*
G04 #@! TO.N,MISO*
X191770000Y-114860000D03*
G04 #@! TO.P,U3,11*
G04 #@! TO.N,CS*
X191770000Y-117400000D03*
G04 #@! TO.P,U3,12*
G04 #@! TO.N,Net-(U3-Pad12)*
X191770000Y-119940000D03*
G04 #@! TO.P,U3,13*
G04 #@! TO.N,Net-(U3-Pad13)*
X191770000Y-122480000D03*
G04 #@! TO.P,U3,14*
G04 #@! TO.N,GND*
X191770000Y-125020000D03*
G04 #@! TO.P,U3,15*
G04 #@! TO.N,Net-(U3-Pad15)*
X191770000Y-127560000D03*
G04 #@! TO.P,U3,16*
G04 #@! TO.N,Net-(U3-Pad16)*
X191770000Y-130100000D03*
G04 #@! TO.P,U3,17*
G04 #@! TO.N,Net-(U3-Pad17)*
X191770000Y-132640000D03*
G04 #@! TO.P,U3,18*
G04 #@! TO.N,Net-(U3-Pad18)*
X191770000Y-135180000D03*
G04 #@! TO.P,U3,20*
G04 #@! TO.N,GND*
X217170000Y-92000000D03*
G04 #@! TO.P,U3,21*
G04 #@! TO.N,SDA*
X217170000Y-94540000D03*
G04 #@! TO.P,U3,22*
G04 #@! TO.N,SCL*
X217170000Y-97080000D03*
G04 #@! TO.P,U3,23*
G04 #@! TO.N,Net-(U3-Pad23)*
X217170000Y-99620000D03*
G04 #@! TO.P,U3,24*
G04 #@! TO.N,Net-(U3-Pad24)*
X217170000Y-102160000D03*
G04 #@! TO.P,U3,25*
G04 #@! TO.N,Net-(U3-Pad25)*
X217170000Y-104700000D03*
G04 #@! TO.P,U3,26*
G04 #@! TO.N,GND*
X217170000Y-107240000D03*
G04 #@! TO.P,U3,27*
G04 #@! TO.N,DIR*
X217170000Y-109780000D03*
G04 #@! TO.P,U3,28*
G04 #@! TO.N,STEP*
X217170000Y-112320000D03*
G04 #@! TO.P,U3,29*
G04 #@! TO.N,Net-(U3-Pad29)*
X217170000Y-114860000D03*
G04 #@! TO.P,U3,30*
G04 #@! TO.N,TEMP*
X217170000Y-117400000D03*
G04 #@! TO.P,U3,31*
G04 #@! TO.N,CO2*
X217170000Y-119940000D03*
G04 #@! TO.P,U3,32*
G04 #@! TO.N,Net-(U3-Pad32)*
X217170000Y-122480000D03*
G04 #@! TO.P,U3,33*
G04 #@! TO.N,Net-(U3-Pad33)*
X217170000Y-125020000D03*
G04 #@! TO.P,U3,34*
G04 #@! TO.N,Net-(U3-Pad34)*
X217170000Y-127560000D03*
G04 #@! TO.P,U3,35*
G04 #@! TO.N,Net-(U3-Pad35)*
X217170000Y-130100000D03*
G04 #@! TO.P,U3,36*
G04 #@! TO.N,Net-(U3-Pad36)*
X217170000Y-132640000D03*
G04 #@! TO.P,U3,37*
G04 #@! TO.N,Net-(U3-Pad37)*
X217170000Y-135180000D03*
G04 #@! TO.P,U3,38*
G04 #@! TO.N,Net-(U3-Pad38)*
X217170000Y-137720000D03*
G04 #@! TD*
D12*
G04 #@! TO.P,J3,1*
G04 #@! TO.N,Net-(J3-Pad1)*
X180340000Y-133350000D03*
D13*
G04 #@! TO.P,J3,2*
G04 #@! TO.N,Net-(J3-Pad2)*
X185420000Y-133350000D03*
G04 #@! TD*
D14*
G04 #@! TO.P,J8,2*
G04 #@! TO.N,GND*
X181610000Y-113030000D03*
D15*
G04 #@! TO.P,J8,1*
G04 #@! TO.N,TRIGGER*
X181610000Y-110490000D03*
G04 #@! TD*
D14*
G04 #@! TO.P,J5,2*
G04 #@! TO.N,GND*
X181610000Y-87630000D03*
D15*
G04 #@! TO.P,J5,1*
G04 #@! TO.N,AMPLITUDE*
X181610000Y-85090000D03*
G04 #@! TD*
G04 #@! TO.P,J7,1*
G04 #@! TO.N,PHASE*
X181610000Y-97790000D03*
D14*
G04 #@! TO.P,J7,2*
G04 #@! TO.N,GND*
X181610000Y-100330000D03*
G04 #@! TD*
D15*
G04 #@! TO.P,J1,1*
G04 #@! TO.N,Net-(J1-Pad1)*
X231282000Y-130673000D03*
D14*
G04 #@! TO.P,J1,2*
G04 #@! TO.N,Net-(J1-Pad2)*
X228742000Y-130673000D03*
G04 #@! TO.P,J1,3*
G04 #@! TO.N,+5V*
X226202000Y-130673000D03*
G04 #@! TD*
G04 #@! TO.P,J2,3*
G04 #@! TO.N,GND*
X226202000Y-112893000D03*
G04 #@! TO.P,J2,2*
G04 #@! TO.N,SDA*
X228742000Y-112893000D03*
D15*
G04 #@! TO.P,J2,1*
G04 #@! TO.N,SCL*
X231282000Y-112893000D03*
G04 #@! TD*
D12*
G04 #@! TO.P,J4,1*
G04 #@! TO.N,Net-(J4-Pad1)*
X210820000Y-80010000D03*
D13*
G04 #@! TO.P,J4,2*
G04 #@! TO.N,GND*
X210820000Y-74010000D03*
G04 #@! TO.P,J4,3*
G04 #@! TO.N,N/C*
X206120000Y-77010000D03*
G04 #@! TD*
D15*
G04 #@! TO.P,J6,1*
G04 #@! TO.N,GND*
X231140000Y-73660000D03*
D14*
G04 #@! TO.P,J6,2*
G04 #@! TO.N,+5V*
X231140000Y-76200000D03*
G04 #@! TO.P,J6,3*
G04 #@! TO.N,SDA*
X231140000Y-78740000D03*
G04 #@! TO.P,J6,4*
G04 #@! TO.N,SCL*
X231140000Y-81280000D03*
G04 #@! TD*
D15*
G04 #@! TO.P,J10,1*
G04 #@! TO.N,STEP*
X231140000Y-96520000D03*
D14*
G04 #@! TO.P,J10,2*
G04 #@! TO.N,DIR*
X228600000Y-96520000D03*
G04 #@! TD*
G04 #@! TO.P,J11,2*
G04 #@! TO.N,GND*
X228600000Y-101600000D03*
D15*
G04 #@! TO.P,J11,1*
G04 #@! TO.N,TEMP*
X231140000Y-101600000D03*
G04 #@! TD*
G04 #@! TO.P,J12,1*
G04 #@! TO.N,CO2*
X231140000Y-106680000D03*
D14*
G04 #@! TO.P,J12,2*
G04 #@! TO.N,GND*
X228600000Y-106680000D03*
G04 #@! TD*
D16*
G04 #@! TO.N,+3V3*
G04 #@! TO.C,R1*
G36*
X223455142Y-92011174D02*
X223478803Y-92014684D01*
X223502007Y-92020496D01*
X223524529Y-92028554D01*
X223546153Y-92038782D01*
X223566670Y-92051079D01*
X223585883Y-92065329D01*
X223603607Y-92081393D01*
X223619671Y-92099117D01*
X223633921Y-92118330D01*
X223646218Y-92138847D01*
X223656446Y-92160471D01*
X223664504Y-92182993D01*
X223670316Y-92206197D01*
X223673826Y-92229858D01*
X223675000Y-92253750D01*
X223675000Y-93166250D01*
X223673826Y-93190142D01*
X223670316Y-93213803D01*
X223664504Y-93237007D01*
X223656446Y-93259529D01*
X223646218Y-93281153D01*
X223633921Y-93301670D01*
X223619671Y-93320883D01*
X223603607Y-93338607D01*
X223585883Y-93354671D01*
X223566670Y-93368921D01*
X223546153Y-93381218D01*
X223524529Y-93391446D01*
X223502007Y-93399504D01*
X223478803Y-93405316D01*
X223455142Y-93408826D01*
X223431250Y-93410000D01*
X222943750Y-93410000D01*
X222919858Y-93408826D01*
X222896197Y-93405316D01*
X222872993Y-93399504D01*
X222850471Y-93391446D01*
X222828847Y-93381218D01*
X222808330Y-93368921D01*
X222789117Y-93354671D01*
X222771393Y-93338607D01*
X222755329Y-93320883D01*
X222741079Y-93301670D01*
X222728782Y-93281153D01*
X222718554Y-93259529D01*
X222710496Y-93237007D01*
X222704684Y-93213803D01*
X222701174Y-93190142D01*
X222700000Y-93166250D01*
X222700000Y-92253750D01*
X222701174Y-92229858D01*
X222704684Y-92206197D01*
X222710496Y-92182993D01*
X222718554Y-92160471D01*
X222728782Y-92138847D01*
X222741079Y-92118330D01*
X222755329Y-92099117D01*
X222771393Y-92081393D01*
X222789117Y-92065329D01*
X222808330Y-92051079D01*
X222828847Y-92038782D01*
X222850471Y-92028554D01*
X222872993Y-92020496D01*
X222896197Y-92014684D01*
X222919858Y-92011174D01*
X222943750Y-92010000D01*
X223431250Y-92010000D01*
X223455142Y-92011174D01*
X223455142Y-92011174D01*
G37*
D17*
G04 #@! TD*
G04 #@! TO.P,R1,1*
G04 #@! TO.N,+3V3*
X223187500Y-92710000D03*
D16*
G04 #@! TO.N,SDA*
G04 #@! TO.C,R1*
G36*
X221580142Y-92011174D02*
X221603803Y-92014684D01*
X221627007Y-92020496D01*
X221649529Y-92028554D01*
X221671153Y-92038782D01*
X221691670Y-92051079D01*
X221710883Y-92065329D01*
X221728607Y-92081393D01*
X221744671Y-92099117D01*
X221758921Y-92118330D01*
X221771218Y-92138847D01*
X221781446Y-92160471D01*
X221789504Y-92182993D01*
X221795316Y-92206197D01*
X221798826Y-92229858D01*
X221800000Y-92253750D01*
X221800000Y-93166250D01*
X221798826Y-93190142D01*
X221795316Y-93213803D01*
X221789504Y-93237007D01*
X221781446Y-93259529D01*
X221771218Y-93281153D01*
X221758921Y-93301670D01*
X221744671Y-93320883D01*
X221728607Y-93338607D01*
X221710883Y-93354671D01*
X221691670Y-93368921D01*
X221671153Y-93381218D01*
X221649529Y-93391446D01*
X221627007Y-93399504D01*
X221603803Y-93405316D01*
X221580142Y-93408826D01*
X221556250Y-93410000D01*
X221068750Y-93410000D01*
X221044858Y-93408826D01*
X221021197Y-93405316D01*
X220997993Y-93399504D01*
X220975471Y-93391446D01*
X220953847Y-93381218D01*
X220933330Y-93368921D01*
X220914117Y-93354671D01*
X220896393Y-93338607D01*
X220880329Y-93320883D01*
X220866079Y-93301670D01*
X220853782Y-93281153D01*
X220843554Y-93259529D01*
X220835496Y-93237007D01*
X220829684Y-93213803D01*
X220826174Y-93190142D01*
X220825000Y-93166250D01*
X220825000Y-92253750D01*
X220826174Y-92229858D01*
X220829684Y-92206197D01*
X220835496Y-92182993D01*
X220843554Y-92160471D01*
X220853782Y-92138847D01*
X220866079Y-92118330D01*
X220880329Y-92099117D01*
X220896393Y-92081393D01*
X220914117Y-92065329D01*
X220933330Y-92051079D01*
X220953847Y-92038782D01*
X220975471Y-92028554D01*
X220997993Y-92020496D01*
X221021197Y-92014684D01*
X221044858Y-92011174D01*
X221068750Y-92010000D01*
X221556250Y-92010000D01*
X221580142Y-92011174D01*
X221580142Y-92011174D01*
G37*
D17*
G04 #@! TD*
G04 #@! TO.P,R1,2*
G04 #@! TO.N,SDA*
X221312500Y-92710000D03*
D16*
G04 #@! TO.N,SCL*
G04 #@! TO.C,R2*
G36*
X221580142Y-96153674D02*
X221603803Y-96157184D01*
X221627007Y-96162996D01*
X221649529Y-96171054D01*
X221671153Y-96181282D01*
X221691670Y-96193579D01*
X221710883Y-96207829D01*
X221728607Y-96223893D01*
X221744671Y-96241617D01*
X221758921Y-96260830D01*
X221771218Y-96281347D01*
X221781446Y-96302971D01*
X221789504Y-96325493D01*
X221795316Y-96348697D01*
X221798826Y-96372358D01*
X221800000Y-96396250D01*
X221800000Y-97308750D01*
X221798826Y-97332642D01*
X221795316Y-97356303D01*
X221789504Y-97379507D01*
X221781446Y-97402029D01*
X221771218Y-97423653D01*
X221758921Y-97444170D01*
X221744671Y-97463383D01*
X221728607Y-97481107D01*
X221710883Y-97497171D01*
X221691670Y-97511421D01*
X221671153Y-97523718D01*
X221649529Y-97533946D01*
X221627007Y-97542004D01*
X221603803Y-97547816D01*
X221580142Y-97551326D01*
X221556250Y-97552500D01*
X221068750Y-97552500D01*
X221044858Y-97551326D01*
X221021197Y-97547816D01*
X220997993Y-97542004D01*
X220975471Y-97533946D01*
X220953847Y-97523718D01*
X220933330Y-97511421D01*
X220914117Y-97497171D01*
X220896393Y-97481107D01*
X220880329Y-97463383D01*
X220866079Y-97444170D01*
X220853782Y-97423653D01*
X220843554Y-97402029D01*
X220835496Y-97379507D01*
X220829684Y-97356303D01*
X220826174Y-97332642D01*
X220825000Y-97308750D01*
X220825000Y-96396250D01*
X220826174Y-96372358D01*
X220829684Y-96348697D01*
X220835496Y-96325493D01*
X220843554Y-96302971D01*
X220853782Y-96281347D01*
X220866079Y-96260830D01*
X220880329Y-96241617D01*
X220896393Y-96223893D01*
X220914117Y-96207829D01*
X220933330Y-96193579D01*
X220953847Y-96181282D01*
X220975471Y-96171054D01*
X220997993Y-96162996D01*
X221021197Y-96157184D01*
X221044858Y-96153674D01*
X221068750Y-96152500D01*
X221556250Y-96152500D01*
X221580142Y-96153674D01*
X221580142Y-96153674D01*
G37*
D17*
G04 #@! TD*
G04 #@! TO.P,R2,2*
G04 #@! TO.N,SCL*
X221312500Y-96852500D03*
D16*
G04 #@! TO.N,+3V3*
G04 #@! TO.C,R2*
G36*
X223455142Y-96153674D02*
X223478803Y-96157184D01*
X223502007Y-96162996D01*
X223524529Y-96171054D01*
X223546153Y-96181282D01*
X223566670Y-96193579D01*
X223585883Y-96207829D01*
X223603607Y-96223893D01*
X223619671Y-96241617D01*
X223633921Y-96260830D01*
X223646218Y-96281347D01*
X223656446Y-96302971D01*
X223664504Y-96325493D01*
X223670316Y-96348697D01*
X223673826Y-96372358D01*
X223675000Y-96396250D01*
X223675000Y-97308750D01*
X223673826Y-97332642D01*
X223670316Y-97356303D01*
X223664504Y-97379507D01*
X223656446Y-97402029D01*
X223646218Y-97423653D01*
X223633921Y-97444170D01*
X223619671Y-97463383D01*
X223603607Y-97481107D01*
X223585883Y-97497171D01*
X223566670Y-97511421D01*
X223546153Y-97523718D01*
X223524529Y-97533946D01*
X223502007Y-97542004D01*
X223478803Y-97547816D01*
X223455142Y-97551326D01*
X223431250Y-97552500D01*
X222943750Y-97552500D01*
X222919858Y-97551326D01*
X222896197Y-97547816D01*
X222872993Y-97542004D01*
X222850471Y-97533946D01*
X222828847Y-97523718D01*
X222808330Y-97511421D01*
X222789117Y-97497171D01*
X222771393Y-97481107D01*
X222755329Y-97463383D01*
X222741079Y-97444170D01*
X222728782Y-97423653D01*
X222718554Y-97402029D01*
X222710496Y-97379507D01*
X222704684Y-97356303D01*
X222701174Y-97332642D01*
X222700000Y-97308750D01*
X222700000Y-96396250D01*
X222701174Y-96372358D01*
X222704684Y-96348697D01*
X222710496Y-96325493D01*
X222718554Y-96302971D01*
X222728782Y-96281347D01*
X222741079Y-96260830D01*
X222755329Y-96241617D01*
X222771393Y-96223893D01*
X222789117Y-96207829D01*
X222808330Y-96193579D01*
X222828847Y-96181282D01*
X222850471Y-96171054D01*
X222872993Y-96162996D01*
X222896197Y-96157184D01*
X222919858Y-96153674D01*
X222943750Y-96152500D01*
X223431250Y-96152500D01*
X223455142Y-96153674D01*
X223455142Y-96153674D01*
G37*
D17*
G04 #@! TD*
G04 #@! TO.P,R2,1*
G04 #@! TO.N,+3V3*
X223187500Y-96852500D03*
D18*
G04 #@! TO.P,U1,1*
G04 #@! TO.N,Net-(J4-Pad1)*
X194310000Y-72390000D03*
D19*
G04 #@! TO.P,U1,2*
G04 #@! TO.N,GND*
X194310000Y-74930000D03*
G04 #@! TO.P,U1,3*
G04 #@! TO.N,+5V*
X194310000Y-77470000D03*
G04 #@! TD*
D20*
G04 #@! TO.P,U2,1*
G04 #@! TO.N,GND*
X183515000Y-124620000D03*
G04 #@! TO.P,U2,2*
G04 #@! TO.N,Net-(J3-Pad1)*
X184785000Y-124620000D03*
G04 #@! TO.P,U2,3*
G04 #@! TO.N,Net-(J3-Pad2)*
X186055000Y-124620000D03*
G04 #@! TO.P,U2,4*
G04 #@! TO.N,+3V3*
X187325000Y-124620000D03*
G04 #@! TO.P,U2,5*
G04 #@! TO.N,SCK*
X187325000Y-119220000D03*
G04 #@! TO.P,U2,6*
G04 #@! TO.N,CS*
X186055000Y-119220000D03*
G04 #@! TO.P,U2,7*
G04 #@! TO.N,MISO*
X184785000Y-119220000D03*
G04 #@! TO.P,U2,8*
G04 #@! TO.N,N/C*
X183515000Y-119220000D03*
G04 #@! TD*
D15*
G04 #@! TO.P,J9,1*
G04 #@! TO.N,Net-(J1-Pad1)*
X231282000Y-135753000D03*
D14*
G04 #@! TO.P,J9,2*
G04 #@! TO.N,Net-(J1-Pad2)*
X228742000Y-135753000D03*
G04 #@! TO.P,J9,3*
G04 #@! TO.N,+5V*
X226202000Y-135753000D03*
G04 #@! TD*
D21*
G04 #@! TO.N,GND*
X232410000Y-90170000D03*
G04 #@! TD*
D22*
G04 #@! TO.N,Net-(J1-Pad1)*
X231282000Y-130673000D02*
X231282000Y-135753000D01*
G04 #@! TO.N,Net-(J1-Pad2)*
X228742000Y-130673000D02*
X228742000Y-135753000D01*
G04 #@! TO.N,+5V*
X226202000Y-130673000D02*
X226202000Y-135753000D01*
X192549999Y-136940001D02*
X191770000Y-137720000D01*
X225352001Y-136602999D02*
X192887001Y-136602999D01*
X192887001Y-136602999D02*
X192549999Y-136940001D01*
X226202000Y-135753000D02*
X225352001Y-136602999D01*
X195710000Y-77470000D02*
X194310000Y-77470000D01*
X199875001Y-81635001D02*
X195710000Y-77470000D01*
X225704999Y-81635001D02*
X199875001Y-81635001D01*
X231140000Y-76200000D02*
X225704999Y-81635001D01*
X234130009Y-79190009D02*
X231989999Y-77049999D01*
X231989999Y-77049999D02*
X231140000Y-76200000D01*
X234130009Y-122744991D02*
X234130009Y-79190009D01*
X226202000Y-130673000D02*
X234130009Y-122744991D01*
G04 #@! TO.N,GND*
X217170000Y-107240000D02*
X216810400Y-106528300D01*
X216810400Y-106528300D02*
X216497500Y-106971500D01*
G04 #@! TO.N,SDA*
X217727200Y-94170900D02*
X217812500Y-94256200D01*
X217812500Y-94256200D02*
X217170000Y-94540000D01*
X231140000Y-78740000D02*
X230716600Y-79341900D01*
X230716600Y-79341900D02*
X230839700Y-79465000D01*
X230839700Y-79465000D02*
X230912100Y-79465000D01*
X219000000Y-92710000D02*
X217170000Y-94540000D01*
X221312500Y-92710000D02*
X219000000Y-92710000D01*
X221312500Y-88567500D02*
X221312500Y-92710000D01*
X231140000Y-78740000D02*
X221312500Y-88567500D01*
X231989999Y-79589999D02*
X231140000Y-78740000D01*
X233680000Y-81280000D02*
X231989999Y-79589999D01*
X233680000Y-107955000D02*
X233680000Y-81280000D01*
X228742000Y-112893000D02*
X233680000Y-107955000D01*
G04 #@! TO.N,SCL*
X217397500Y-96852500D02*
X217170000Y-97080000D01*
X221312500Y-96852500D02*
X217397500Y-96852500D01*
X221868737Y-97408737D02*
X221312500Y-96852500D01*
X222337510Y-97877510D02*
X221868737Y-97408737D01*
X223666840Y-97877510D02*
X222337510Y-97877510D01*
X224000010Y-97544340D02*
X223666840Y-97877510D01*
X224000010Y-88419990D02*
X224000010Y-97544340D01*
X231140000Y-81280000D02*
X224000010Y-88419990D01*
G04 #@! TO.N,Net-(J3-Pad1)*
X184785000Y-124620000D02*
X184610000Y-124978800D01*
X184610000Y-124978800D02*
X184610000Y-125270000D01*
X184610000Y-125270000D02*
X184786800Y-125270000D01*
X184785000Y-130455000D02*
X181890000Y-133350000D01*
X181890000Y-133350000D02*
X180340000Y-133350000D01*
X184785000Y-124620000D02*
X184785000Y-130455000D01*
G04 #@! TO.N,Net-(J3-Pad2)*
X186055000Y-132715000D02*
X185420000Y-133350000D01*
X186055000Y-124620000D02*
X186055000Y-132715000D01*
G04 #@! TO.N,Net-(J4-Pad1)*
X209270000Y-80010000D02*
X210820000Y-80010000D01*
X202330000Y-80010000D02*
X209270000Y-80010000D01*
X194710000Y-72390000D02*
X202330000Y-80010000D01*
X194310000Y-72390000D02*
X194710000Y-72390000D01*
G04 #@! TO.N,GND*
X228600000Y-101600000D02*
X232410000Y-97790000D01*
X232410000Y-97790000D02*
X232410000Y-93980000D01*
X232410000Y-93980000D02*
X232410000Y-90170000D01*
X232410000Y-90170000D02*
X232410000Y-90170000D01*
X228600000Y-105410000D02*
X228600000Y-106680000D01*
X227330000Y-111765000D02*
X228340002Y-111765000D01*
X226202000Y-112893000D02*
X227330000Y-111765000D01*
X232315001Y-107790001D02*
X232315001Y-105569999D01*
X228340002Y-111765000D02*
X232315001Y-107790001D01*
X232315001Y-105569999D02*
X232155002Y-105410000D01*
X232155002Y-105410000D02*
X228600000Y-105410000D01*
X218049999Y-121045001D02*
X216295001Y-121045001D01*
X226202000Y-112893000D02*
X218049999Y-121045001D01*
X216295001Y-121045001D02*
X213360000Y-118110000D01*
X213360000Y-118110000D02*
X213360000Y-111050000D01*
X213360000Y-111050000D02*
X217170000Y-107240000D01*
X228600000Y-102802081D02*
X228600000Y-101600000D01*
X216064999Y-114329599D02*
X216969597Y-113425001D01*
X217977080Y-113425001D02*
X228600000Y-102802081D01*
X216969597Y-113425001D02*
X217977080Y-113425001D01*
X216064999Y-117930401D02*
X216064999Y-114329599D01*
X216639599Y-118505001D02*
X216064999Y-117930401D01*
X217700401Y-118505001D02*
X216639599Y-118505001D01*
X227750001Y-108455401D02*
X217700401Y-118505001D01*
X227750001Y-107529999D02*
X227750001Y-108455401D01*
X228600000Y-106680000D02*
X227750001Y-107529999D01*
G04 #@! TO.N,SCL*
X216066914Y-97080000D02*
X212090000Y-101056914D01*
X217170000Y-97080000D02*
X216066914Y-97080000D01*
X221689999Y-123585001D02*
X231282000Y-113993000D01*
X216639599Y-123585001D02*
X221689999Y-123585001D01*
X231282000Y-113993000D02*
X231282000Y-112893000D01*
X212090000Y-119035402D02*
X216639599Y-123585001D01*
X212090000Y-101056914D02*
X212090000Y-119035402D01*
G04 #@! TO.N,AMPLITUDE*
X182710000Y-85090000D02*
X186690000Y-89070000D01*
X181610000Y-85090000D02*
X182710000Y-85090000D01*
X186690000Y-97080000D02*
X191770000Y-102160000D01*
X186690000Y-89070000D02*
X186690000Y-97080000D01*
G04 #@! TO.N,PHASE*
X184860000Y-97790000D02*
X191770000Y-104700000D01*
X181610000Y-97790000D02*
X184860000Y-97790000D01*
G04 #@! TO.N,TRIGGER*
X188520000Y-110490000D02*
X191770000Y-107240000D01*
X181610000Y-110490000D02*
X188520000Y-110490000D01*
G04 #@! TO.N,STEP*
X217949999Y-111540001D02*
X217170000Y-112320000D01*
X227424999Y-102065001D02*
X217949999Y-111540001D01*
X227424999Y-100235001D02*
X227424999Y-102065001D01*
X231140000Y-96520000D02*
X227424999Y-100235001D01*
G04 #@! TO.N,DIR*
X228600000Y-96520000D02*
X227330000Y-96520000D01*
X227330000Y-96520000D02*
X219710000Y-104140000D01*
X219710000Y-107240000D02*
X217170000Y-109780000D01*
X219710000Y-104140000D02*
X219710000Y-107240000D01*
G04 #@! TO.N,TEMP*
X227424999Y-107145001D02*
X217949999Y-116620001D01*
X227424999Y-105315001D02*
X227424999Y-107145001D01*
X217949999Y-116620001D02*
X217170000Y-117400000D01*
X231140000Y-101600000D02*
X227424999Y-105315001D01*
G04 #@! TO.N,CO2*
X217949999Y-119160001D02*
X217170000Y-119940000D01*
X229254999Y-107855001D02*
X217949999Y-119160001D01*
X231064999Y-107855001D02*
X229254999Y-107855001D01*
X231140000Y-107780000D02*
X231064999Y-107855001D01*
X231140000Y-106680000D02*
X231140000Y-107780000D01*
G04 #@! TO.N,+3V3*
X192800000Y-92000000D02*
X191770000Y-92000000D01*
X194760009Y-93960009D02*
X192800000Y-92000000D01*
X194760009Y-121125393D02*
X194760009Y-93960009D01*
X192300401Y-123585001D02*
X194760009Y-121125393D01*
X191374999Y-123585001D02*
X192300401Y-123585001D01*
X190340000Y-124620000D02*
X191374999Y-123585001D01*
X187325000Y-124620000D02*
X190340000Y-124620000D01*
X221522499Y-95645001D02*
X223187500Y-93980000D01*
X196445001Y-95645001D02*
X221522499Y-95645001D01*
X194760009Y-93960009D02*
X196445001Y-95645001D01*
X223187500Y-92710000D02*
X223187500Y-93980000D01*
X223187500Y-93980000D02*
X223187500Y-96852500D01*
G04 #@! TO.N,SCK*
X187325000Y-116765000D02*
X191770000Y-112320000D01*
X187325000Y-119220000D02*
X187325000Y-116765000D01*
G04 #@! TO.N,CS*
X190990001Y-118179999D02*
X191770000Y-117400000D01*
X186680001Y-120320001D02*
X188849999Y-120320001D01*
X186055000Y-119695000D02*
X186680001Y-120320001D01*
X188849999Y-120320001D02*
X190990001Y-118179999D01*
X186055000Y-119220000D02*
X186055000Y-119695000D01*
G04 #@! TO.N,MISO*
X184785000Y-119220000D02*
X184785000Y-121285000D01*
X184785000Y-121285000D02*
X193675000Y-121285000D01*
X193675000Y-121285000D02*
X194310000Y-120650000D01*
X194310000Y-117400000D02*
X191770000Y-114860000D01*
X194310000Y-120650000D02*
X194310000Y-117400000D01*
G04 #@! TD*
D23*
G04 #@! TO.N,GND*
G36*
X236093000Y-139573000D02*
X174117000Y-139573000D01*
X174117000Y-132050000D01*
X178392560Y-132050000D01*
X178392560Y-134650000D01*
X178441843Y-134897765D01*
X178582191Y-135107809D01*
X178792235Y-135248157D01*
X179040000Y-135297440D01*
X181640000Y-135297440D01*
X181887765Y-135248157D01*
X182097809Y-135107809D01*
X182238157Y-134897765D01*
X182287440Y-134650000D01*
X182287440Y-133998483D01*
X182437929Y-133897929D01*
X182480331Y-133834470D01*
X183580674Y-132734128D01*
X183485000Y-132965105D01*
X183485000Y-133734895D01*
X183779586Y-134446090D01*
X184323910Y-134990414D01*
X185035105Y-135285000D01*
X185804895Y-135285000D01*
X186516090Y-134990414D01*
X187060414Y-134446090D01*
X187355000Y-133734895D01*
X187355000Y-132965105D01*
X187060414Y-132253910D01*
X186815000Y-132008496D01*
X186815000Y-126000669D01*
X187025000Y-126042440D01*
X187625000Y-126042440D01*
X187872765Y-125993157D01*
X188082809Y-125852809D01*
X188223157Y-125642765D01*
X188272440Y-125395000D01*
X188272440Y-125380000D01*
X190265153Y-125380000D01*
X190340000Y-125394888D01*
X190377552Y-125387419D01*
X190532697Y-125761972D01*
X190776745Y-125833650D01*
X191590395Y-125020000D01*
X191576253Y-125005858D01*
X191755858Y-124826253D01*
X191770000Y-124840395D01*
X191784143Y-124826253D01*
X191963748Y-125005858D01*
X191949605Y-125020000D01*
X192763255Y-125833650D01*
X193007303Y-125761972D01*
X193197060Y-125231997D01*
X193169559Y-124669748D01*
X193007303Y-124278028D01*
X192763257Y-124206350D01*
X192813212Y-124156395D01*
X192848330Y-124132930D01*
X192871795Y-124097812D01*
X192878202Y-124091405D01*
X192876928Y-124090131D01*
X192890732Y-124069471D01*
X195244482Y-121715722D01*
X195307938Y-121673322D01*
X195475913Y-121421930D01*
X195520009Y-121200245D01*
X195520009Y-121200240D01*
X195534897Y-121125393D01*
X195520009Y-121050546D01*
X195520009Y-95794811D01*
X195854672Y-96129474D01*
X195897072Y-96192930D01*
X196148464Y-96360905D01*
X196370149Y-96405001D01*
X196370153Y-96405001D01*
X196445001Y-96419889D01*
X196519849Y-96405001D01*
X215709158Y-96405001D01*
X215593636Y-96482191D01*
X215518985Y-96532071D01*
X215476585Y-96595527D01*
X211605530Y-100466583D01*
X211542071Y-100508985D01*
X211374096Y-100760378D01*
X211330000Y-100982063D01*
X211330000Y-100982067D01*
X211315112Y-101056914D01*
X211330000Y-101131761D01*
X211330001Y-118960550D01*
X211315112Y-119035402D01*
X211374097Y-119331939D01*
X211497442Y-119516537D01*
X211542072Y-119583331D01*
X211605528Y-119625731D01*
X216049270Y-124069474D01*
X216077366Y-124111522D01*
X215970421Y-124218467D01*
X215755000Y-124738539D01*
X215755000Y-125301461D01*
X215970421Y-125821533D01*
X216368467Y-126219579D01*
X216538478Y-126290000D01*
X216368467Y-126360421D01*
X215970421Y-126758467D01*
X215755000Y-127278539D01*
X215755000Y-127841461D01*
X215970421Y-128361533D01*
X216368467Y-128759579D01*
X216538478Y-128830000D01*
X216368467Y-128900421D01*
X215970421Y-129298467D01*
X215755000Y-129818539D01*
X215755000Y-130381461D01*
X215970421Y-130901533D01*
X216368467Y-131299579D01*
X216538478Y-131370000D01*
X216368467Y-131440421D01*
X215970421Y-131838467D01*
X215755000Y-132358539D01*
X215755000Y-132921461D01*
X215970421Y-133441533D01*
X216368467Y-133839579D01*
X216538478Y-133910000D01*
X216368467Y-133980421D01*
X215970421Y-134378467D01*
X215755000Y-134898539D01*
X215755000Y-135461461D01*
X215913038Y-135842999D01*
X193026962Y-135842999D01*
X193185000Y-135461461D01*
X193185000Y-134898539D01*
X192969579Y-134378467D01*
X192571533Y-133980421D01*
X192401522Y-133910000D01*
X192571533Y-133839579D01*
X192969579Y-133441533D01*
X193185000Y-132921461D01*
X193185000Y-132358539D01*
X192969579Y-131838467D01*
X192571533Y-131440421D01*
X192401522Y-131370000D01*
X192571533Y-131299579D01*
X192969579Y-130901533D01*
X193185000Y-130381461D01*
X193185000Y-129818539D01*
X192969579Y-129298467D01*
X192571533Y-128900421D01*
X192401522Y-128830000D01*
X192571533Y-128759579D01*
X192969579Y-128361533D01*
X193185000Y-127841461D01*
X193185000Y-127278539D01*
X192969579Y-126758467D01*
X192571533Y-126360421D01*
X192417278Y-126296527D01*
X192511972Y-126257303D01*
X192583650Y-126013255D01*
X191770000Y-125199605D01*
X190956350Y-126013255D01*
X191028028Y-126257303D01*
X191129609Y-126293674D01*
X190968467Y-126360421D01*
X190570421Y-126758467D01*
X190355000Y-127278539D01*
X190355000Y-127841461D01*
X190570421Y-128361533D01*
X190968467Y-128759579D01*
X191138478Y-128830000D01*
X190968467Y-128900421D01*
X190570421Y-129298467D01*
X190355000Y-129818539D01*
X190355000Y-130381461D01*
X190570421Y-130901533D01*
X190968467Y-131299579D01*
X191138478Y-131370000D01*
X190968467Y-131440421D01*
X190570421Y-131838467D01*
X190355000Y-132358539D01*
X190355000Y-132921461D01*
X190570421Y-133441533D01*
X190968467Y-133839579D01*
X191138478Y-133910000D01*
X190968467Y-133980421D01*
X190570421Y-134378467D01*
X190355000Y-134898539D01*
X190355000Y-135461461D01*
X190570421Y-135981533D01*
X190968467Y-136379579D01*
X191138478Y-136450000D01*
X190968467Y-136520421D01*
X190570421Y-136918467D01*
X190355000Y-137438539D01*
X190355000Y-138001461D01*
X190570421Y-138521533D01*
X190968467Y-138919579D01*
X191488539Y-139135000D01*
X192051461Y-139135000D01*
X192571533Y-138919579D01*
X192969579Y-138521533D01*
X193185000Y-138001461D01*
X193185000Y-137438539D01*
X193167796Y-137397005D01*
X193201802Y-137362999D01*
X215786290Y-137362999D01*
X215755000Y-137438539D01*
X215755000Y-138001461D01*
X215970421Y-138521533D01*
X216368467Y-138919579D01*
X216888539Y-139135000D01*
X217451461Y-139135000D01*
X217971533Y-138919579D01*
X218369579Y-138521533D01*
X218585000Y-138001461D01*
X218585000Y-137438539D01*
X218553710Y-137362999D01*
X225277154Y-137362999D01*
X225352001Y-137377887D01*
X225426848Y-137362999D01*
X225426853Y-137362999D01*
X225648538Y-137318903D01*
X225835255Y-137194142D01*
X226055744Y-137238000D01*
X226348256Y-137238000D01*
X226781418Y-137151839D01*
X227272625Y-136823625D01*
X227472000Y-136525239D01*
X227671375Y-136823625D01*
X228162582Y-137151839D01*
X228595744Y-137238000D01*
X228888256Y-137238000D01*
X229321418Y-137151839D01*
X229812625Y-136823625D01*
X229824816Y-136805381D01*
X229833843Y-136850765D01*
X229974191Y-137060809D01*
X230184235Y-137201157D01*
X230432000Y-137250440D01*
X232132000Y-137250440D01*
X232379765Y-137201157D01*
X232589809Y-137060809D01*
X232730157Y-136850765D01*
X232779440Y-136603000D01*
X232779440Y-134903000D01*
X232730157Y-134655235D01*
X232589809Y-134445191D01*
X232379765Y-134304843D01*
X232132000Y-134255560D01*
X232042000Y-134255560D01*
X232042000Y-132170440D01*
X232132000Y-132170440D01*
X232379765Y-132121157D01*
X232589809Y-131980809D01*
X232730157Y-131770765D01*
X232779440Y-131523000D01*
X232779440Y-129823000D01*
X232730157Y-129575235D01*
X232589809Y-129365191D01*
X232379765Y-129224843D01*
X232132000Y-129175560D01*
X230432000Y-129175560D01*
X230184235Y-129224843D01*
X229974191Y-129365191D01*
X229833843Y-129575235D01*
X229824816Y-129620619D01*
X229812625Y-129602375D01*
X229321418Y-129274161D01*
X228888256Y-129188000D01*
X228761801Y-129188000D01*
X234614482Y-123335320D01*
X234677938Y-123292920D01*
X234720933Y-123228573D01*
X234845913Y-123041529D01*
X234855489Y-122993386D01*
X234890009Y-122819843D01*
X234890009Y-122819839D01*
X234904897Y-122744991D01*
X234890009Y-122670143D01*
X234890009Y-79264855D01*
X234904897Y-79190008D01*
X234890009Y-79115161D01*
X234890009Y-79115157D01*
X234845913Y-78893472D01*
X234677938Y-78642080D01*
X234614482Y-78599680D01*
X232581209Y-76566408D01*
X232654092Y-76200000D01*
X232538839Y-75620582D01*
X232210625Y-75129375D01*
X232188967Y-75114904D01*
X232349698Y-75048327D01*
X232528327Y-74869699D01*
X232625000Y-74636310D01*
X232625000Y-73945750D01*
X232466250Y-73787000D01*
X231267000Y-73787000D01*
X231267000Y-73807000D01*
X231013000Y-73807000D01*
X231013000Y-73787000D01*
X229813750Y-73787000D01*
X229655000Y-73945750D01*
X229655000Y-74636310D01*
X229751673Y-74869699D01*
X229930302Y-75048327D01*
X230091033Y-75114904D01*
X230069375Y-75129375D01*
X229741161Y-75620582D01*
X229625908Y-76200000D01*
X229698791Y-76566407D01*
X225390198Y-80875001D01*
X212767440Y-80875001D01*
X212767440Y-78710000D01*
X212718157Y-78462235D01*
X212577809Y-78252191D01*
X212367765Y-78111843D01*
X212120000Y-78062560D01*
X209520000Y-78062560D01*
X209272235Y-78111843D01*
X209062191Y-78252191D01*
X208921843Y-78462235D01*
X208872560Y-78710000D01*
X208872560Y-79250000D01*
X202644803Y-79250000D01*
X200019908Y-76625105D01*
X204185000Y-76625105D01*
X204185000Y-77394895D01*
X204479586Y-78106090D01*
X205023910Y-78650414D01*
X205735105Y-78945000D01*
X206504895Y-78945000D01*
X207216090Y-78650414D01*
X207760414Y-78106090D01*
X208055000Y-77394895D01*
X208055000Y-76625105D01*
X207760414Y-75913910D01*
X207225963Y-75379459D01*
X209630146Y-75379459D01*
X209765504Y-75677455D01*
X210483880Y-75954066D01*
X211253427Y-75934710D01*
X211874496Y-75677455D01*
X212009854Y-75379459D01*
X210820000Y-74189605D01*
X209630146Y-75379459D01*
X207225963Y-75379459D01*
X207216090Y-75369586D01*
X206504895Y-75075000D01*
X205735105Y-75075000D01*
X205023910Y-75369586D01*
X204479586Y-75913910D01*
X204185000Y-76625105D01*
X200019908Y-76625105D01*
X197068682Y-73673880D01*
X208875934Y-73673880D01*
X208895290Y-74443427D01*
X209152545Y-75064496D01*
X209450541Y-75199854D01*
X210640395Y-74010000D01*
X210999605Y-74010000D01*
X212189459Y-75199854D01*
X212487455Y-75064496D01*
X212764066Y-74346120D01*
X212744710Y-73576573D01*
X212487455Y-72955504D01*
X212189459Y-72820146D01*
X210999605Y-74010000D01*
X210640395Y-74010000D01*
X209450541Y-72820146D01*
X209152545Y-72955504D01*
X208875934Y-73673880D01*
X197068682Y-73673880D01*
X196107440Y-72712639D01*
X196107440Y-72640541D01*
X209630146Y-72640541D01*
X210820000Y-73830395D01*
X211966705Y-72683690D01*
X229655000Y-72683690D01*
X229655000Y-73374250D01*
X229813750Y-73533000D01*
X231013000Y-73533000D01*
X231013000Y-72333750D01*
X231267000Y-72333750D01*
X231267000Y-73533000D01*
X232466250Y-73533000D01*
X232625000Y-73374250D01*
X232625000Y-72683690D01*
X232528327Y-72450301D01*
X232349698Y-72271673D01*
X232116309Y-72175000D01*
X231425750Y-72175000D01*
X231267000Y-72333750D01*
X231013000Y-72333750D01*
X230854250Y-72175000D01*
X230163691Y-72175000D01*
X229930302Y-72271673D01*
X229751673Y-72450301D01*
X229655000Y-72683690D01*
X211966705Y-72683690D01*
X212009854Y-72640541D01*
X211874496Y-72342545D01*
X211156120Y-72065934D01*
X210386573Y-72085290D01*
X209765504Y-72342545D01*
X209630146Y-72640541D01*
X196107440Y-72640541D01*
X196107440Y-71640000D01*
X196058157Y-71392235D01*
X195917809Y-71182191D01*
X195707765Y-71041843D01*
X195460000Y-70992560D01*
X193160000Y-70992560D01*
X192912235Y-71041843D01*
X192702191Y-71182191D01*
X192561843Y-71392235D01*
X192512560Y-71640000D01*
X192512560Y-73140000D01*
X192561843Y-73387765D01*
X192702191Y-73597809D01*
X192912235Y-73738157D01*
X193154725Y-73786391D01*
X192840855Y-74040460D01*
X192581827Y-74517316D01*
X192567682Y-74588815D01*
X192690344Y-74803000D01*
X194183000Y-74803000D01*
X194183000Y-74783000D01*
X194437000Y-74783000D01*
X194437000Y-74803000D01*
X195929656Y-74803000D01*
X195972823Y-74727624D01*
X201739673Y-80494476D01*
X201782071Y-80557929D01*
X201845524Y-80600327D01*
X201845526Y-80600329D01*
X201970902Y-80684102D01*
X202033463Y-80725904D01*
X202255148Y-80770000D01*
X202255152Y-80770000D01*
X202329999Y-80784888D01*
X202404846Y-80770000D01*
X208872560Y-80770000D01*
X208872560Y-80875001D01*
X200189803Y-80875001D01*
X196300331Y-76985530D01*
X196257929Y-76922071D01*
X196006537Y-76754096D01*
X195880640Y-76729053D01*
X195708529Y-76471471D01*
X195278684Y-76184258D01*
X195357349Y-76160972D01*
X195779145Y-75819540D01*
X196038173Y-75342684D01*
X196052318Y-75271185D01*
X195929656Y-75057000D01*
X194437000Y-75057000D01*
X194437000Y-75077000D01*
X194183000Y-75077000D01*
X194183000Y-75057000D01*
X192690344Y-75057000D01*
X192567682Y-75271185D01*
X192581827Y-75342684D01*
X192840855Y-75819540D01*
X193262651Y-76160972D01*
X193341316Y-76184258D01*
X192911471Y-76471471D01*
X192605359Y-76929600D01*
X192497867Y-77470000D01*
X192605359Y-78010400D01*
X192911471Y-78468529D01*
X193369600Y-78774641D01*
X193773593Y-78855000D01*
X194846407Y-78855000D01*
X195250400Y-78774641D01*
X195663689Y-78498490D01*
X199284672Y-82119474D01*
X199327072Y-82182930D01*
X199578464Y-82350905D01*
X199800149Y-82395001D01*
X199800154Y-82395001D01*
X199875001Y-82409889D01*
X199949848Y-82395001D01*
X225630152Y-82395001D01*
X225704999Y-82409889D01*
X225779846Y-82395001D01*
X225779851Y-82395001D01*
X226001536Y-82350905D01*
X226252928Y-82182930D01*
X226295330Y-82119471D01*
X229634020Y-78780782D01*
X229698791Y-79106407D01*
X220828030Y-87977169D01*
X220764571Y-88019571D01*
X220596596Y-88270964D01*
X220552500Y-88492649D01*
X220552500Y-88492653D01*
X220537612Y-88567500D01*
X220552500Y-88642347D01*
X220552501Y-91547467D01*
X220438584Y-91623584D01*
X220245398Y-91912706D01*
X220237980Y-91950000D01*
X219074848Y-91950000D01*
X219000000Y-91935112D01*
X218925152Y-91950000D01*
X218925148Y-91950000D01*
X218751605Y-91984520D01*
X218703462Y-91994096D01*
X218590107Y-92069838D01*
X218569559Y-91649748D01*
X218407303Y-91258028D01*
X218163255Y-91186350D01*
X217349605Y-92000000D01*
X217363748Y-92014143D01*
X217184143Y-92193748D01*
X217170000Y-92179605D01*
X216356350Y-92993255D01*
X216428028Y-93237303D01*
X216529609Y-93273674D01*
X216368467Y-93340421D01*
X215970421Y-93738467D01*
X215755000Y-94258539D01*
X215755000Y-94821461D01*
X215781319Y-94885001D01*
X196759803Y-94885001D01*
X195350342Y-93475541D01*
X195350338Y-93475535D01*
X195350336Y-93475533D01*
X195307938Y-93412080D01*
X195244485Y-93369682D01*
X193662805Y-91788003D01*
X215742940Y-91788003D01*
X215770441Y-92350252D01*
X215932697Y-92741972D01*
X216176745Y-92813650D01*
X216990395Y-92000000D01*
X216176745Y-91186350D01*
X215932697Y-91258028D01*
X215742940Y-91788003D01*
X193662805Y-91788003D01*
X193390331Y-91515530D01*
X193347929Y-91452071D01*
X193197440Y-91351517D01*
X193197440Y-91220000D01*
X193155022Y-91006745D01*
X216356350Y-91006745D01*
X217170000Y-91820395D01*
X217983650Y-91006745D01*
X217911972Y-90762697D01*
X217381997Y-90572940D01*
X216819748Y-90600441D01*
X216428028Y-90762697D01*
X216356350Y-91006745D01*
X193155022Y-91006745D01*
X193148157Y-90972235D01*
X193007809Y-90762191D01*
X192797765Y-90621843D01*
X192550000Y-90572560D01*
X190990000Y-90572560D01*
X190742235Y-90621843D01*
X190532191Y-90762191D01*
X190391843Y-90972235D01*
X190342560Y-91220000D01*
X190342560Y-92780000D01*
X190391843Y-93027765D01*
X190532191Y-93237809D01*
X190742235Y-93378157D01*
X190899458Y-93409430D01*
X190570421Y-93738467D01*
X190355000Y-94258539D01*
X190355000Y-94821461D01*
X190570421Y-95341533D01*
X190968467Y-95739579D01*
X191138478Y-95810000D01*
X190968467Y-95880421D01*
X190570421Y-96278467D01*
X190355000Y-96798539D01*
X190355000Y-97361461D01*
X190570421Y-97881533D01*
X190968467Y-98279579D01*
X191138478Y-98350000D01*
X190968467Y-98420421D01*
X190570421Y-98818467D01*
X190355000Y-99338539D01*
X190355000Y-99670198D01*
X187450000Y-96765199D01*
X187450000Y-89144847D01*
X187464888Y-89070000D01*
X187450000Y-88995153D01*
X187450000Y-88995148D01*
X187405904Y-88773463D01*
X187237929Y-88522071D01*
X187174473Y-88479671D01*
X183300331Y-84605530D01*
X183257929Y-84542071D01*
X183107440Y-84441517D01*
X183107440Y-84240000D01*
X183058157Y-83992235D01*
X182917809Y-83782191D01*
X182707765Y-83641843D01*
X182460000Y-83592560D01*
X180760000Y-83592560D01*
X180512235Y-83641843D01*
X180302191Y-83782191D01*
X180161843Y-83992235D01*
X180112560Y-84240000D01*
X180112560Y-85940000D01*
X180161843Y-86187765D01*
X180302191Y-86397809D01*
X180512235Y-86538157D01*
X180615708Y-86558739D01*
X180338355Y-86863076D01*
X180168524Y-87273110D01*
X180289845Y-87503000D01*
X181483000Y-87503000D01*
X181483000Y-87483000D01*
X181737000Y-87483000D01*
X181737000Y-87503000D01*
X182930155Y-87503000D01*
X183051476Y-87273110D01*
X182881645Y-86863076D01*
X182604292Y-86558739D01*
X182707765Y-86538157D01*
X182917809Y-86397809D01*
X182927902Y-86382703D01*
X185930000Y-89384802D01*
X185930001Y-97005148D01*
X185915112Y-97080000D01*
X185974097Y-97376537D01*
X186086220Y-97544340D01*
X186142072Y-97627929D01*
X186205528Y-97670329D01*
X190372204Y-101837006D01*
X190355000Y-101878539D01*
X190355000Y-102210198D01*
X185450331Y-97305530D01*
X185407929Y-97242071D01*
X185156537Y-97074096D01*
X184934852Y-97030000D01*
X184934847Y-97030000D01*
X184860000Y-97015112D01*
X184785153Y-97030000D01*
X183107440Y-97030000D01*
X183107440Y-96940000D01*
X183058157Y-96692235D01*
X182917809Y-96482191D01*
X182707765Y-96341843D01*
X182460000Y-96292560D01*
X180760000Y-96292560D01*
X180512235Y-96341843D01*
X180302191Y-96482191D01*
X180161843Y-96692235D01*
X180112560Y-96940000D01*
X180112560Y-98640000D01*
X180161843Y-98887765D01*
X180302191Y-99097809D01*
X180512235Y-99238157D01*
X180615708Y-99258739D01*
X180338355Y-99563076D01*
X180168524Y-99973110D01*
X180289845Y-100203000D01*
X181483000Y-100203000D01*
X181483000Y-100183000D01*
X181737000Y-100183000D01*
X181737000Y-100203000D01*
X182930155Y-100203000D01*
X183051476Y-99973110D01*
X182881645Y-99563076D01*
X182604292Y-99258739D01*
X182707765Y-99238157D01*
X182917809Y-99097809D01*
X183058157Y-98887765D01*
X183107440Y-98640000D01*
X183107440Y-98550000D01*
X184545199Y-98550000D01*
X190372204Y-104377006D01*
X190355000Y-104418539D01*
X190355000Y-104981461D01*
X190570421Y-105501533D01*
X190968467Y-105899579D01*
X191138478Y-105970000D01*
X190968467Y-106040421D01*
X190570421Y-106438467D01*
X190355000Y-106958539D01*
X190355000Y-107521461D01*
X190372204Y-107562995D01*
X188205199Y-109730000D01*
X183107440Y-109730000D01*
X183107440Y-109640000D01*
X183058157Y-109392235D01*
X182917809Y-109182191D01*
X182707765Y-109041843D01*
X182460000Y-108992560D01*
X180760000Y-108992560D01*
X180512235Y-109041843D01*
X180302191Y-109182191D01*
X180161843Y-109392235D01*
X180112560Y-109640000D01*
X180112560Y-111340000D01*
X180161843Y-111587765D01*
X180302191Y-111797809D01*
X180512235Y-111938157D01*
X180615708Y-111958739D01*
X180338355Y-112263076D01*
X180168524Y-112673110D01*
X180289845Y-112903000D01*
X181483000Y-112903000D01*
X181483000Y-112883000D01*
X181737000Y-112883000D01*
X181737000Y-112903000D01*
X182930155Y-112903000D01*
X183051476Y-112673110D01*
X182881645Y-112263076D01*
X182604292Y-111958739D01*
X182707765Y-111938157D01*
X182917809Y-111797809D01*
X183058157Y-111587765D01*
X183107440Y-111340000D01*
X183107440Y-111250000D01*
X188445153Y-111250000D01*
X188520000Y-111264888D01*
X188594847Y-111250000D01*
X188594852Y-111250000D01*
X188816537Y-111205904D01*
X189067929Y-111037929D01*
X189110331Y-110974470D01*
X190355000Y-109729801D01*
X190355000Y-110061461D01*
X190570421Y-110581533D01*
X190968467Y-110979579D01*
X191138478Y-111050000D01*
X190968467Y-111120421D01*
X190570421Y-111518467D01*
X190355000Y-112038539D01*
X190355000Y-112601461D01*
X190372204Y-112642994D01*
X186840528Y-116174671D01*
X186777072Y-116217071D01*
X186609097Y-116468463D01*
X186577938Y-116625112D01*
X186550112Y-116765000D01*
X186565001Y-116839852D01*
X186565001Y-117839331D01*
X186355000Y-117797560D01*
X185755000Y-117797560D01*
X185507235Y-117846843D01*
X185420000Y-117905132D01*
X185332765Y-117846843D01*
X185085000Y-117797560D01*
X184485000Y-117797560D01*
X184237235Y-117846843D01*
X184150000Y-117905132D01*
X184062765Y-117846843D01*
X183815000Y-117797560D01*
X183215000Y-117797560D01*
X182967235Y-117846843D01*
X182757191Y-117987191D01*
X182616843Y-118197235D01*
X182567560Y-118445000D01*
X182567560Y-119995000D01*
X182616843Y-120242765D01*
X182757191Y-120452809D01*
X182967235Y-120593157D01*
X183215000Y-120642440D01*
X183815000Y-120642440D01*
X184025001Y-120600669D01*
X184025001Y-121210143D01*
X184010111Y-121285000D01*
X184069096Y-121581537D01*
X184237071Y-121832929D01*
X184488463Y-122000904D01*
X184710148Y-122045000D01*
X184785000Y-122059889D01*
X184859852Y-122045000D01*
X190418598Y-122045000D01*
X190355000Y-122198539D01*
X190355000Y-122761461D01*
X190570421Y-123281533D01*
X190587043Y-123298155D01*
X190025199Y-123860000D01*
X188272440Y-123860000D01*
X188272440Y-123845000D01*
X188223157Y-123597235D01*
X188082809Y-123387191D01*
X187872765Y-123246843D01*
X187625000Y-123197560D01*
X187025000Y-123197560D01*
X186777235Y-123246843D01*
X186690000Y-123305132D01*
X186602765Y-123246843D01*
X186355000Y-123197560D01*
X185755000Y-123197560D01*
X185507235Y-123246843D01*
X185420000Y-123305132D01*
X185332765Y-123246843D01*
X185085000Y-123197560D01*
X184485000Y-123197560D01*
X184237235Y-123246843D01*
X184158028Y-123299768D01*
X183941310Y-123210000D01*
X183800750Y-123210000D01*
X183642000Y-123368750D01*
X183642000Y-124493000D01*
X183662000Y-124493000D01*
X183662000Y-124747000D01*
X183642000Y-124747000D01*
X183642000Y-125871250D01*
X183800750Y-126030000D01*
X183941310Y-126030000D01*
X184025000Y-125995334D01*
X184025001Y-130140197D01*
X182258864Y-131906335D01*
X182238157Y-131802235D01*
X182097809Y-131592191D01*
X181887765Y-131451843D01*
X181640000Y-131402560D01*
X179040000Y-131402560D01*
X178792235Y-131451843D01*
X178582191Y-131592191D01*
X178441843Y-131802235D01*
X178392560Y-132050000D01*
X174117000Y-132050000D01*
X174117000Y-124905750D01*
X182580000Y-124905750D01*
X182580000Y-125521309D01*
X182676673Y-125754698D01*
X182855301Y-125933327D01*
X183088690Y-126030000D01*
X183229250Y-126030000D01*
X183388000Y-125871250D01*
X183388000Y-124747000D01*
X182738750Y-124747000D01*
X182580000Y-124905750D01*
X174117000Y-124905750D01*
X174117000Y-123718691D01*
X182580000Y-123718691D01*
X182580000Y-124334250D01*
X182738750Y-124493000D01*
X183388000Y-124493000D01*
X183388000Y-123368750D01*
X183229250Y-123210000D01*
X183088690Y-123210000D01*
X182855301Y-123306673D01*
X182676673Y-123485302D01*
X182580000Y-123718691D01*
X174117000Y-123718691D01*
X174117000Y-113386890D01*
X180168524Y-113386890D01*
X180338355Y-113796924D01*
X180728642Y-114225183D01*
X181253108Y-114471486D01*
X181483000Y-114350819D01*
X181483000Y-113157000D01*
X181737000Y-113157000D01*
X181737000Y-114350819D01*
X181966892Y-114471486D01*
X182491358Y-114225183D01*
X182881645Y-113796924D01*
X183051476Y-113386890D01*
X182930155Y-113157000D01*
X181737000Y-113157000D01*
X181483000Y-113157000D01*
X180289845Y-113157000D01*
X180168524Y-113386890D01*
X174117000Y-113386890D01*
X174117000Y-100686890D01*
X180168524Y-100686890D01*
X180338355Y-101096924D01*
X180728642Y-101525183D01*
X181253108Y-101771486D01*
X181483000Y-101650819D01*
X181483000Y-100457000D01*
X181737000Y-100457000D01*
X181737000Y-101650819D01*
X181966892Y-101771486D01*
X182491358Y-101525183D01*
X182881645Y-101096924D01*
X183051476Y-100686890D01*
X182930155Y-100457000D01*
X181737000Y-100457000D01*
X181483000Y-100457000D01*
X180289845Y-100457000D01*
X180168524Y-100686890D01*
X174117000Y-100686890D01*
X174117000Y-87986890D01*
X180168524Y-87986890D01*
X180338355Y-88396924D01*
X180728642Y-88825183D01*
X181253108Y-89071486D01*
X181483000Y-88950819D01*
X181483000Y-87757000D01*
X181737000Y-87757000D01*
X181737000Y-88950819D01*
X181966892Y-89071486D01*
X182491358Y-88825183D01*
X182881645Y-88396924D01*
X183051476Y-87986890D01*
X182930155Y-87757000D01*
X181737000Y-87757000D01*
X181483000Y-87757000D01*
X180289845Y-87757000D01*
X180168524Y-87986890D01*
X174117000Y-87986890D01*
X174117000Y-66167000D01*
X236093000Y-66167000D01*
X236093000Y-139573000D01*
X236093000Y-139573000D01*
G37*
X236093000Y-139573000D02*
X174117000Y-139573000D01*
X174117000Y-132050000D01*
X178392560Y-132050000D01*
X178392560Y-134650000D01*
X178441843Y-134897765D01*
X178582191Y-135107809D01*
X178792235Y-135248157D01*
X179040000Y-135297440D01*
X181640000Y-135297440D01*
X181887765Y-135248157D01*
X182097809Y-135107809D01*
X182238157Y-134897765D01*
X182287440Y-134650000D01*
X182287440Y-133998483D01*
X182437929Y-133897929D01*
X182480331Y-133834470D01*
X183580674Y-132734128D01*
X183485000Y-132965105D01*
X183485000Y-133734895D01*
X183779586Y-134446090D01*
X184323910Y-134990414D01*
X185035105Y-135285000D01*
X185804895Y-135285000D01*
X186516090Y-134990414D01*
X187060414Y-134446090D01*
X187355000Y-133734895D01*
X187355000Y-132965105D01*
X187060414Y-132253910D01*
X186815000Y-132008496D01*
X186815000Y-126000669D01*
X187025000Y-126042440D01*
X187625000Y-126042440D01*
X187872765Y-125993157D01*
X188082809Y-125852809D01*
X188223157Y-125642765D01*
X188272440Y-125395000D01*
X188272440Y-125380000D01*
X190265153Y-125380000D01*
X190340000Y-125394888D01*
X190377552Y-125387419D01*
X190532697Y-125761972D01*
X190776745Y-125833650D01*
X191590395Y-125020000D01*
X191576253Y-125005858D01*
X191755858Y-124826253D01*
X191770000Y-124840395D01*
X191784143Y-124826253D01*
X191963748Y-125005858D01*
X191949605Y-125020000D01*
X192763255Y-125833650D01*
X193007303Y-125761972D01*
X193197060Y-125231997D01*
X193169559Y-124669748D01*
X193007303Y-124278028D01*
X192763257Y-124206350D01*
X192813212Y-124156395D01*
X192848330Y-124132930D01*
X192871795Y-124097812D01*
X192878202Y-124091405D01*
X192876928Y-124090131D01*
X192890732Y-124069471D01*
X195244482Y-121715722D01*
X195307938Y-121673322D01*
X195475913Y-121421930D01*
X195520009Y-121200245D01*
X195520009Y-121200240D01*
X195534897Y-121125393D01*
X195520009Y-121050546D01*
X195520009Y-95794811D01*
X195854672Y-96129474D01*
X195897072Y-96192930D01*
X196148464Y-96360905D01*
X196370149Y-96405001D01*
X196370153Y-96405001D01*
X196445001Y-96419889D01*
X196519849Y-96405001D01*
X215709158Y-96405001D01*
X215593636Y-96482191D01*
X215518985Y-96532071D01*
X215476585Y-96595527D01*
X211605530Y-100466583D01*
X211542071Y-100508985D01*
X211374096Y-100760378D01*
X211330000Y-100982063D01*
X211330000Y-100982067D01*
X211315112Y-101056914D01*
X211330000Y-101131761D01*
X211330001Y-118960550D01*
X211315112Y-119035402D01*
X211374097Y-119331939D01*
X211497442Y-119516537D01*
X211542072Y-119583331D01*
X211605528Y-119625731D01*
X216049270Y-124069474D01*
X216077366Y-124111522D01*
X215970421Y-124218467D01*
X215755000Y-124738539D01*
X215755000Y-125301461D01*
X215970421Y-125821533D01*
X216368467Y-126219579D01*
X216538478Y-126290000D01*
X216368467Y-126360421D01*
X215970421Y-126758467D01*
X215755000Y-127278539D01*
X215755000Y-127841461D01*
X215970421Y-128361533D01*
X216368467Y-128759579D01*
X216538478Y-128830000D01*
X216368467Y-128900421D01*
X215970421Y-129298467D01*
X215755000Y-129818539D01*
X215755000Y-130381461D01*
X215970421Y-130901533D01*
X216368467Y-131299579D01*
X216538478Y-131370000D01*
X216368467Y-131440421D01*
X215970421Y-131838467D01*
X215755000Y-132358539D01*
X215755000Y-132921461D01*
X215970421Y-133441533D01*
X216368467Y-133839579D01*
X216538478Y-133910000D01*
X216368467Y-133980421D01*
X215970421Y-134378467D01*
X215755000Y-134898539D01*
X215755000Y-135461461D01*
X215913038Y-135842999D01*
X193026962Y-135842999D01*
X193185000Y-135461461D01*
X193185000Y-134898539D01*
X192969579Y-134378467D01*
X192571533Y-133980421D01*
X192401522Y-133910000D01*
X192571533Y-133839579D01*
X192969579Y-133441533D01*
X193185000Y-132921461D01*
X193185000Y-132358539D01*
X192969579Y-131838467D01*
X192571533Y-131440421D01*
X192401522Y-131370000D01*
X192571533Y-131299579D01*
X192969579Y-130901533D01*
X193185000Y-130381461D01*
X193185000Y-129818539D01*
X192969579Y-129298467D01*
X192571533Y-128900421D01*
X192401522Y-128830000D01*
X192571533Y-128759579D01*
X192969579Y-128361533D01*
X193185000Y-127841461D01*
X193185000Y-127278539D01*
X192969579Y-126758467D01*
X192571533Y-126360421D01*
X192417278Y-126296527D01*
X192511972Y-126257303D01*
X192583650Y-126013255D01*
X191770000Y-125199605D01*
X190956350Y-126013255D01*
X191028028Y-126257303D01*
X191129609Y-126293674D01*
X190968467Y-126360421D01*
X190570421Y-126758467D01*
X190355000Y-127278539D01*
X190355000Y-127841461D01*
X190570421Y-128361533D01*
X190968467Y-128759579D01*
X191138478Y-128830000D01*
X190968467Y-128900421D01*
X190570421Y-129298467D01*
X190355000Y-129818539D01*
X190355000Y-130381461D01*
X190570421Y-130901533D01*
X190968467Y-131299579D01*
X191138478Y-131370000D01*
X190968467Y-131440421D01*
X190570421Y-131838467D01*
X190355000Y-132358539D01*
X190355000Y-132921461D01*
X190570421Y-133441533D01*
X190968467Y-133839579D01*
X191138478Y-133910000D01*
X190968467Y-133980421D01*
X190570421Y-134378467D01*
X190355000Y-134898539D01*
X190355000Y-135461461D01*
X190570421Y-135981533D01*
X190968467Y-136379579D01*
X191138478Y-136450000D01*
X190968467Y-136520421D01*
X190570421Y-136918467D01*
X190355000Y-137438539D01*
X190355000Y-138001461D01*
X190570421Y-138521533D01*
X190968467Y-138919579D01*
X191488539Y-139135000D01*
X192051461Y-139135000D01*
X192571533Y-138919579D01*
X192969579Y-138521533D01*
X193185000Y-138001461D01*
X193185000Y-137438539D01*
X193167796Y-137397005D01*
X193201802Y-137362999D01*
X215786290Y-137362999D01*
X215755000Y-137438539D01*
X215755000Y-138001461D01*
X215970421Y-138521533D01*
X216368467Y-138919579D01*
X216888539Y-139135000D01*
X217451461Y-139135000D01*
X217971533Y-138919579D01*
X218369579Y-138521533D01*
X218585000Y-138001461D01*
X218585000Y-137438539D01*
X218553710Y-137362999D01*
X225277154Y-137362999D01*
X225352001Y-137377887D01*
X225426848Y-137362999D01*
X225426853Y-137362999D01*
X225648538Y-137318903D01*
X225835255Y-137194142D01*
X226055744Y-137238000D01*
X226348256Y-137238000D01*
X226781418Y-137151839D01*
X227272625Y-136823625D01*
X227472000Y-136525239D01*
X227671375Y-136823625D01*
X228162582Y-137151839D01*
X228595744Y-137238000D01*
X228888256Y-137238000D01*
X229321418Y-137151839D01*
X229812625Y-136823625D01*
X229824816Y-136805381D01*
X229833843Y-136850765D01*
X229974191Y-137060809D01*
X230184235Y-137201157D01*
X230432000Y-137250440D01*
X232132000Y-137250440D01*
X232379765Y-137201157D01*
X232589809Y-137060809D01*
X232730157Y-136850765D01*
X232779440Y-136603000D01*
X232779440Y-134903000D01*
X232730157Y-134655235D01*
X232589809Y-134445191D01*
X232379765Y-134304843D01*
X232132000Y-134255560D01*
X232042000Y-134255560D01*
X232042000Y-132170440D01*
X232132000Y-132170440D01*
X232379765Y-132121157D01*
X232589809Y-131980809D01*
X232730157Y-131770765D01*
X232779440Y-131523000D01*
X232779440Y-129823000D01*
X232730157Y-129575235D01*
X232589809Y-129365191D01*
X232379765Y-129224843D01*
X232132000Y-129175560D01*
X230432000Y-129175560D01*
X230184235Y-129224843D01*
X229974191Y-129365191D01*
X229833843Y-129575235D01*
X229824816Y-129620619D01*
X229812625Y-129602375D01*
X229321418Y-129274161D01*
X228888256Y-129188000D01*
X228761801Y-129188000D01*
X234614482Y-123335320D01*
X234677938Y-123292920D01*
X234720933Y-123228573D01*
X234845913Y-123041529D01*
X234855489Y-122993386D01*
X234890009Y-122819843D01*
X234890009Y-122819839D01*
X234904897Y-122744991D01*
X234890009Y-122670143D01*
X234890009Y-79264855D01*
X234904897Y-79190008D01*
X234890009Y-79115161D01*
X234890009Y-79115157D01*
X234845913Y-78893472D01*
X234677938Y-78642080D01*
X234614482Y-78599680D01*
X232581209Y-76566408D01*
X232654092Y-76200000D01*
X232538839Y-75620582D01*
X232210625Y-75129375D01*
X232188967Y-75114904D01*
X232349698Y-75048327D01*
X232528327Y-74869699D01*
X232625000Y-74636310D01*
X232625000Y-73945750D01*
X232466250Y-73787000D01*
X231267000Y-73787000D01*
X231267000Y-73807000D01*
X231013000Y-73807000D01*
X231013000Y-73787000D01*
X229813750Y-73787000D01*
X229655000Y-73945750D01*
X229655000Y-74636310D01*
X229751673Y-74869699D01*
X229930302Y-75048327D01*
X230091033Y-75114904D01*
X230069375Y-75129375D01*
X229741161Y-75620582D01*
X229625908Y-76200000D01*
X229698791Y-76566407D01*
X225390198Y-80875001D01*
X212767440Y-80875001D01*
X212767440Y-78710000D01*
X212718157Y-78462235D01*
X212577809Y-78252191D01*
X212367765Y-78111843D01*
X212120000Y-78062560D01*
X209520000Y-78062560D01*
X209272235Y-78111843D01*
X209062191Y-78252191D01*
X208921843Y-78462235D01*
X208872560Y-78710000D01*
X208872560Y-79250000D01*
X202644803Y-79250000D01*
X200019908Y-76625105D01*
X204185000Y-76625105D01*
X204185000Y-77394895D01*
X204479586Y-78106090D01*
X205023910Y-78650414D01*
X205735105Y-78945000D01*
X206504895Y-78945000D01*
X207216090Y-78650414D01*
X207760414Y-78106090D01*
X208055000Y-77394895D01*
X208055000Y-76625105D01*
X207760414Y-75913910D01*
X207225963Y-75379459D01*
X209630146Y-75379459D01*
X209765504Y-75677455D01*
X210483880Y-75954066D01*
X211253427Y-75934710D01*
X211874496Y-75677455D01*
X212009854Y-75379459D01*
X210820000Y-74189605D01*
X209630146Y-75379459D01*
X207225963Y-75379459D01*
X207216090Y-75369586D01*
X206504895Y-75075000D01*
X205735105Y-75075000D01*
X205023910Y-75369586D01*
X204479586Y-75913910D01*
X204185000Y-76625105D01*
X200019908Y-76625105D01*
X197068682Y-73673880D01*
X208875934Y-73673880D01*
X208895290Y-74443427D01*
X209152545Y-75064496D01*
X209450541Y-75199854D01*
X210640395Y-74010000D01*
X210999605Y-74010000D01*
X212189459Y-75199854D01*
X212487455Y-75064496D01*
X212764066Y-74346120D01*
X212744710Y-73576573D01*
X212487455Y-72955504D01*
X212189459Y-72820146D01*
X210999605Y-74010000D01*
X210640395Y-74010000D01*
X209450541Y-72820146D01*
X209152545Y-72955504D01*
X208875934Y-73673880D01*
X197068682Y-73673880D01*
X196107440Y-72712639D01*
X196107440Y-72640541D01*
X209630146Y-72640541D01*
X210820000Y-73830395D01*
X211966705Y-72683690D01*
X229655000Y-72683690D01*
X229655000Y-73374250D01*
X229813750Y-73533000D01*
X231013000Y-73533000D01*
X231013000Y-72333750D01*
X231267000Y-72333750D01*
X231267000Y-73533000D01*
X232466250Y-73533000D01*
X232625000Y-73374250D01*
X232625000Y-72683690D01*
X232528327Y-72450301D01*
X232349698Y-72271673D01*
X232116309Y-72175000D01*
X231425750Y-72175000D01*
X231267000Y-72333750D01*
X231013000Y-72333750D01*
X230854250Y-72175000D01*
X230163691Y-72175000D01*
X229930302Y-72271673D01*
X229751673Y-72450301D01*
X229655000Y-72683690D01*
X211966705Y-72683690D01*
X212009854Y-72640541D01*
X211874496Y-72342545D01*
X211156120Y-72065934D01*
X210386573Y-72085290D01*
X209765504Y-72342545D01*
X209630146Y-72640541D01*
X196107440Y-72640541D01*
X196107440Y-71640000D01*
X196058157Y-71392235D01*
X195917809Y-71182191D01*
X195707765Y-71041843D01*
X195460000Y-70992560D01*
X193160000Y-70992560D01*
X192912235Y-71041843D01*
X192702191Y-71182191D01*
X192561843Y-71392235D01*
X192512560Y-71640000D01*
X192512560Y-73140000D01*
X192561843Y-73387765D01*
X192702191Y-73597809D01*
X192912235Y-73738157D01*
X193154725Y-73786391D01*
X192840855Y-74040460D01*
X192581827Y-74517316D01*
X192567682Y-74588815D01*
X192690344Y-74803000D01*
X194183000Y-74803000D01*
X194183000Y-74783000D01*
X194437000Y-74783000D01*
X194437000Y-74803000D01*
X195929656Y-74803000D01*
X195972823Y-74727624D01*
X201739673Y-80494476D01*
X201782071Y-80557929D01*
X201845524Y-80600327D01*
X201845526Y-80600329D01*
X201970902Y-80684102D01*
X202033463Y-80725904D01*
X202255148Y-80770000D01*
X202255152Y-80770000D01*
X202329999Y-80784888D01*
X202404846Y-80770000D01*
X208872560Y-80770000D01*
X208872560Y-80875001D01*
X200189803Y-80875001D01*
X196300331Y-76985530D01*
X196257929Y-76922071D01*
X196006537Y-76754096D01*
X195880640Y-76729053D01*
X195708529Y-76471471D01*
X195278684Y-76184258D01*
X195357349Y-76160972D01*
X195779145Y-75819540D01*
X196038173Y-75342684D01*
X196052318Y-75271185D01*
X195929656Y-75057000D01*
X194437000Y-75057000D01*
X194437000Y-75077000D01*
X194183000Y-75077000D01*
X194183000Y-75057000D01*
X192690344Y-75057000D01*
X192567682Y-75271185D01*
X192581827Y-75342684D01*
X192840855Y-75819540D01*
X193262651Y-76160972D01*
X193341316Y-76184258D01*
X192911471Y-76471471D01*
X192605359Y-76929600D01*
X192497867Y-77470000D01*
X192605359Y-78010400D01*
X192911471Y-78468529D01*
X193369600Y-78774641D01*
X193773593Y-78855000D01*
X194846407Y-78855000D01*
X195250400Y-78774641D01*
X195663689Y-78498490D01*
X199284672Y-82119474D01*
X199327072Y-82182930D01*
X199578464Y-82350905D01*
X199800149Y-82395001D01*
X199800154Y-82395001D01*
X199875001Y-82409889D01*
X199949848Y-82395001D01*
X225630152Y-82395001D01*
X225704999Y-82409889D01*
X225779846Y-82395001D01*
X225779851Y-82395001D01*
X226001536Y-82350905D01*
X226252928Y-82182930D01*
X226295330Y-82119471D01*
X229634020Y-78780782D01*
X229698791Y-79106407D01*
X220828030Y-87977169D01*
X220764571Y-88019571D01*
X220596596Y-88270964D01*
X220552500Y-88492649D01*
X220552500Y-88492653D01*
X220537612Y-88567500D01*
X220552500Y-88642347D01*
X220552501Y-91547467D01*
X220438584Y-91623584D01*
X220245398Y-91912706D01*
X220237980Y-91950000D01*
X219074848Y-91950000D01*
X219000000Y-91935112D01*
X218925152Y-91950000D01*
X218925148Y-91950000D01*
X218751605Y-91984520D01*
X218703462Y-91994096D01*
X218590107Y-92069838D01*
X218569559Y-91649748D01*
X218407303Y-91258028D01*
X218163255Y-91186350D01*
X217349605Y-92000000D01*
X217363748Y-92014143D01*
X217184143Y-92193748D01*
X217170000Y-92179605D01*
X216356350Y-92993255D01*
X216428028Y-93237303D01*
X216529609Y-93273674D01*
X216368467Y-93340421D01*
X215970421Y-93738467D01*
X215755000Y-94258539D01*
X215755000Y-94821461D01*
X215781319Y-94885001D01*
X196759803Y-94885001D01*
X195350342Y-93475541D01*
X195350338Y-93475535D01*
X195350336Y-93475533D01*
X195307938Y-93412080D01*
X195244485Y-93369682D01*
X193662805Y-91788003D01*
X215742940Y-91788003D01*
X215770441Y-92350252D01*
X215932697Y-92741972D01*
X216176745Y-92813650D01*
X216990395Y-92000000D01*
X216176745Y-91186350D01*
X215932697Y-91258028D01*
X215742940Y-91788003D01*
X193662805Y-91788003D01*
X193390331Y-91515530D01*
X193347929Y-91452071D01*
X193197440Y-91351517D01*
X193197440Y-91220000D01*
X193155022Y-91006745D01*
X216356350Y-91006745D01*
X217170000Y-91820395D01*
X217983650Y-91006745D01*
X217911972Y-90762697D01*
X217381997Y-90572940D01*
X216819748Y-90600441D01*
X216428028Y-90762697D01*
X216356350Y-91006745D01*
X193155022Y-91006745D01*
X193148157Y-90972235D01*
X193007809Y-90762191D01*
X192797765Y-90621843D01*
X192550000Y-90572560D01*
X190990000Y-90572560D01*
X190742235Y-90621843D01*
X190532191Y-90762191D01*
X190391843Y-90972235D01*
X190342560Y-91220000D01*
X190342560Y-92780000D01*
X190391843Y-93027765D01*
X190532191Y-93237809D01*
X190742235Y-93378157D01*
X190899458Y-93409430D01*
X190570421Y-93738467D01*
X190355000Y-94258539D01*
X190355000Y-94821461D01*
X190570421Y-95341533D01*
X190968467Y-95739579D01*
X191138478Y-95810000D01*
X190968467Y-95880421D01*
X190570421Y-96278467D01*
X190355000Y-96798539D01*
X190355000Y-97361461D01*
X190570421Y-97881533D01*
X190968467Y-98279579D01*
X191138478Y-98350000D01*
X190968467Y-98420421D01*
X190570421Y-98818467D01*
X190355000Y-99338539D01*
X190355000Y-99670198D01*
X187450000Y-96765199D01*
X187450000Y-89144847D01*
X187464888Y-89070000D01*
X187450000Y-88995153D01*
X187450000Y-88995148D01*
X187405904Y-88773463D01*
X187237929Y-88522071D01*
X187174473Y-88479671D01*
X183300331Y-84605530D01*
X183257929Y-84542071D01*
X183107440Y-84441517D01*
X183107440Y-84240000D01*
X183058157Y-83992235D01*
X182917809Y-83782191D01*
X182707765Y-83641843D01*
X182460000Y-83592560D01*
X180760000Y-83592560D01*
X180512235Y-83641843D01*
X180302191Y-83782191D01*
X180161843Y-83992235D01*
X180112560Y-84240000D01*
X180112560Y-85940000D01*
X180161843Y-86187765D01*
X180302191Y-86397809D01*
X180512235Y-86538157D01*
X180615708Y-86558739D01*
X180338355Y-86863076D01*
X180168524Y-87273110D01*
X180289845Y-87503000D01*
X181483000Y-87503000D01*
X181483000Y-87483000D01*
X181737000Y-87483000D01*
X181737000Y-87503000D01*
X182930155Y-87503000D01*
X183051476Y-87273110D01*
X182881645Y-86863076D01*
X182604292Y-86558739D01*
X182707765Y-86538157D01*
X182917809Y-86397809D01*
X182927902Y-86382703D01*
X185930000Y-89384802D01*
X185930001Y-97005148D01*
X185915112Y-97080000D01*
X185974097Y-97376537D01*
X186086220Y-97544340D01*
X186142072Y-97627929D01*
X186205528Y-97670329D01*
X190372204Y-101837006D01*
X190355000Y-101878539D01*
X190355000Y-102210198D01*
X185450331Y-97305530D01*
X185407929Y-97242071D01*
X185156537Y-97074096D01*
X184934852Y-97030000D01*
X184934847Y-97030000D01*
X184860000Y-97015112D01*
X184785153Y-97030000D01*
X183107440Y-97030000D01*
X183107440Y-96940000D01*
X183058157Y-96692235D01*
X182917809Y-96482191D01*
X182707765Y-96341843D01*
X182460000Y-96292560D01*
X180760000Y-96292560D01*
X180512235Y-96341843D01*
X180302191Y-96482191D01*
X180161843Y-96692235D01*
X180112560Y-96940000D01*
X180112560Y-98640000D01*
X180161843Y-98887765D01*
X180302191Y-99097809D01*
X180512235Y-99238157D01*
X180615708Y-99258739D01*
X180338355Y-99563076D01*
X180168524Y-99973110D01*
X180289845Y-100203000D01*
X181483000Y-100203000D01*
X181483000Y-100183000D01*
X181737000Y-100183000D01*
X181737000Y-100203000D01*
X182930155Y-100203000D01*
X183051476Y-99973110D01*
X182881645Y-99563076D01*
X182604292Y-99258739D01*
X182707765Y-99238157D01*
X182917809Y-99097809D01*
X183058157Y-98887765D01*
X183107440Y-98640000D01*
X183107440Y-98550000D01*
X184545199Y-98550000D01*
X190372204Y-104377006D01*
X190355000Y-104418539D01*
X190355000Y-104981461D01*
X190570421Y-105501533D01*
X190968467Y-105899579D01*
X191138478Y-105970000D01*
X190968467Y-106040421D01*
X190570421Y-106438467D01*
X190355000Y-106958539D01*
X190355000Y-107521461D01*
X190372204Y-107562995D01*
X188205199Y-109730000D01*
X183107440Y-109730000D01*
X183107440Y-109640000D01*
X183058157Y-109392235D01*
X182917809Y-109182191D01*
X182707765Y-109041843D01*
X182460000Y-108992560D01*
X180760000Y-108992560D01*
X180512235Y-109041843D01*
X180302191Y-109182191D01*
X180161843Y-109392235D01*
X180112560Y-109640000D01*
X180112560Y-111340000D01*
X180161843Y-111587765D01*
X180302191Y-111797809D01*
X180512235Y-111938157D01*
X180615708Y-111958739D01*
X180338355Y-112263076D01*
X180168524Y-112673110D01*
X180289845Y-112903000D01*
X181483000Y-112903000D01*
X181483000Y-112883000D01*
X181737000Y-112883000D01*
X181737000Y-112903000D01*
X182930155Y-112903000D01*
X183051476Y-112673110D01*
X182881645Y-112263076D01*
X182604292Y-111958739D01*
X182707765Y-111938157D01*
X182917809Y-111797809D01*
X183058157Y-111587765D01*
X183107440Y-111340000D01*
X183107440Y-111250000D01*
X188445153Y-111250000D01*
X188520000Y-111264888D01*
X188594847Y-111250000D01*
X188594852Y-111250000D01*
X188816537Y-111205904D01*
X189067929Y-111037929D01*
X189110331Y-110974470D01*
X190355000Y-109729801D01*
X190355000Y-110061461D01*
X190570421Y-110581533D01*
X190968467Y-110979579D01*
X191138478Y-111050000D01*
X190968467Y-111120421D01*
X190570421Y-111518467D01*
X190355000Y-112038539D01*
X190355000Y-112601461D01*
X190372204Y-112642994D01*
X186840528Y-116174671D01*
X186777072Y-116217071D01*
X186609097Y-116468463D01*
X186577938Y-116625112D01*
X186550112Y-116765000D01*
X186565001Y-116839852D01*
X186565001Y-117839331D01*
X186355000Y-117797560D01*
X185755000Y-117797560D01*
X185507235Y-117846843D01*
X185420000Y-117905132D01*
X185332765Y-117846843D01*
X185085000Y-117797560D01*
X184485000Y-117797560D01*
X184237235Y-117846843D01*
X184150000Y-117905132D01*
X184062765Y-117846843D01*
X183815000Y-117797560D01*
X183215000Y-117797560D01*
X182967235Y-117846843D01*
X182757191Y-117987191D01*
X182616843Y-118197235D01*
X182567560Y-118445000D01*
X182567560Y-119995000D01*
X182616843Y-120242765D01*
X182757191Y-120452809D01*
X182967235Y-120593157D01*
X183215000Y-120642440D01*
X183815000Y-120642440D01*
X184025001Y-120600669D01*
X184025001Y-121210143D01*
X184010111Y-121285000D01*
X184069096Y-121581537D01*
X184237071Y-121832929D01*
X184488463Y-122000904D01*
X184710148Y-122045000D01*
X184785000Y-122059889D01*
X184859852Y-122045000D01*
X190418598Y-122045000D01*
X190355000Y-122198539D01*
X190355000Y-122761461D01*
X190570421Y-123281533D01*
X190587043Y-123298155D01*
X190025199Y-123860000D01*
X188272440Y-123860000D01*
X188272440Y-123845000D01*
X188223157Y-123597235D01*
X188082809Y-123387191D01*
X187872765Y-123246843D01*
X187625000Y-123197560D01*
X187025000Y-123197560D01*
X186777235Y-123246843D01*
X186690000Y-123305132D01*
X186602765Y-123246843D01*
X186355000Y-123197560D01*
X185755000Y-123197560D01*
X185507235Y-123246843D01*
X185420000Y-123305132D01*
X185332765Y-123246843D01*
X185085000Y-123197560D01*
X184485000Y-123197560D01*
X184237235Y-123246843D01*
X184158028Y-123299768D01*
X183941310Y-123210000D01*
X183800750Y-123210000D01*
X183642000Y-123368750D01*
X183642000Y-124493000D01*
X183662000Y-124493000D01*
X183662000Y-124747000D01*
X183642000Y-124747000D01*
X183642000Y-125871250D01*
X183800750Y-126030000D01*
X183941310Y-126030000D01*
X184025000Y-125995334D01*
X184025001Y-130140197D01*
X182258864Y-131906335D01*
X182238157Y-131802235D01*
X182097809Y-131592191D01*
X181887765Y-131451843D01*
X181640000Y-131402560D01*
X179040000Y-131402560D01*
X178792235Y-131451843D01*
X178582191Y-131592191D01*
X178441843Y-131802235D01*
X178392560Y-132050000D01*
X174117000Y-132050000D01*
X174117000Y-124905750D01*
X182580000Y-124905750D01*
X182580000Y-125521309D01*
X182676673Y-125754698D01*
X182855301Y-125933327D01*
X183088690Y-126030000D01*
X183229250Y-126030000D01*
X183388000Y-125871250D01*
X183388000Y-124747000D01*
X182738750Y-124747000D01*
X182580000Y-124905750D01*
X174117000Y-124905750D01*
X174117000Y-123718691D01*
X182580000Y-123718691D01*
X182580000Y-124334250D01*
X182738750Y-124493000D01*
X183388000Y-124493000D01*
X183388000Y-123368750D01*
X183229250Y-123210000D01*
X183088690Y-123210000D01*
X182855301Y-123306673D01*
X182676673Y-123485302D01*
X182580000Y-123718691D01*
X174117000Y-123718691D01*
X174117000Y-113386890D01*
X180168524Y-113386890D01*
X180338355Y-113796924D01*
X180728642Y-114225183D01*
X181253108Y-114471486D01*
X181483000Y-114350819D01*
X181483000Y-113157000D01*
X181737000Y-113157000D01*
X181737000Y-114350819D01*
X181966892Y-114471486D01*
X182491358Y-114225183D01*
X182881645Y-113796924D01*
X183051476Y-113386890D01*
X182930155Y-113157000D01*
X181737000Y-113157000D01*
X181483000Y-113157000D01*
X180289845Y-113157000D01*
X180168524Y-113386890D01*
X174117000Y-113386890D01*
X174117000Y-100686890D01*
X180168524Y-100686890D01*
X180338355Y-101096924D01*
X180728642Y-101525183D01*
X181253108Y-101771486D01*
X181483000Y-101650819D01*
X181483000Y-100457000D01*
X181737000Y-100457000D01*
X181737000Y-101650819D01*
X181966892Y-101771486D01*
X182491358Y-101525183D01*
X182881645Y-101096924D01*
X183051476Y-100686890D01*
X182930155Y-100457000D01*
X181737000Y-100457000D01*
X181483000Y-100457000D01*
X180289845Y-100457000D01*
X180168524Y-100686890D01*
X174117000Y-100686890D01*
X174117000Y-87986890D01*
X180168524Y-87986890D01*
X180338355Y-88396924D01*
X180728642Y-88825183D01*
X181253108Y-89071486D01*
X181483000Y-88950819D01*
X181483000Y-87757000D01*
X181737000Y-87757000D01*
X181737000Y-88950819D01*
X181966892Y-89071486D01*
X182491358Y-88825183D01*
X182881645Y-88396924D01*
X183051476Y-87986890D01*
X182930155Y-87757000D01*
X181737000Y-87757000D01*
X181483000Y-87757000D01*
X180289845Y-87757000D01*
X180168524Y-87986890D01*
X174117000Y-87986890D01*
X174117000Y-66167000D01*
X236093000Y-66167000D01*
X236093000Y-139573000D01*
G36*
X226329000Y-112766000D02*
X226349000Y-112766000D01*
X226349000Y-113020000D01*
X226329000Y-113020000D01*
X226329000Y-114213155D01*
X226558890Y-114334476D01*
X226968924Y-114164645D01*
X227397183Y-113774358D01*
X227458157Y-113644522D01*
X227671375Y-113963625D01*
X228162582Y-114291839D01*
X228595744Y-114378000D01*
X228888256Y-114378000D01*
X229321418Y-114291839D01*
X229812625Y-113963625D01*
X229824816Y-113945381D01*
X229833843Y-113990765D01*
X229974191Y-114200809D01*
X229989296Y-114210902D01*
X221375198Y-122825001D01*
X218558681Y-122825001D01*
X218585000Y-122761461D01*
X218585000Y-122198539D01*
X218369579Y-121678467D01*
X217971533Y-121280421D01*
X217801522Y-121210000D01*
X217971533Y-121139579D01*
X218369579Y-120741533D01*
X218585000Y-120221461D01*
X218585000Y-119658539D01*
X218567796Y-119617005D01*
X224816243Y-113368559D01*
X225006817Y-113774358D01*
X225435076Y-114164645D01*
X225845110Y-114334476D01*
X226075000Y-114213155D01*
X226075000Y-113020000D01*
X226055000Y-113020000D01*
X226055000Y-112766000D01*
X226075000Y-112766000D01*
X226075000Y-112746000D01*
X226329000Y-112746000D01*
X226329000Y-112766000D01*
X226329000Y-112766000D01*
G37*
X226329000Y-112766000D02*
X226349000Y-112766000D01*
X226349000Y-113020000D01*
X226329000Y-113020000D01*
X226329000Y-114213155D01*
X226558890Y-114334476D01*
X226968924Y-114164645D01*
X227397183Y-113774358D01*
X227458157Y-113644522D01*
X227671375Y-113963625D01*
X228162582Y-114291839D01*
X228595744Y-114378000D01*
X228888256Y-114378000D01*
X229321418Y-114291839D01*
X229812625Y-113963625D01*
X229824816Y-113945381D01*
X229833843Y-113990765D01*
X229974191Y-114200809D01*
X229989296Y-114210902D01*
X221375198Y-122825001D01*
X218558681Y-122825001D01*
X218585000Y-122761461D01*
X218585000Y-122198539D01*
X218369579Y-121678467D01*
X217971533Y-121280421D01*
X217801522Y-121210000D01*
X217971533Y-121139579D01*
X218369579Y-120741533D01*
X218585000Y-120221461D01*
X218585000Y-119658539D01*
X218567796Y-119617005D01*
X224816243Y-113368559D01*
X225006817Y-113774358D01*
X225435076Y-114164645D01*
X225845110Y-114334476D01*
X226075000Y-114213155D01*
X226075000Y-113020000D01*
X226055000Y-113020000D01*
X226055000Y-112766000D01*
X226075000Y-112766000D01*
X226075000Y-112746000D01*
X226329000Y-112746000D01*
X226329000Y-112766000D01*
G36*
X232920001Y-81594804D02*
X232920000Y-107640198D01*
X229108408Y-111451791D01*
X228888256Y-111408000D01*
X228595744Y-111408000D01*
X228162582Y-111494161D01*
X227671375Y-111822375D01*
X227458157Y-112141478D01*
X227397183Y-112011642D01*
X226968924Y-111621355D01*
X226682204Y-111502599D01*
X229569802Y-108615001D01*
X230990152Y-108615001D01*
X231064999Y-108629889D01*
X231139846Y-108615001D01*
X231139851Y-108615001D01*
X231361536Y-108570905D01*
X231612928Y-108402930D01*
X231642969Y-108357970D01*
X231687929Y-108327929D01*
X231788483Y-108177440D01*
X231990000Y-108177440D01*
X232237765Y-108128157D01*
X232447809Y-107987809D01*
X232588157Y-107777765D01*
X232637440Y-107530000D01*
X232637440Y-105830000D01*
X232588157Y-105582235D01*
X232447809Y-105372191D01*
X232237765Y-105231843D01*
X231990000Y-105182560D01*
X230290000Y-105182560D01*
X230042235Y-105231843D01*
X229832191Y-105372191D01*
X229691843Y-105582235D01*
X229671261Y-105685708D01*
X229366924Y-105408355D01*
X228956890Y-105238524D01*
X228727002Y-105359844D01*
X228727002Y-105195000D01*
X228619801Y-105195000D01*
X230717362Y-103097440D01*
X231990000Y-103097440D01*
X232237765Y-103048157D01*
X232447809Y-102907809D01*
X232588157Y-102697765D01*
X232637440Y-102450000D01*
X232637440Y-100750000D01*
X232588157Y-100502235D01*
X232447809Y-100292191D01*
X232237765Y-100151843D01*
X231990000Y-100102560D01*
X230290000Y-100102560D01*
X230042235Y-100151843D01*
X229832191Y-100292191D01*
X229691843Y-100502235D01*
X229671261Y-100605708D01*
X229366924Y-100328355D01*
X228956890Y-100158524D01*
X228727002Y-100279844D01*
X228727002Y-100115000D01*
X228619801Y-100115000D01*
X230717362Y-98017440D01*
X231990000Y-98017440D01*
X232237765Y-97968157D01*
X232447809Y-97827809D01*
X232588157Y-97617765D01*
X232637440Y-97370000D01*
X232637440Y-95670000D01*
X232588157Y-95422235D01*
X232447809Y-95212191D01*
X232237765Y-95071843D01*
X231990000Y-95022560D01*
X230290000Y-95022560D01*
X230042235Y-95071843D01*
X229832191Y-95212191D01*
X229691843Y-95422235D01*
X229682816Y-95467619D01*
X229670625Y-95449375D01*
X229179418Y-95121161D01*
X228746256Y-95035000D01*
X228453744Y-95035000D01*
X228020582Y-95121161D01*
X227529375Y-95449375D01*
X227331562Y-95745423D01*
X227329999Y-95745112D01*
X227255152Y-95760000D01*
X227255148Y-95760000D01*
X227033463Y-95804096D01*
X227033461Y-95804097D01*
X227033462Y-95804097D01*
X226845526Y-95929671D01*
X226845524Y-95929673D01*
X226782071Y-95972071D01*
X226739673Y-96035524D01*
X219225530Y-103549669D01*
X219162071Y-103592071D01*
X218994096Y-103843464D01*
X218950000Y-104065149D01*
X218950000Y-104065153D01*
X218935112Y-104140000D01*
X218950000Y-104214847D01*
X218950001Y-106925196D01*
X218588953Y-107286245D01*
X218569559Y-106889748D01*
X218407303Y-106498028D01*
X218163255Y-106426350D01*
X217349605Y-107240000D01*
X217363748Y-107254143D01*
X217184143Y-107433748D01*
X217170000Y-107419605D01*
X216356350Y-108233255D01*
X216428028Y-108477303D01*
X216529609Y-108513674D01*
X216368467Y-108580421D01*
X215970421Y-108978467D01*
X215755000Y-109498539D01*
X215755000Y-110061461D01*
X215970421Y-110581533D01*
X216368467Y-110979579D01*
X216538478Y-111050000D01*
X216368467Y-111120421D01*
X215970421Y-111518467D01*
X215755000Y-112038539D01*
X215755000Y-112601461D01*
X215970421Y-113121533D01*
X216368467Y-113519579D01*
X216538478Y-113590000D01*
X216368467Y-113660421D01*
X215970421Y-114058467D01*
X215755000Y-114578539D01*
X215755000Y-115141461D01*
X215970421Y-115661533D01*
X216368467Y-116059579D01*
X216538478Y-116130000D01*
X216368467Y-116200421D01*
X215970421Y-116598467D01*
X215755000Y-117118539D01*
X215755000Y-117681461D01*
X215970421Y-118201533D01*
X216368467Y-118599579D01*
X216538478Y-118670000D01*
X216368467Y-118740421D01*
X215970421Y-119138467D01*
X215755000Y-119658539D01*
X215755000Y-120221461D01*
X215970421Y-120741533D01*
X216368467Y-121139579D01*
X216538478Y-121210000D01*
X216368467Y-121280421D01*
X215970421Y-121678467D01*
X215922810Y-121793410D01*
X212850000Y-118720601D01*
X212850000Y-107028003D01*
X215742940Y-107028003D01*
X215770441Y-107590252D01*
X215932697Y-107981972D01*
X216176745Y-108053650D01*
X216990395Y-107240000D01*
X216176745Y-106426350D01*
X215932697Y-106498028D01*
X215742940Y-107028003D01*
X212850000Y-107028003D01*
X212850000Y-101371715D01*
X216155302Y-98066414D01*
X216368467Y-98279579D01*
X216538478Y-98350000D01*
X216368467Y-98420421D01*
X215970421Y-98818467D01*
X215755000Y-99338539D01*
X215755000Y-99901461D01*
X215970421Y-100421533D01*
X216368467Y-100819579D01*
X216538478Y-100890000D01*
X216368467Y-100960421D01*
X215970421Y-101358467D01*
X215755000Y-101878539D01*
X215755000Y-102441461D01*
X215970421Y-102961533D01*
X216368467Y-103359579D01*
X216538478Y-103430000D01*
X216368467Y-103500421D01*
X215970421Y-103898467D01*
X215755000Y-104418539D01*
X215755000Y-104981461D01*
X215970421Y-105501533D01*
X216368467Y-105899579D01*
X216522722Y-105963473D01*
X216428028Y-106002697D01*
X216356350Y-106246745D01*
X217170000Y-107060395D01*
X217983650Y-106246745D01*
X217911972Y-106002697D01*
X217810391Y-105966326D01*
X217971533Y-105899579D01*
X218369579Y-105501533D01*
X218585000Y-104981461D01*
X218585000Y-104418539D01*
X218369579Y-103898467D01*
X217971533Y-103500421D01*
X217801522Y-103430000D01*
X217971533Y-103359579D01*
X218369579Y-102961533D01*
X218585000Y-102441461D01*
X218585000Y-101878539D01*
X218369579Y-101358467D01*
X217971533Y-100960421D01*
X217801522Y-100890000D01*
X217971533Y-100819579D01*
X218369579Y-100421533D01*
X218585000Y-99901461D01*
X218585000Y-99338539D01*
X218369579Y-98818467D01*
X217971533Y-98420421D01*
X217801522Y-98350000D01*
X217971533Y-98279579D01*
X218369579Y-97881533D01*
X218481016Y-97612500D01*
X220237980Y-97612500D01*
X220245398Y-97649794D01*
X220438584Y-97938916D01*
X220727706Y-98132102D01*
X221068750Y-98199940D01*
X221556250Y-98199940D01*
X221580346Y-98195147D01*
X221747179Y-98361980D01*
X221789581Y-98425439D01*
X222040973Y-98593414D01*
X222262658Y-98637510D01*
X222262662Y-98637510D01*
X222337509Y-98652398D01*
X222412356Y-98637510D01*
X223591993Y-98637510D01*
X223666840Y-98652398D01*
X223741687Y-98637510D01*
X223741692Y-98637510D01*
X223963377Y-98593414D01*
X224214769Y-98425439D01*
X224257171Y-98361980D01*
X224484480Y-98134671D01*
X224547939Y-98092269D01*
X224715914Y-97840877D01*
X224760010Y-97619192D01*
X224760010Y-97619188D01*
X224774898Y-97544340D01*
X224760010Y-97469492D01*
X224760010Y-88734791D01*
X230773593Y-82721209D01*
X230993744Y-82765000D01*
X231286256Y-82765000D01*
X231719418Y-82678839D01*
X232210625Y-82350625D01*
X232538839Y-81859418D01*
X232645980Y-81320782D01*
X232920001Y-81594804D01*
X232920001Y-81594804D01*
G37*
X232920001Y-81594804D02*
X232920000Y-107640198D01*
X229108408Y-111451791D01*
X228888256Y-111408000D01*
X228595744Y-111408000D01*
X228162582Y-111494161D01*
X227671375Y-111822375D01*
X227458157Y-112141478D01*
X227397183Y-112011642D01*
X226968924Y-111621355D01*
X226682204Y-111502599D01*
X229569802Y-108615001D01*
X230990152Y-108615001D01*
X231064999Y-108629889D01*
X231139846Y-108615001D01*
X231139851Y-108615001D01*
X231361536Y-108570905D01*
X231612928Y-108402930D01*
X231642969Y-108357970D01*
X231687929Y-108327929D01*
X231788483Y-108177440D01*
X231990000Y-108177440D01*
X232237765Y-108128157D01*
X232447809Y-107987809D01*
X232588157Y-107777765D01*
X232637440Y-107530000D01*
X232637440Y-105830000D01*
X232588157Y-105582235D01*
X232447809Y-105372191D01*
X232237765Y-105231843D01*
X231990000Y-105182560D01*
X230290000Y-105182560D01*
X230042235Y-105231843D01*
X229832191Y-105372191D01*
X229691843Y-105582235D01*
X229671261Y-105685708D01*
X229366924Y-105408355D01*
X228956890Y-105238524D01*
X228727002Y-105359844D01*
X228727002Y-105195000D01*
X228619801Y-105195000D01*
X230717362Y-103097440D01*
X231990000Y-103097440D01*
X232237765Y-103048157D01*
X232447809Y-102907809D01*
X232588157Y-102697765D01*
X232637440Y-102450000D01*
X232637440Y-100750000D01*
X232588157Y-100502235D01*
X232447809Y-100292191D01*
X232237765Y-100151843D01*
X231990000Y-100102560D01*
X230290000Y-100102560D01*
X230042235Y-100151843D01*
X229832191Y-100292191D01*
X229691843Y-100502235D01*
X229671261Y-100605708D01*
X229366924Y-100328355D01*
X228956890Y-100158524D01*
X228727002Y-100279844D01*
X228727002Y-100115000D01*
X228619801Y-100115000D01*
X230717362Y-98017440D01*
X231990000Y-98017440D01*
X232237765Y-97968157D01*
X232447809Y-97827809D01*
X232588157Y-97617765D01*
X232637440Y-97370000D01*
X232637440Y-95670000D01*
X232588157Y-95422235D01*
X232447809Y-95212191D01*
X232237765Y-95071843D01*
X231990000Y-95022560D01*
X230290000Y-95022560D01*
X230042235Y-95071843D01*
X229832191Y-95212191D01*
X229691843Y-95422235D01*
X229682816Y-95467619D01*
X229670625Y-95449375D01*
X229179418Y-95121161D01*
X228746256Y-95035000D01*
X228453744Y-95035000D01*
X228020582Y-95121161D01*
X227529375Y-95449375D01*
X227331562Y-95745423D01*
X227329999Y-95745112D01*
X227255152Y-95760000D01*
X227255148Y-95760000D01*
X227033463Y-95804096D01*
X227033461Y-95804097D01*
X227033462Y-95804097D01*
X226845526Y-95929671D01*
X226845524Y-95929673D01*
X226782071Y-95972071D01*
X226739673Y-96035524D01*
X219225530Y-103549669D01*
X219162071Y-103592071D01*
X218994096Y-103843464D01*
X218950000Y-104065149D01*
X218950000Y-104065153D01*
X218935112Y-104140000D01*
X218950000Y-104214847D01*
X218950001Y-106925196D01*
X218588953Y-107286245D01*
X218569559Y-106889748D01*
X218407303Y-106498028D01*
X218163255Y-106426350D01*
X217349605Y-107240000D01*
X217363748Y-107254143D01*
X217184143Y-107433748D01*
X217170000Y-107419605D01*
X216356350Y-108233255D01*
X216428028Y-108477303D01*
X216529609Y-108513674D01*
X216368467Y-108580421D01*
X215970421Y-108978467D01*
X215755000Y-109498539D01*
X215755000Y-110061461D01*
X215970421Y-110581533D01*
X216368467Y-110979579D01*
X216538478Y-111050000D01*
X216368467Y-111120421D01*
X215970421Y-111518467D01*
X215755000Y-112038539D01*
X215755000Y-112601461D01*
X215970421Y-113121533D01*
X216368467Y-113519579D01*
X216538478Y-113590000D01*
X216368467Y-113660421D01*
X215970421Y-114058467D01*
X215755000Y-114578539D01*
X215755000Y-115141461D01*
X215970421Y-115661533D01*
X216368467Y-116059579D01*
X216538478Y-116130000D01*
X216368467Y-116200421D01*
X215970421Y-116598467D01*
X215755000Y-117118539D01*
X215755000Y-117681461D01*
X215970421Y-118201533D01*
X216368467Y-118599579D01*
X216538478Y-118670000D01*
X216368467Y-118740421D01*
X215970421Y-119138467D01*
X215755000Y-119658539D01*
X215755000Y-120221461D01*
X215970421Y-120741533D01*
X216368467Y-121139579D01*
X216538478Y-121210000D01*
X216368467Y-121280421D01*
X215970421Y-121678467D01*
X215922810Y-121793410D01*
X212850000Y-118720601D01*
X212850000Y-107028003D01*
X215742940Y-107028003D01*
X215770441Y-107590252D01*
X215932697Y-107981972D01*
X216176745Y-108053650D01*
X216990395Y-107240000D01*
X216176745Y-106426350D01*
X215932697Y-106498028D01*
X215742940Y-107028003D01*
X212850000Y-107028003D01*
X212850000Y-101371715D01*
X216155302Y-98066414D01*
X216368467Y-98279579D01*
X216538478Y-98350000D01*
X216368467Y-98420421D01*
X215970421Y-98818467D01*
X215755000Y-99338539D01*
X215755000Y-99901461D01*
X215970421Y-100421533D01*
X216368467Y-100819579D01*
X216538478Y-100890000D01*
X216368467Y-100960421D01*
X215970421Y-101358467D01*
X215755000Y-101878539D01*
X215755000Y-102441461D01*
X215970421Y-102961533D01*
X216368467Y-103359579D01*
X216538478Y-103430000D01*
X216368467Y-103500421D01*
X215970421Y-103898467D01*
X215755000Y-104418539D01*
X215755000Y-104981461D01*
X215970421Y-105501533D01*
X216368467Y-105899579D01*
X216522722Y-105963473D01*
X216428028Y-106002697D01*
X216356350Y-106246745D01*
X217170000Y-107060395D01*
X217983650Y-106246745D01*
X217911972Y-106002697D01*
X217810391Y-105966326D01*
X217971533Y-105899579D01*
X218369579Y-105501533D01*
X218585000Y-104981461D01*
X218585000Y-104418539D01*
X218369579Y-103898467D01*
X217971533Y-103500421D01*
X217801522Y-103430000D01*
X217971533Y-103359579D01*
X218369579Y-102961533D01*
X218585000Y-102441461D01*
X218585000Y-101878539D01*
X218369579Y-101358467D01*
X217971533Y-100960421D01*
X217801522Y-100890000D01*
X217971533Y-100819579D01*
X218369579Y-100421533D01*
X218585000Y-99901461D01*
X218585000Y-99338539D01*
X218369579Y-98818467D01*
X217971533Y-98420421D01*
X217801522Y-98350000D01*
X217971533Y-98279579D01*
X218369579Y-97881533D01*
X218481016Y-97612500D01*
X220237980Y-97612500D01*
X220245398Y-97649794D01*
X220438584Y-97938916D01*
X220727706Y-98132102D01*
X221068750Y-98199940D01*
X221556250Y-98199940D01*
X221580346Y-98195147D01*
X221747179Y-98361980D01*
X221789581Y-98425439D01*
X222040973Y-98593414D01*
X222262658Y-98637510D01*
X222262662Y-98637510D01*
X222337509Y-98652398D01*
X222412356Y-98637510D01*
X223591993Y-98637510D01*
X223666840Y-98652398D01*
X223741687Y-98637510D01*
X223741692Y-98637510D01*
X223963377Y-98593414D01*
X224214769Y-98425439D01*
X224257171Y-98361980D01*
X224484480Y-98134671D01*
X224547939Y-98092269D01*
X224715914Y-97840877D01*
X224760010Y-97619192D01*
X224760010Y-97619188D01*
X224774898Y-97544340D01*
X224760010Y-97469492D01*
X224760010Y-88734791D01*
X230773593Y-82721209D01*
X230993744Y-82765000D01*
X231286256Y-82765000D01*
X231719418Y-82678839D01*
X232210625Y-82350625D01*
X232538839Y-81859418D01*
X232645980Y-81320782D01*
X232920001Y-81594804D01*
G36*
X227833076Y-107951645D02*
X228010193Y-108025005D01*
X218585000Y-117450199D01*
X218585000Y-117118539D01*
X218567796Y-117077005D01*
X227759871Y-107884931D01*
X227833076Y-107951645D01*
X227833076Y-107951645D01*
G37*
X227833076Y-107951645D02*
X228010193Y-108025005D01*
X218585000Y-117450199D01*
X218585000Y-117118539D01*
X218567796Y-117077005D01*
X227759871Y-107884931D01*
X227833076Y-107951645D01*
G36*
X227833076Y-102871645D02*
X228243110Y-103041476D01*
X228472998Y-102920156D01*
X228472998Y-103085000D01*
X228580199Y-103085000D01*
X226940529Y-104724670D01*
X226877070Y-104767072D01*
X226709095Y-105018465D01*
X226664999Y-105240150D01*
X226664999Y-105240154D01*
X226650111Y-105315001D01*
X226664999Y-105389848D01*
X226665000Y-106830198D01*
X218585000Y-114910199D01*
X218585000Y-114578539D01*
X218369579Y-114058467D01*
X217971533Y-113660421D01*
X217801522Y-113590000D01*
X217971533Y-113519579D01*
X218369579Y-113121533D01*
X218585000Y-112601461D01*
X218585000Y-112038539D01*
X218567796Y-111997005D01*
X227759871Y-102804931D01*
X227833076Y-102871645D01*
X227833076Y-102871645D01*
G37*
X227833076Y-102871645D02*
X228243110Y-103041476D01*
X228472998Y-102920156D01*
X228472998Y-103085000D01*
X228580199Y-103085000D01*
X226940529Y-104724670D01*
X226877070Y-104767072D01*
X226709095Y-105018465D01*
X226664999Y-105240150D01*
X226664999Y-105240154D01*
X226650111Y-105315001D01*
X226664999Y-105389848D01*
X226665000Y-106830198D01*
X218585000Y-114910199D01*
X218585000Y-114578539D01*
X218369579Y-114058467D01*
X217971533Y-113660421D01*
X217801522Y-113590000D01*
X217971533Y-113519579D01*
X218369579Y-113121533D01*
X218585000Y-112601461D01*
X218585000Y-112038539D01*
X218567796Y-111997005D01*
X227759871Y-102804931D01*
X227833076Y-102871645D01*
G36*
X228727000Y-106553000D02*
X228747000Y-106553000D01*
X228747000Y-106807000D01*
X228727000Y-106807000D01*
X228727000Y-106827000D01*
X228473000Y-106827000D01*
X228473000Y-106807000D01*
X228453000Y-106807000D01*
X228453000Y-106553000D01*
X228473000Y-106553000D01*
X228473000Y-106533000D01*
X228727000Y-106533000D01*
X228727000Y-106553000D01*
X228727000Y-106553000D01*
G37*
X228727000Y-106553000D02*
X228747000Y-106553000D01*
X228747000Y-106807000D01*
X228727000Y-106807000D01*
X228727000Y-106827000D01*
X228473000Y-106827000D01*
X228473000Y-106807000D01*
X228453000Y-106807000D01*
X228453000Y-106553000D01*
X228473000Y-106553000D01*
X228473000Y-106533000D01*
X228727000Y-106533000D01*
X228727000Y-106553000D01*
G36*
X228472998Y-105359844D02*
X228461189Y-105353612D01*
X228472998Y-105341803D01*
X228472998Y-105359844D01*
X228472998Y-105359844D01*
G37*
X228472998Y-105359844D02*
X228461189Y-105353612D01*
X228472998Y-105341803D01*
X228472998Y-105359844D01*
G36*
X228738811Y-102926388D02*
X228727002Y-102938197D01*
X228727002Y-102920156D01*
X228738811Y-102926388D01*
X228738811Y-102926388D01*
G37*
X228738811Y-102926388D02*
X228727002Y-102938197D01*
X228727002Y-102920156D01*
X228738811Y-102926388D01*
G36*
X228727000Y-101473000D02*
X228747000Y-101473000D01*
X228747000Y-101727000D01*
X228727000Y-101727000D01*
X228727000Y-101747000D01*
X228473000Y-101747000D01*
X228473000Y-101727000D01*
X228453000Y-101727000D01*
X228453000Y-101473000D01*
X228473000Y-101473000D01*
X228473000Y-101453000D01*
X228727000Y-101453000D01*
X228727000Y-101473000D01*
X228727000Y-101473000D01*
G37*
X228727000Y-101473000D02*
X228747000Y-101473000D01*
X228747000Y-101727000D01*
X228727000Y-101727000D01*
X228727000Y-101747000D01*
X228473000Y-101747000D01*
X228473000Y-101727000D01*
X228453000Y-101727000D01*
X228453000Y-101473000D01*
X228473000Y-101473000D01*
X228473000Y-101453000D01*
X228727000Y-101453000D01*
X228727000Y-101473000D01*
G04 #@! TD*
M02*
