%TF.GenerationSoftware,KiCad,Pcbnew,5.0.1-33cea8e~68~ubuntu18.04.1*%
%TF.CreationDate,2018-11-19T17:19:49-08:00*%
%TF.ProjectId,Bioreactor,42696F72656163746F722E6B69636164,rev?*%
%TF.SameCoordinates,Original*%
%TF.FileFunction,Plated,1,2,PTH,Drill*%
%TF.FilePolarity,Positive*%
%FSLAX46Y46*%
G04 Gerber Fmt 4.6, Leading zero omitted, Abs format (unit mm)*
G04 Created by KiCad (PCBNEW 5.0.1-33cea8e~68~ubuntu18.04.1) date Mon 19 Nov 2018 05:19:49 PM PST*
%MOMM*%
%LPD*%
G01*
G04 APERTURE LIST*
%TA.AperFunction,ViaDrill*%
%ADD10C,0.400000*%
%TD*%
%TA.AperFunction,ComponentDrill*%
%ADD11C,1.000000*%
%TD*%
%TA.AperFunction,ComponentDrill*%
%ADD12C,1.040000*%
%TD*%
%TA.AperFunction,ComponentDrill*%
%ADD13C,1.300000*%
%TD*%
%TA.AperFunction,ComponentDrill*%
%ADD14C,1.600000*%
%TD*%
G04 APERTURE END LIST*
D10*
X232410000Y-90170000D03*
D11*
%TO.C,J7*%
X181610000Y-97790000D03*
X181610000Y-100330000D03*
%TO.C,J2*%
X226202000Y-112893000D03*
X228742000Y-112893000D03*
X231282000Y-112893000D03*
%TO.C,J5*%
X181610000Y-85090000D03*
X181610000Y-87630000D03*
%TO.C,J12*%
X228600000Y-106680000D03*
X231140000Y-106680000D03*
%TO.C,J6*%
X231140000Y-73660000D03*
X231140000Y-76200000D03*
X231140000Y-78740000D03*
X231140000Y-81280000D03*
%TO.C,J11*%
X228600000Y-101600000D03*
X231140000Y-101600000D03*
%TO.C,J9*%
X226202000Y-135753000D03*
X228742000Y-135753000D03*
X231282000Y-135753000D03*
%TO.C,J1*%
X226202000Y-130673000D03*
X228742000Y-130673000D03*
X231282000Y-130673000D03*
%TO.C,J8*%
X181610000Y-110490000D03*
X181610000Y-113030000D03*
%TO.C,J10*%
X228600000Y-96520000D03*
X231140000Y-96520000D03*
%TO.C,U1*%
X194310000Y-72390000D03*
X194310000Y-74930000D03*
X194310000Y-77470000D03*
D12*
%TO.C,U3*%
X191770000Y-92000000D03*
X191770000Y-94540000D03*
X191770000Y-97080000D03*
X191770000Y-99620000D03*
X191770000Y-102160000D03*
X191770000Y-104700000D03*
X191770000Y-107240000D03*
X191770000Y-109780000D03*
X191770000Y-112320000D03*
X191770000Y-114860000D03*
X191770000Y-117400000D03*
X191770000Y-119940000D03*
X191770000Y-122480000D03*
X191770000Y-125020000D03*
X191770000Y-127560000D03*
X191770000Y-130100000D03*
X191770000Y-132640000D03*
X191770000Y-135180000D03*
X191770000Y-137720000D03*
X217170000Y-92000000D03*
X217170000Y-94540000D03*
X217170000Y-97080000D03*
X217170000Y-99620000D03*
X217170000Y-102160000D03*
X217170000Y-104700000D03*
X217170000Y-107240000D03*
X217170000Y-109780000D03*
X217170000Y-112320000D03*
X217170000Y-114860000D03*
X217170000Y-117400000D03*
X217170000Y-119940000D03*
X217170000Y-122480000D03*
X217170000Y-125020000D03*
X217170000Y-127560000D03*
X217170000Y-130100000D03*
X217170000Y-132640000D03*
X217170000Y-135180000D03*
X217170000Y-137720000D03*
D13*
%TO.C,J3*%
X180340000Y-133350000D03*
X185420000Y-133350000D03*
D14*
%TO.C,J4*%
X206120000Y-77010000D03*
X210820000Y-74010000D03*
X210820000Y-80010000D03*
M02*
