G04 #@! TF.GenerationSoftware,KiCad,Pcbnew,5.0.1-33cea8e~68~ubuntu18.04.1*
G04 #@! TF.CreationDate,2018-11-19T17:19:21-08:00*
G04 #@! TF.ProjectId,Bioreactor,42696F72656163746F722E6B69636164,rev?*
G04 #@! TF.SameCoordinates,Original*
G04 #@! TF.FileFunction,Legend,Top*
G04 #@! TF.FilePolarity,Positive*
%FSLAX46Y46*%
G04 Gerber Fmt 4.6, Leading zero omitted, Abs format (unit mm)*
G04 Created by KiCad (PCBNEW 5.0.1-33cea8e~68~ubuntu18.04.1) date Mon 19 Nov 2018 05:19:21 PM PST*
%MOMM*%
%LPD*%
G01*
G04 APERTURE LIST*
%ADD10C,0.300000*%
%ADD11C,0.127000*%
%ADD12C,0.120000*%
%ADD13C,0.150000*%
%ADD14C,0.050000*%
G04 APERTURE END LIST*
D10*
X223207142Y-84355714D02*
X223135714Y-84427142D01*
X222921428Y-84498571D01*
X222778571Y-84498571D01*
X222564285Y-84427142D01*
X222421428Y-84284285D01*
X222350000Y-84141428D01*
X222278571Y-83855714D01*
X222278571Y-83641428D01*
X222350000Y-83355714D01*
X222421428Y-83212857D01*
X222564285Y-83070000D01*
X222778571Y-82998571D01*
X222921428Y-82998571D01*
X223135714Y-83070000D01*
X223207142Y-83141428D01*
X224135714Y-82998571D02*
X224421428Y-82998571D01*
X224564285Y-83070000D01*
X224707142Y-83212857D01*
X224778571Y-83498571D01*
X224778571Y-83998571D01*
X224707142Y-84284285D01*
X224564285Y-84427142D01*
X224421428Y-84498571D01*
X224135714Y-84498571D01*
X223992857Y-84427142D01*
X223850000Y-84284285D01*
X223778571Y-83998571D01*
X223778571Y-83498571D01*
X223850000Y-83212857D01*
X223992857Y-83070000D01*
X224135714Y-82998571D01*
X225350000Y-83141428D02*
X225421428Y-83070000D01*
X225564285Y-82998571D01*
X225921428Y-82998571D01*
X226064285Y-83070000D01*
X226135714Y-83141428D01*
X226207142Y-83284285D01*
X226207142Y-83427142D01*
X226135714Y-83641428D01*
X225278571Y-84498571D01*
X226207142Y-84498571D01*
X227921428Y-84427142D02*
X228135714Y-84498571D01*
X228492857Y-84498571D01*
X228635714Y-84427142D01*
X228707142Y-84355714D01*
X228778571Y-84212857D01*
X228778571Y-84070000D01*
X228707142Y-83927142D01*
X228635714Y-83855714D01*
X228492857Y-83784285D01*
X228207142Y-83712857D01*
X228064285Y-83641428D01*
X227992857Y-83570000D01*
X227921428Y-83427142D01*
X227921428Y-83284285D01*
X227992857Y-83141428D01*
X228064285Y-83070000D01*
X228207142Y-82998571D01*
X228564285Y-82998571D01*
X228778571Y-83070000D01*
X229992857Y-84427142D02*
X229850000Y-84498571D01*
X229564285Y-84498571D01*
X229421428Y-84427142D01*
X229350000Y-84284285D01*
X229350000Y-83712857D01*
X229421428Y-83570000D01*
X229564285Y-83498571D01*
X229850000Y-83498571D01*
X229992857Y-83570000D01*
X230064285Y-83712857D01*
X230064285Y-83855714D01*
X229350000Y-83998571D01*
X230707142Y-83498571D02*
X230707142Y-84498571D01*
X230707142Y-83641428D02*
X230778571Y-83570000D01*
X230921428Y-83498571D01*
X231135714Y-83498571D01*
X231278571Y-83570000D01*
X231350000Y-83712857D01*
X231350000Y-84498571D01*
X231992857Y-84427142D02*
X232135714Y-84498571D01*
X232421428Y-84498571D01*
X232564285Y-84427142D01*
X232635714Y-84284285D01*
X232635714Y-84212857D01*
X232564285Y-84070000D01*
X232421428Y-83998571D01*
X232207142Y-83998571D01*
X232064285Y-83927142D01*
X231992857Y-83784285D01*
X231992857Y-83712857D01*
X232064285Y-83570000D01*
X232207142Y-83498571D01*
X232421428Y-83498571D01*
X232564285Y-83570000D01*
X233492857Y-84498571D02*
X233350000Y-84427142D01*
X233278571Y-84355714D01*
X233207142Y-84212857D01*
X233207142Y-83784285D01*
X233278571Y-83641428D01*
X233350000Y-83570000D01*
X233492857Y-83498571D01*
X233707142Y-83498571D01*
X233850000Y-83570000D01*
X233921428Y-83641428D01*
X233992857Y-83784285D01*
X233992857Y-84212857D01*
X233921428Y-84355714D01*
X233850000Y-84427142D01*
X233707142Y-84498571D01*
X233492857Y-84498571D01*
X234635714Y-84498571D02*
X234635714Y-83498571D01*
X234635714Y-83784285D02*
X234707142Y-83641428D01*
X234778571Y-83570000D01*
X234921428Y-83498571D01*
X235064285Y-83498571D01*
X177895714Y-114748571D02*
X178752857Y-114748571D01*
X178324285Y-116248571D02*
X178324285Y-114748571D01*
X179252857Y-116248571D02*
X179252857Y-115248571D01*
X179252857Y-115534285D02*
X179324285Y-115391428D01*
X179395714Y-115320000D01*
X179538571Y-115248571D01*
X179681428Y-115248571D01*
X180181428Y-116248571D02*
X180181428Y-115248571D01*
X180181428Y-114748571D02*
X180110000Y-114820000D01*
X180181428Y-114891428D01*
X180252857Y-114820000D01*
X180181428Y-114748571D01*
X180181428Y-114891428D01*
X181538571Y-115248571D02*
X181538571Y-116462857D01*
X181467142Y-116605714D01*
X181395714Y-116677142D01*
X181252857Y-116748571D01*
X181038571Y-116748571D01*
X180895714Y-116677142D01*
X181538571Y-116177142D02*
X181395714Y-116248571D01*
X181110000Y-116248571D01*
X180967142Y-116177142D01*
X180895714Y-116105714D01*
X180824285Y-115962857D01*
X180824285Y-115534285D01*
X180895714Y-115391428D01*
X180967142Y-115320000D01*
X181110000Y-115248571D01*
X181395714Y-115248571D01*
X181538571Y-115320000D01*
X182895714Y-115248571D02*
X182895714Y-116462857D01*
X182824285Y-116605714D01*
X182752857Y-116677142D01*
X182610000Y-116748571D01*
X182395714Y-116748571D01*
X182252857Y-116677142D01*
X182895714Y-116177142D02*
X182752857Y-116248571D01*
X182467142Y-116248571D01*
X182324285Y-116177142D01*
X182252857Y-116105714D01*
X182181428Y-115962857D01*
X182181428Y-115534285D01*
X182252857Y-115391428D01*
X182324285Y-115320000D01*
X182467142Y-115248571D01*
X182752857Y-115248571D01*
X182895714Y-115320000D01*
X184181428Y-116177142D02*
X184038571Y-116248571D01*
X183752857Y-116248571D01*
X183610000Y-116177142D01*
X183538571Y-116034285D01*
X183538571Y-115462857D01*
X183610000Y-115320000D01*
X183752857Y-115248571D01*
X184038571Y-115248571D01*
X184181428Y-115320000D01*
X184252857Y-115462857D01*
X184252857Y-115605714D01*
X183538571Y-115748571D01*
X184895714Y-116248571D02*
X184895714Y-115248571D01*
X184895714Y-115534285D02*
X184967142Y-115391428D01*
X185038571Y-115320000D01*
X185181428Y-115248571D01*
X185324285Y-115248571D01*
X178610000Y-103548571D02*
X178610000Y-102048571D01*
X179181428Y-102048571D01*
X179324285Y-102120000D01*
X179395714Y-102191428D01*
X179467142Y-102334285D01*
X179467142Y-102548571D01*
X179395714Y-102691428D01*
X179324285Y-102762857D01*
X179181428Y-102834285D01*
X178610000Y-102834285D01*
X180110000Y-103548571D02*
X180110000Y-102048571D01*
X180752857Y-103548571D02*
X180752857Y-102762857D01*
X180681428Y-102620000D01*
X180538571Y-102548571D01*
X180324285Y-102548571D01*
X180181428Y-102620000D01*
X180110000Y-102691428D01*
X182110000Y-103548571D02*
X182110000Y-102762857D01*
X182038571Y-102620000D01*
X181895714Y-102548571D01*
X181610000Y-102548571D01*
X181467142Y-102620000D01*
X182110000Y-103477142D02*
X181967142Y-103548571D01*
X181610000Y-103548571D01*
X181467142Y-103477142D01*
X181395714Y-103334285D01*
X181395714Y-103191428D01*
X181467142Y-103048571D01*
X181610000Y-102977142D01*
X181967142Y-102977142D01*
X182110000Y-102905714D01*
X182752857Y-103477142D02*
X182895714Y-103548571D01*
X183181428Y-103548571D01*
X183324285Y-103477142D01*
X183395714Y-103334285D01*
X183395714Y-103262857D01*
X183324285Y-103120000D01*
X183181428Y-103048571D01*
X182967142Y-103048571D01*
X182824285Y-102977142D01*
X182752857Y-102834285D01*
X182752857Y-102762857D01*
X182824285Y-102620000D01*
X182967142Y-102548571D01*
X183181428Y-102548571D01*
X183324285Y-102620000D01*
X184610000Y-103477142D02*
X184467142Y-103548571D01*
X184181428Y-103548571D01*
X184038571Y-103477142D01*
X183967142Y-103334285D01*
X183967142Y-102762857D01*
X184038571Y-102620000D01*
X184181428Y-102548571D01*
X184467142Y-102548571D01*
X184610000Y-102620000D01*
X184681428Y-102762857D01*
X184681428Y-102905714D01*
X183967142Y-103048571D01*
X176395714Y-90420000D02*
X177110000Y-90420000D01*
X176252857Y-90848571D02*
X176752857Y-89348571D01*
X177252857Y-90848571D01*
X177752857Y-90848571D02*
X177752857Y-89848571D01*
X177752857Y-89991428D02*
X177824285Y-89920000D01*
X177967142Y-89848571D01*
X178181428Y-89848571D01*
X178324285Y-89920000D01*
X178395714Y-90062857D01*
X178395714Y-90848571D01*
X178395714Y-90062857D02*
X178467142Y-89920000D01*
X178610000Y-89848571D01*
X178824285Y-89848571D01*
X178967142Y-89920000D01*
X179038571Y-90062857D01*
X179038571Y-90848571D01*
X179752857Y-89848571D02*
X179752857Y-91348571D01*
X179752857Y-89920000D02*
X179895714Y-89848571D01*
X180181428Y-89848571D01*
X180324285Y-89920000D01*
X180395714Y-89991428D01*
X180467142Y-90134285D01*
X180467142Y-90562857D01*
X180395714Y-90705714D01*
X180324285Y-90777142D01*
X180181428Y-90848571D01*
X179895714Y-90848571D01*
X179752857Y-90777142D01*
X181324285Y-90848571D02*
X181181428Y-90777142D01*
X181110000Y-90634285D01*
X181110000Y-89348571D01*
X181895714Y-90848571D02*
X181895714Y-89848571D01*
X181895714Y-89348571D02*
X181824285Y-89420000D01*
X181895714Y-89491428D01*
X181967142Y-89420000D01*
X181895714Y-89348571D01*
X181895714Y-89491428D01*
X182395714Y-89848571D02*
X182967142Y-89848571D01*
X182610000Y-89348571D02*
X182610000Y-90634285D01*
X182681428Y-90777142D01*
X182824285Y-90848571D01*
X182967142Y-90848571D01*
X184110000Y-89848571D02*
X184110000Y-90848571D01*
X183467142Y-89848571D02*
X183467142Y-90634285D01*
X183538571Y-90777142D01*
X183681428Y-90848571D01*
X183895714Y-90848571D01*
X184038571Y-90777142D01*
X184110000Y-90705714D01*
X185467142Y-90848571D02*
X185467142Y-89348571D01*
X185467142Y-90777142D02*
X185324285Y-90848571D01*
X185038571Y-90848571D01*
X184895714Y-90777142D01*
X184824285Y-90705714D01*
X184752857Y-90562857D01*
X184752857Y-90134285D01*
X184824285Y-89991428D01*
X184895714Y-89920000D01*
X185038571Y-89848571D01*
X185324285Y-89848571D01*
X185467142Y-89920000D01*
X186752857Y-90777142D02*
X186610000Y-90848571D01*
X186324285Y-90848571D01*
X186181428Y-90777142D01*
X186110000Y-90634285D01*
X186110000Y-90062857D01*
X186181428Y-89920000D01*
X186324285Y-89848571D01*
X186610000Y-89848571D01*
X186752857Y-89920000D01*
X186824285Y-90062857D01*
X186824285Y-90205714D01*
X186110000Y-90348571D01*
X175708571Y-139687142D02*
X175708571Y-138830000D01*
X177208571Y-139258571D02*
X175708571Y-139258571D01*
X177208571Y-138330000D02*
X175708571Y-138330000D01*
X177208571Y-137687142D02*
X176422857Y-137687142D01*
X176280000Y-137758571D01*
X176208571Y-137901428D01*
X176208571Y-138115714D01*
X176280000Y-138258571D01*
X176351428Y-138330000D01*
X177137142Y-136401428D02*
X177208571Y-136544285D01*
X177208571Y-136830000D01*
X177137142Y-136972857D01*
X176994285Y-137044285D01*
X176422857Y-137044285D01*
X176280000Y-136972857D01*
X176208571Y-136830000D01*
X176208571Y-136544285D01*
X176280000Y-136401428D01*
X176422857Y-136330000D01*
X176565714Y-136330000D01*
X176708571Y-137044285D01*
X177208571Y-135687142D02*
X176208571Y-135687142D01*
X176494285Y-135687142D02*
X176351428Y-135615714D01*
X176280000Y-135544285D01*
X176208571Y-135401428D01*
X176208571Y-135258571D01*
X177208571Y-134758571D02*
X176208571Y-134758571D01*
X176351428Y-134758571D02*
X176280000Y-134687142D01*
X176208571Y-134544285D01*
X176208571Y-134330000D01*
X176280000Y-134187142D01*
X176422857Y-134115714D01*
X177208571Y-134115714D01*
X176422857Y-134115714D02*
X176280000Y-134044285D01*
X176208571Y-133901428D01*
X176208571Y-133687142D01*
X176280000Y-133544285D01*
X176422857Y-133472857D01*
X177208571Y-133472857D01*
X177208571Y-132544285D02*
X177137142Y-132687142D01*
X177065714Y-132758571D01*
X176922857Y-132830000D01*
X176494285Y-132830000D01*
X176351428Y-132758571D01*
X176280000Y-132687142D01*
X176208571Y-132544285D01*
X176208571Y-132330000D01*
X176280000Y-132187142D01*
X176351428Y-132115714D01*
X176494285Y-132044285D01*
X176922857Y-132044285D01*
X177065714Y-132115714D01*
X177137142Y-132187142D01*
X177208571Y-132330000D01*
X177208571Y-132544285D01*
X177137142Y-130758571D02*
X177208571Y-130901428D01*
X177208571Y-131187142D01*
X177137142Y-131330000D01*
X177065714Y-131401428D01*
X176922857Y-131472857D01*
X176494285Y-131472857D01*
X176351428Y-131401428D01*
X176280000Y-131330000D01*
X176208571Y-131187142D01*
X176208571Y-130901428D01*
X176280000Y-130758571D01*
X177208571Y-129901428D02*
X177137142Y-130044285D01*
X177065714Y-130115714D01*
X176922857Y-130187142D01*
X176494285Y-130187142D01*
X176351428Y-130115714D01*
X176280000Y-130044285D01*
X176208571Y-129901428D01*
X176208571Y-129687142D01*
X176280000Y-129544285D01*
X176351428Y-129472857D01*
X176494285Y-129401428D01*
X176922857Y-129401428D01*
X177065714Y-129472857D01*
X177137142Y-129544285D01*
X177208571Y-129687142D01*
X177208571Y-129901428D01*
X176208571Y-128115714D02*
X177208571Y-128115714D01*
X176208571Y-128758571D02*
X176994285Y-128758571D01*
X177137142Y-128687142D01*
X177208571Y-128544285D01*
X177208571Y-128330000D01*
X177137142Y-128187142D01*
X177065714Y-128115714D01*
X176208571Y-127401428D02*
X177708571Y-127401428D01*
X176280000Y-127401428D02*
X176208571Y-127258571D01*
X176208571Y-126972857D01*
X176280000Y-126830000D01*
X176351428Y-126758571D01*
X176494285Y-126687142D01*
X176922857Y-126687142D01*
X177065714Y-126758571D01*
X177137142Y-126830000D01*
X177208571Y-126972857D01*
X177208571Y-127258571D01*
X177137142Y-127401428D01*
X177208571Y-125830000D02*
X177137142Y-125972857D01*
X176994285Y-126044285D01*
X175708571Y-126044285D01*
X177137142Y-124687142D02*
X177208571Y-124830000D01*
X177208571Y-125115714D01*
X177137142Y-125258571D01*
X176994285Y-125330000D01*
X176422857Y-125330000D01*
X176280000Y-125258571D01*
X176208571Y-125115714D01*
X176208571Y-124830000D01*
X176280000Y-124687142D01*
X176422857Y-124615714D01*
X176565714Y-124615714D01*
X176708571Y-125330000D01*
X223135714Y-138108571D02*
X223135714Y-139608571D01*
X223135714Y-138180000D02*
X223278571Y-138108571D01*
X223564285Y-138108571D01*
X223707142Y-138180000D01*
X223778571Y-138251428D01*
X223850000Y-138394285D01*
X223850000Y-138822857D01*
X223778571Y-138965714D01*
X223707142Y-139037142D01*
X223564285Y-139108571D01*
X223278571Y-139108571D01*
X223135714Y-139037142D01*
X224492857Y-139108571D02*
X224492857Y-137608571D01*
X224492857Y-138322857D02*
X225350000Y-138322857D01*
X225350000Y-139108571D02*
X225350000Y-137608571D01*
X227135714Y-139037142D02*
X227350000Y-139108571D01*
X227707142Y-139108571D01*
X227850000Y-139037142D01*
X227921428Y-138965714D01*
X227992857Y-138822857D01*
X227992857Y-138680000D01*
X227921428Y-138537142D01*
X227850000Y-138465714D01*
X227707142Y-138394285D01*
X227421428Y-138322857D01*
X227278571Y-138251428D01*
X227207142Y-138180000D01*
X227135714Y-138037142D01*
X227135714Y-137894285D01*
X227207142Y-137751428D01*
X227278571Y-137680000D01*
X227421428Y-137608571D01*
X227778571Y-137608571D01*
X227992857Y-137680000D01*
X229207142Y-139037142D02*
X229064285Y-139108571D01*
X228778571Y-139108571D01*
X228635714Y-139037142D01*
X228564285Y-138894285D01*
X228564285Y-138322857D01*
X228635714Y-138180000D01*
X228778571Y-138108571D01*
X229064285Y-138108571D01*
X229207142Y-138180000D01*
X229278571Y-138322857D01*
X229278571Y-138465714D01*
X228564285Y-138608571D01*
X229921428Y-138108571D02*
X229921428Y-139108571D01*
X229921428Y-138251428D02*
X229992857Y-138180000D01*
X230135714Y-138108571D01*
X230350000Y-138108571D01*
X230492857Y-138180000D01*
X230564285Y-138322857D01*
X230564285Y-139108571D01*
X231207142Y-139037142D02*
X231350000Y-139108571D01*
X231635714Y-139108571D01*
X231778571Y-139037142D01*
X231850000Y-138894285D01*
X231850000Y-138822857D01*
X231778571Y-138680000D01*
X231635714Y-138608571D01*
X231421428Y-138608571D01*
X231278571Y-138537142D01*
X231207142Y-138394285D01*
X231207142Y-138322857D01*
X231278571Y-138180000D01*
X231421428Y-138108571D01*
X231635714Y-138108571D01*
X231778571Y-138180000D01*
X232707142Y-139108571D02*
X232564285Y-139037142D01*
X232492857Y-138965714D01*
X232421428Y-138822857D01*
X232421428Y-138394285D01*
X232492857Y-138251428D01*
X232564285Y-138180000D01*
X232707142Y-138108571D01*
X232921428Y-138108571D01*
X233064285Y-138180000D01*
X233135714Y-138251428D01*
X233207142Y-138394285D01*
X233207142Y-138822857D01*
X233135714Y-138965714D01*
X233064285Y-139037142D01*
X232921428Y-139108571D01*
X232707142Y-139108571D01*
X233850000Y-139108571D02*
X233850000Y-138108571D01*
X233850000Y-138394285D02*
X233921428Y-138251428D01*
X233992857Y-138180000D01*
X234135714Y-138108571D01*
X234278571Y-138108571D01*
X224048571Y-126678571D02*
X224048571Y-128178571D01*
X224048571Y-126750000D02*
X224191428Y-126678571D01*
X224477142Y-126678571D01*
X224620000Y-126750000D01*
X224691428Y-126821428D01*
X224762857Y-126964285D01*
X224762857Y-127392857D01*
X224691428Y-127535714D01*
X224620000Y-127607142D01*
X224477142Y-127678571D01*
X224191428Y-127678571D01*
X224048571Y-127607142D01*
X225405714Y-127678571D02*
X225405714Y-126178571D01*
X225405714Y-126892857D02*
X226262857Y-126892857D01*
X226262857Y-127678571D02*
X226262857Y-126178571D01*
X226977142Y-127107142D02*
X228120000Y-127107142D01*
X228762857Y-127607142D02*
X228977142Y-127678571D01*
X229334285Y-127678571D01*
X229477142Y-127607142D01*
X229548571Y-127535714D01*
X229620000Y-127392857D01*
X229620000Y-127250000D01*
X229548571Y-127107142D01*
X229477142Y-127035714D01*
X229334285Y-126964285D01*
X229048571Y-126892857D01*
X228905714Y-126821428D01*
X228834285Y-126750000D01*
X228762857Y-126607142D01*
X228762857Y-126464285D01*
X228834285Y-126321428D01*
X228905714Y-126250000D01*
X229048571Y-126178571D01*
X229405714Y-126178571D01*
X229620000Y-126250000D01*
X230834285Y-127607142D02*
X230691428Y-127678571D01*
X230405714Y-127678571D01*
X230262857Y-127607142D01*
X230191428Y-127464285D01*
X230191428Y-126892857D01*
X230262857Y-126750000D01*
X230405714Y-126678571D01*
X230691428Y-126678571D01*
X230834285Y-126750000D01*
X230905714Y-126892857D01*
X230905714Y-127035714D01*
X230191428Y-127178571D01*
X231548571Y-126678571D02*
X231548571Y-127678571D01*
X231548571Y-126821428D02*
X231620000Y-126750000D01*
X231762857Y-126678571D01*
X231977142Y-126678571D01*
X232120000Y-126750000D01*
X232191428Y-126892857D01*
X232191428Y-127678571D01*
X232834285Y-127607142D02*
X232977142Y-127678571D01*
X233262857Y-127678571D01*
X233405714Y-127607142D01*
X233477142Y-127464285D01*
X233477142Y-127392857D01*
X233405714Y-127250000D01*
X233262857Y-127178571D01*
X233048571Y-127178571D01*
X232905714Y-127107142D01*
X232834285Y-126964285D01*
X232834285Y-126892857D01*
X232905714Y-126750000D01*
X233048571Y-126678571D01*
X233262857Y-126678571D01*
X233405714Y-126750000D01*
X234334285Y-127678571D02*
X234191428Y-127607142D01*
X234120000Y-127535714D01*
X234048571Y-127392857D01*
X234048571Y-126964285D01*
X234120000Y-126821428D01*
X234191428Y-126750000D01*
X234334285Y-126678571D01*
X234548571Y-126678571D01*
X234691428Y-126750000D01*
X234762857Y-126821428D01*
X234834285Y-126964285D01*
X234834285Y-127392857D01*
X234762857Y-127535714D01*
X234691428Y-127607142D01*
X234548571Y-127678571D01*
X234334285Y-127678571D01*
X235477142Y-127678571D02*
X235477142Y-126678571D01*
X235477142Y-126964285D02*
X235548571Y-126821428D01*
X235620000Y-126750000D01*
X235762857Y-126678571D01*
X235905714Y-126678571D01*
X224850000Y-115248571D02*
X224850000Y-116748571D01*
X224850000Y-115320000D02*
X224992857Y-115248571D01*
X225278571Y-115248571D01*
X225421428Y-115320000D01*
X225492857Y-115391428D01*
X225564285Y-115534285D01*
X225564285Y-115962857D01*
X225492857Y-116105714D01*
X225421428Y-116177142D01*
X225278571Y-116248571D01*
X224992857Y-116248571D01*
X224850000Y-116177142D01*
X226207142Y-116248571D02*
X226207142Y-114748571D01*
X226207142Y-115462857D02*
X227064285Y-115462857D01*
X227064285Y-116248571D02*
X227064285Y-114748571D01*
X227778571Y-115677142D02*
X228921428Y-115677142D01*
X229635714Y-116248571D02*
X229635714Y-115248571D01*
X229635714Y-114748571D02*
X229564285Y-114820000D01*
X229635714Y-114891428D01*
X229707142Y-114820000D01*
X229635714Y-114748571D01*
X229635714Y-114891428D01*
X230278571Y-114891428D02*
X230350000Y-114820000D01*
X230492857Y-114748571D01*
X230850000Y-114748571D01*
X230992857Y-114820000D01*
X231064285Y-114891428D01*
X231135714Y-115034285D01*
X231135714Y-115177142D01*
X231064285Y-115391428D01*
X230207142Y-116248571D01*
X231135714Y-116248571D01*
X232421428Y-116177142D02*
X232278571Y-116248571D01*
X231992857Y-116248571D01*
X231850000Y-116177142D01*
X231778571Y-116105714D01*
X231707142Y-115962857D01*
X231707142Y-115534285D01*
X231778571Y-115391428D01*
X231850000Y-115320000D01*
X231992857Y-115248571D01*
X232278571Y-115248571D01*
X232421428Y-115320000D01*
X227492857Y-92388571D02*
X227492857Y-93888571D01*
X227492857Y-92460000D02*
X227635714Y-92388571D01*
X227921428Y-92388571D01*
X228064285Y-92460000D01*
X228135714Y-92531428D01*
X228207142Y-92674285D01*
X228207142Y-93102857D01*
X228135714Y-93245714D01*
X228064285Y-93317142D01*
X227921428Y-93388571D01*
X227635714Y-93388571D01*
X227492857Y-93317142D01*
X228850000Y-93388571D02*
X228850000Y-91888571D01*
X228850000Y-92602857D02*
X229707142Y-92602857D01*
X229707142Y-93388571D02*
X229707142Y-91888571D01*
X225238571Y-104314285D02*
X225238571Y-103457142D01*
X226738571Y-103885714D02*
X225238571Y-103885714D01*
X225952857Y-102957142D02*
X225952857Y-102457142D01*
X226738571Y-102242857D02*
X226738571Y-102957142D01*
X225238571Y-102957142D01*
X225238571Y-102242857D01*
X226738571Y-101600000D02*
X225238571Y-101600000D01*
X226310000Y-101100000D01*
X225238571Y-100600000D01*
X226738571Y-100600000D01*
X226738571Y-99885714D02*
X225238571Y-99885714D01*
X225238571Y-99314285D01*
X225310000Y-99171428D01*
X225381428Y-99100000D01*
X225524285Y-99028571D01*
X225738571Y-99028571D01*
X225881428Y-99100000D01*
X225952857Y-99171428D01*
X226024285Y-99314285D01*
X226024285Y-99885714D01*
X226595714Y-108985714D02*
X226667142Y-109057142D01*
X226738571Y-109271428D01*
X226738571Y-109414285D01*
X226667142Y-109628571D01*
X226524285Y-109771428D01*
X226381428Y-109842857D01*
X226095714Y-109914285D01*
X225881428Y-109914285D01*
X225595714Y-109842857D01*
X225452857Y-109771428D01*
X225310000Y-109628571D01*
X225238571Y-109414285D01*
X225238571Y-109271428D01*
X225310000Y-109057142D01*
X225381428Y-108985714D01*
X225238571Y-108057142D02*
X225238571Y-107771428D01*
X225310000Y-107628571D01*
X225452857Y-107485714D01*
X225738571Y-107414285D01*
X226238571Y-107414285D01*
X226524285Y-107485714D01*
X226667142Y-107628571D01*
X226738571Y-107771428D01*
X226738571Y-108057142D01*
X226667142Y-108200000D01*
X226524285Y-108342857D01*
X226238571Y-108414285D01*
X225738571Y-108414285D01*
X225452857Y-108342857D01*
X225310000Y-108200000D01*
X225238571Y-108057142D01*
X225381428Y-106842857D02*
X225310000Y-106771428D01*
X225238571Y-106628571D01*
X225238571Y-106271428D01*
X225310000Y-106128571D01*
X225381428Y-106057142D01*
X225524285Y-105985714D01*
X225667142Y-105985714D01*
X225881428Y-106057142D01*
X226738571Y-106914285D01*
X226738571Y-105985714D01*
X175518571Y-69248571D02*
X175518571Y-67748571D01*
X176018571Y-68820000D01*
X176518571Y-67748571D01*
X176518571Y-69248571D01*
X177875714Y-69177142D02*
X177732857Y-69248571D01*
X177447142Y-69248571D01*
X177304285Y-69177142D01*
X177232857Y-69105714D01*
X177161428Y-68962857D01*
X177161428Y-68534285D01*
X177232857Y-68391428D01*
X177304285Y-68320000D01*
X177447142Y-68248571D01*
X177732857Y-68248571D01*
X177875714Y-68320000D01*
X178518571Y-69248571D02*
X178518571Y-67748571D01*
X179375714Y-69248571D02*
X178732857Y-68391428D01*
X179375714Y-67748571D02*
X178518571Y-68605714D01*
X180590000Y-69177142D02*
X180447142Y-69248571D01*
X180161428Y-69248571D01*
X180018571Y-69177142D01*
X179947142Y-69034285D01*
X179947142Y-68462857D01*
X180018571Y-68320000D01*
X180161428Y-68248571D01*
X180447142Y-68248571D01*
X180590000Y-68320000D01*
X180661428Y-68462857D01*
X180661428Y-68605714D01*
X179947142Y-68748571D01*
X181304285Y-68248571D02*
X181304285Y-69248571D01*
X181304285Y-68391428D02*
X181375714Y-68320000D01*
X181518571Y-68248571D01*
X181732857Y-68248571D01*
X181875714Y-68320000D01*
X181947142Y-68462857D01*
X181947142Y-69248571D01*
X182518571Y-68248571D02*
X183304285Y-68248571D01*
X182518571Y-69248571D01*
X183304285Y-69248571D01*
X183875714Y-69248571D02*
X183875714Y-68248571D01*
X183875714Y-67748571D02*
X183804285Y-67820000D01*
X183875714Y-67891428D01*
X183947142Y-67820000D01*
X183875714Y-67748571D01*
X183875714Y-67891428D01*
X185161428Y-69177142D02*
X185018571Y-69248571D01*
X184732857Y-69248571D01*
X184590000Y-69177142D01*
X184518571Y-69034285D01*
X184518571Y-68462857D01*
X184590000Y-68320000D01*
X184732857Y-68248571D01*
X185018571Y-68248571D01*
X185161428Y-68320000D01*
X185232857Y-68462857D01*
X185232857Y-68605714D01*
X184518571Y-68748571D01*
X175411428Y-71012857D02*
X175625714Y-71084285D01*
X175697142Y-71155714D01*
X175768571Y-71298571D01*
X175768571Y-71512857D01*
X175697142Y-71655714D01*
X175625714Y-71727142D01*
X175482857Y-71798571D01*
X174911428Y-71798571D01*
X174911428Y-70298571D01*
X175411428Y-70298571D01*
X175554285Y-70370000D01*
X175625714Y-70441428D01*
X175697142Y-70584285D01*
X175697142Y-70727142D01*
X175625714Y-70870000D01*
X175554285Y-70941428D01*
X175411428Y-71012857D01*
X174911428Y-71012857D01*
X176411428Y-71798571D02*
X176411428Y-70798571D01*
X176411428Y-70298571D02*
X176340000Y-70370000D01*
X176411428Y-70441428D01*
X176482857Y-70370000D01*
X176411428Y-70298571D01*
X176411428Y-70441428D01*
X177340000Y-71798571D02*
X177197142Y-71727142D01*
X177125714Y-71655714D01*
X177054285Y-71512857D01*
X177054285Y-71084285D01*
X177125714Y-70941428D01*
X177197142Y-70870000D01*
X177340000Y-70798571D01*
X177554285Y-70798571D01*
X177697142Y-70870000D01*
X177768571Y-70941428D01*
X177840000Y-71084285D01*
X177840000Y-71512857D01*
X177768571Y-71655714D01*
X177697142Y-71727142D01*
X177554285Y-71798571D01*
X177340000Y-71798571D01*
X178482857Y-71798571D02*
X178482857Y-70798571D01*
X178482857Y-71084285D02*
X178554285Y-70941428D01*
X178625714Y-70870000D01*
X178768571Y-70798571D01*
X178911428Y-70798571D01*
X179982857Y-71727142D02*
X179840000Y-71798571D01*
X179554285Y-71798571D01*
X179411428Y-71727142D01*
X179340000Y-71584285D01*
X179340000Y-71012857D01*
X179411428Y-70870000D01*
X179554285Y-70798571D01*
X179840000Y-70798571D01*
X179982857Y-70870000D01*
X180054285Y-71012857D01*
X180054285Y-71155714D01*
X179340000Y-71298571D01*
X181340000Y-71798571D02*
X181340000Y-71012857D01*
X181268571Y-70870000D01*
X181125714Y-70798571D01*
X180840000Y-70798571D01*
X180697142Y-70870000D01*
X181340000Y-71727142D02*
X181197142Y-71798571D01*
X180840000Y-71798571D01*
X180697142Y-71727142D01*
X180625714Y-71584285D01*
X180625714Y-71441428D01*
X180697142Y-71298571D01*
X180840000Y-71227142D01*
X181197142Y-71227142D01*
X181340000Y-71155714D01*
X182697142Y-71727142D02*
X182554285Y-71798571D01*
X182268571Y-71798571D01*
X182125714Y-71727142D01*
X182054285Y-71655714D01*
X181982857Y-71512857D01*
X181982857Y-71084285D01*
X182054285Y-70941428D01*
X182125714Y-70870000D01*
X182268571Y-70798571D01*
X182554285Y-70798571D01*
X182697142Y-70870000D01*
X183125714Y-70798571D02*
X183697142Y-70798571D01*
X183340000Y-70298571D02*
X183340000Y-71584285D01*
X183411428Y-71727142D01*
X183554285Y-71798571D01*
X183697142Y-71798571D01*
X184411428Y-71798571D02*
X184268571Y-71727142D01*
X184197142Y-71655714D01*
X184125714Y-71512857D01*
X184125714Y-71084285D01*
X184197142Y-70941428D01*
X184268571Y-70870000D01*
X184411428Y-70798571D01*
X184625714Y-70798571D01*
X184768571Y-70870000D01*
X184840000Y-70941428D01*
X184911428Y-71084285D01*
X184911428Y-71512857D01*
X184840000Y-71655714D01*
X184768571Y-71727142D01*
X184625714Y-71798571D01*
X184411428Y-71798571D01*
X185554285Y-71798571D02*
X185554285Y-70798571D01*
X185554285Y-71084285D02*
X185625714Y-70941428D01*
X185697142Y-70870000D01*
X185840000Y-70798571D01*
X185982857Y-70798571D01*
X179268571Y-73348571D02*
X179625714Y-74348571D01*
X179982857Y-73348571D01*
X181340000Y-74348571D02*
X180482857Y-74348571D01*
X180911428Y-74348571D02*
X180911428Y-72848571D01*
X180768571Y-73062857D01*
X180625714Y-73205714D01*
X180482857Y-73277142D01*
D11*
G04 #@! TO.C,U3*
X190520000Y-139010000D02*
X190520000Y-84610000D01*
X190520000Y-84610000D02*
X218420000Y-84610000D01*
X218420000Y-84610000D02*
X218420000Y-139010000D01*
X218420000Y-139010000D02*
X190520000Y-139010000D01*
D12*
G04 #@! TO.C,J3*
X182520000Y-133350000D02*
G75*
G03X182520000Y-133350000I-2180000J0D01*
G01*
X187600000Y-133350000D02*
G75*
G03X187600000Y-133350000I-2180000J0D01*
G01*
X177740000Y-138150000D02*
X188020000Y-138150000D01*
X177740000Y-135650000D02*
X188020000Y-135650000D01*
X177740000Y-129450000D02*
X188020000Y-129450000D01*
X177740000Y-127390000D02*
X188020000Y-127390000D01*
X177740000Y-138710000D02*
X188020000Y-138710000D01*
X177740000Y-127390000D02*
X177740000Y-138710000D01*
X188020000Y-127390000D02*
X188020000Y-138710000D01*
X181994000Y-131962000D02*
X181887000Y-132069000D01*
X179058000Y-134897000D02*
X178952000Y-135004000D01*
X181728000Y-131696000D02*
X181621000Y-131803000D01*
X178792000Y-134631000D02*
X178686000Y-134738000D01*
X187074000Y-131962000D02*
X186679000Y-132358000D01*
X184413000Y-134624000D02*
X184033000Y-135004000D01*
X186808000Y-131696000D02*
X186428000Y-132076000D01*
X184162000Y-134342000D02*
X183767000Y-134738000D01*
X177500000Y-138210000D02*
X177500000Y-138950000D01*
X177500000Y-138950000D02*
X178000000Y-138950000D01*
G04 #@! TO.C,J8*
X180280000Y-109160000D02*
X181610000Y-109160000D01*
X180280000Y-110490000D02*
X180280000Y-109160000D01*
X180280000Y-111760000D02*
X182940000Y-111760000D01*
X182940000Y-111760000D02*
X182940000Y-114360000D01*
X180280000Y-111760000D02*
X180280000Y-114360000D01*
X180280000Y-114360000D02*
X182940000Y-114360000D01*
G04 #@! TO.C,J5*
X180280000Y-83760000D02*
X181610000Y-83760000D01*
X180280000Y-85090000D02*
X180280000Y-83760000D01*
X180280000Y-86360000D02*
X182940000Y-86360000D01*
X182940000Y-86360000D02*
X182940000Y-88960000D01*
X180280000Y-86360000D02*
X180280000Y-88960000D01*
X180280000Y-88960000D02*
X182940000Y-88960000D01*
G04 #@! TO.C,J7*
X180280000Y-101660000D02*
X182940000Y-101660000D01*
X180280000Y-99060000D02*
X180280000Y-101660000D01*
X182940000Y-99060000D02*
X182940000Y-101660000D01*
X180280000Y-99060000D02*
X182940000Y-99060000D01*
X180280000Y-97790000D02*
X180280000Y-96460000D01*
X180280000Y-96460000D02*
X181610000Y-96460000D01*
G04 #@! TO.C,J1*
X224872000Y-129343000D02*
X224872000Y-132003000D01*
X230012000Y-129343000D02*
X224872000Y-129343000D01*
X230012000Y-132003000D02*
X224872000Y-132003000D01*
X230012000Y-129343000D02*
X230012000Y-132003000D01*
X231282000Y-129343000D02*
X232612000Y-129343000D01*
X232612000Y-129343000D02*
X232612000Y-130673000D01*
G04 #@! TO.C,J2*
X232612000Y-111563000D02*
X232612000Y-112893000D01*
X231282000Y-111563000D02*
X232612000Y-111563000D01*
X230012000Y-111563000D02*
X230012000Y-114223000D01*
X230012000Y-114223000D02*
X224872000Y-114223000D01*
X230012000Y-111563000D02*
X224872000Y-111563000D01*
X224872000Y-111563000D02*
X224872000Y-114223000D01*
G04 #@! TO.C,J4*
X206220000Y-75210000D02*
X206220000Y-66210000D01*
X206220000Y-66210000D02*
X215420000Y-66210000D01*
X215420000Y-66210000D02*
X215420000Y-80810000D01*
X215420000Y-80810000D02*
X212620000Y-80810000D01*
X209020000Y-80810000D02*
X206220000Y-80810000D01*
X206220000Y-80810000D02*
X206220000Y-78810000D01*
X215660000Y-79310000D02*
X215660000Y-81050000D01*
X215660000Y-81050000D02*
X213920000Y-81050000D01*
G04 #@! TO.C,J6*
X229810000Y-82610000D02*
X232470000Y-82610000D01*
X229810000Y-74930000D02*
X229810000Y-82610000D01*
X232470000Y-74930000D02*
X232470000Y-82610000D01*
X229810000Y-74930000D02*
X232470000Y-74930000D01*
X229810000Y-73660000D02*
X229810000Y-72330000D01*
X229810000Y-72330000D02*
X231140000Y-72330000D01*
G04 #@! TO.C,J10*
X227270000Y-95190000D02*
X227270000Y-97850000D01*
X229870000Y-95190000D02*
X227270000Y-95190000D01*
X229870000Y-97850000D02*
X227270000Y-97850000D01*
X229870000Y-95190000D02*
X229870000Y-97850000D01*
X231140000Y-95190000D02*
X232470000Y-95190000D01*
X232470000Y-95190000D02*
X232470000Y-96520000D01*
G04 #@! TO.C,J11*
X232470000Y-100270000D02*
X232470000Y-101600000D01*
X231140000Y-100270000D02*
X232470000Y-100270000D01*
X229870000Y-100270000D02*
X229870000Y-102930000D01*
X229870000Y-102930000D02*
X227270000Y-102930000D01*
X229870000Y-100270000D02*
X227270000Y-100270000D01*
X227270000Y-100270000D02*
X227270000Y-102930000D01*
G04 #@! TO.C,J12*
X227270000Y-105350000D02*
X227270000Y-108010000D01*
X229870000Y-105350000D02*
X227270000Y-105350000D01*
X229870000Y-108010000D02*
X227270000Y-108010000D01*
X229870000Y-105350000D02*
X229870000Y-108010000D01*
X231140000Y-105350000D02*
X232470000Y-105350000D01*
X232470000Y-105350000D02*
X232470000Y-106680000D01*
G04 #@! TO.C,R1*
X222508578Y-93420000D02*
X221991422Y-93420000D01*
X222508578Y-92000000D02*
X221991422Y-92000000D01*
G04 #@! TO.C,R2*
X222508578Y-96142500D02*
X221991422Y-96142500D01*
X222508578Y-97562500D02*
X221991422Y-97562500D01*
G04 #@! TO.C,U1*
X200870000Y-69019000D02*
X200870000Y-80740000D01*
X192250000Y-69019000D02*
X192250000Y-80740000D01*
X200870000Y-69019000D02*
X192250000Y-69019000D01*
X200870000Y-80740000D02*
X192250000Y-80740000D01*
X193250000Y-68779000D02*
X192010000Y-68779000D01*
X192010000Y-68779000D02*
X192010000Y-70019000D01*
D13*
G04 #@! TO.C,U2*
X182845000Y-123995000D02*
X182895000Y-123995000D01*
X182845000Y-119845000D02*
X182990000Y-119845000D01*
X187995000Y-119845000D02*
X187850000Y-119845000D01*
X187995000Y-123995000D02*
X187850000Y-123995000D01*
X182845000Y-123995000D02*
X182845000Y-119845000D01*
X187995000Y-123995000D02*
X187995000Y-119845000D01*
X182895000Y-123995000D02*
X182895000Y-125395000D01*
D12*
G04 #@! TO.C,J9*
X224872000Y-134423000D02*
X224872000Y-137083000D01*
X230012000Y-134423000D02*
X224872000Y-134423000D01*
X230012000Y-137083000D02*
X224872000Y-137083000D01*
X230012000Y-134423000D02*
X230012000Y-137083000D01*
X231282000Y-134423000D02*
X232612000Y-134423000D01*
X232612000Y-134423000D02*
X232612000Y-135753000D01*
G04 #@! TO.C,U3*
D14*
X192243398Y-82766167D02*
X192243398Y-83576006D01*
X192291035Y-83671282D01*
X192338673Y-83718919D01*
X192433948Y-83766557D01*
X192624499Y-83766557D01*
X192719774Y-83718919D01*
X192767411Y-83671282D01*
X192815049Y-83576006D01*
X192815049Y-82766167D01*
X193196150Y-82766167D02*
X193815439Y-82766167D01*
X193481976Y-83147268D01*
X193624889Y-83147268D01*
X193720164Y-83194905D01*
X193767801Y-83242543D01*
X193815439Y-83337818D01*
X193815439Y-83576006D01*
X193767801Y-83671282D01*
X193720164Y-83718919D01*
X193624889Y-83766557D01*
X193339063Y-83766557D01*
X193243788Y-83718919D01*
X193196150Y-83671282D01*
X185792141Y-139982996D02*
X186125825Y-139982996D01*
X186268832Y-140507355D02*
X185792141Y-140507355D01*
X185792141Y-139506305D01*
X186268832Y-139506305D01*
X186650184Y-140459686D02*
X186793191Y-140507355D01*
X187031536Y-140507355D01*
X187126875Y-140459686D01*
X187174544Y-140412017D01*
X187222213Y-140316679D01*
X187222213Y-140221341D01*
X187174544Y-140126003D01*
X187126875Y-140078334D01*
X187031536Y-140030665D01*
X186840860Y-139982996D01*
X186745522Y-139935327D01*
X186697853Y-139887658D01*
X186650184Y-139792320D01*
X186650184Y-139696982D01*
X186697853Y-139601644D01*
X186745522Y-139553975D01*
X186840860Y-139506305D01*
X187079205Y-139506305D01*
X187222213Y-139553975D01*
X187651234Y-140507355D02*
X187651234Y-139506305D01*
X188032586Y-139506305D01*
X188127925Y-139553975D01*
X188175594Y-139601644D01*
X188223263Y-139696982D01*
X188223263Y-139839989D01*
X188175594Y-139935327D01*
X188127925Y-139982996D01*
X188032586Y-140030665D01*
X187651234Y-140030665D01*
X188556946Y-139506305D02*
X189176644Y-139506305D01*
X188842960Y-139887658D01*
X188985967Y-139887658D01*
X189081305Y-139935327D01*
X189128975Y-139982996D01*
X189176644Y-140078334D01*
X189176644Y-140316679D01*
X189128975Y-140412017D01*
X189081305Y-140459686D01*
X188985967Y-140507355D01*
X188699953Y-140507355D01*
X188604615Y-140459686D01*
X188556946Y-140412017D01*
X189557996Y-139601644D02*
X189605665Y-139553975D01*
X189701003Y-139506305D01*
X189939348Y-139506305D01*
X190034686Y-139553975D01*
X190082355Y-139601644D01*
X190130025Y-139696982D01*
X190130025Y-139792320D01*
X190082355Y-139935327D01*
X189510327Y-140507355D01*
X190130025Y-140507355D01*
X190559046Y-140126003D02*
X191321751Y-140126003D01*
X191798441Y-140507355D02*
X191798441Y-139506305D01*
X192036786Y-139506305D01*
X192179794Y-139553975D01*
X192275132Y-139649313D01*
X192322801Y-139744651D01*
X192370470Y-139935327D01*
X192370470Y-140078334D01*
X192322801Y-140269010D01*
X192275132Y-140364348D01*
X192179794Y-140459686D01*
X192036786Y-140507355D01*
X191798441Y-140507355D01*
X192799491Y-139982996D02*
X193133175Y-139982996D01*
X193276182Y-140507355D02*
X192799491Y-140507355D01*
X192799491Y-139506305D01*
X193276182Y-139506305D01*
X193562196Y-139506305D02*
X193895879Y-140507355D01*
X194229563Y-139506305D01*
X194563246Y-140507355D02*
X194563246Y-139506305D01*
X195135275Y-140507355D02*
X194706253Y-139935327D01*
X195135275Y-139506305D02*
X194563246Y-140078334D01*
X195564296Y-140507355D02*
X195564296Y-139506305D01*
X195897979Y-139506305D02*
X196470008Y-139506305D01*
X196183994Y-140507355D02*
X196183994Y-139506305D01*
X197375720Y-140412017D02*
X197328051Y-140459686D01*
X197185044Y-140507355D01*
X197089705Y-140507355D01*
X196946698Y-140459686D01*
X196851360Y-140364348D01*
X196803691Y-140269010D01*
X196756022Y-140078334D01*
X196756022Y-139935327D01*
X196803691Y-139744651D01*
X196851360Y-139649313D01*
X196946698Y-139553975D01*
X197089705Y-139506305D01*
X197185044Y-139506305D01*
X197328051Y-139553975D01*
X197375720Y-139601644D01*
X197804741Y-140126003D02*
X198567446Y-140126003D01*
X198948798Y-139506305D02*
X199568496Y-139506305D01*
X199234813Y-139887658D01*
X199377820Y-139887658D01*
X199473158Y-139935327D01*
X199520827Y-139982996D01*
X199568496Y-140078334D01*
X199568496Y-140316679D01*
X199520827Y-140412017D01*
X199473158Y-140459686D01*
X199377820Y-140507355D01*
X199091805Y-140507355D01*
X198996467Y-140459686D01*
X198948798Y-140412017D01*
X199949848Y-139601644D02*
X199997517Y-139553975D01*
X200092855Y-139506305D01*
X200331201Y-139506305D01*
X200426539Y-139553975D01*
X200474208Y-139601644D01*
X200521877Y-139696982D01*
X200521877Y-139792320D01*
X200474208Y-139935327D01*
X199902179Y-140507355D01*
X200521877Y-140507355D01*
X200950898Y-140507355D02*
X200950898Y-139506305D01*
X201189244Y-139506305D01*
X201332251Y-139553975D01*
X201427589Y-139649313D01*
X201475258Y-139744651D01*
X201522927Y-139935327D01*
X201522927Y-140078334D01*
X201475258Y-140269010D01*
X201427589Y-140364348D01*
X201332251Y-140459686D01*
X201189244Y-140507355D01*
X200950898Y-140507355D01*
G04 #@! TO.C,J3*
D13*
X182546666Y-125842380D02*
X182546666Y-126556666D01*
X182499047Y-126699523D01*
X182403809Y-126794761D01*
X182260952Y-126842380D01*
X182165714Y-126842380D01*
X182927619Y-125842380D02*
X183546666Y-125842380D01*
X183213333Y-126223333D01*
X183356190Y-126223333D01*
X183451428Y-126270952D01*
X183499047Y-126318571D01*
X183546666Y-126413809D01*
X183546666Y-126651904D01*
X183499047Y-126747142D01*
X183451428Y-126794761D01*
X183356190Y-126842380D01*
X183070476Y-126842380D01*
X182975238Y-126794761D01*
X182927619Y-126747142D01*
G04 #@! TO.C,J8*
X181276666Y-107612380D02*
X181276666Y-108326666D01*
X181229047Y-108469523D01*
X181133809Y-108564761D01*
X180990952Y-108612380D01*
X180895714Y-108612380D01*
X181895714Y-108040952D02*
X181800476Y-107993333D01*
X181752857Y-107945714D01*
X181705238Y-107850476D01*
X181705238Y-107802857D01*
X181752857Y-107707619D01*
X181800476Y-107660000D01*
X181895714Y-107612380D01*
X182086190Y-107612380D01*
X182181428Y-107660000D01*
X182229047Y-107707619D01*
X182276666Y-107802857D01*
X182276666Y-107850476D01*
X182229047Y-107945714D01*
X182181428Y-107993333D01*
X182086190Y-108040952D01*
X181895714Y-108040952D01*
X181800476Y-108088571D01*
X181752857Y-108136190D01*
X181705238Y-108231428D01*
X181705238Y-108421904D01*
X181752857Y-108517142D01*
X181800476Y-108564761D01*
X181895714Y-108612380D01*
X182086190Y-108612380D01*
X182181428Y-108564761D01*
X182229047Y-108517142D01*
X182276666Y-108421904D01*
X182276666Y-108231428D01*
X182229047Y-108136190D01*
X182181428Y-108088571D01*
X182086190Y-108040952D01*
G04 #@! TO.C,J5*
X181276666Y-82212380D02*
X181276666Y-82926666D01*
X181229047Y-83069523D01*
X181133809Y-83164761D01*
X180990952Y-83212380D01*
X180895714Y-83212380D01*
X182229047Y-82212380D02*
X181752857Y-82212380D01*
X181705238Y-82688571D01*
X181752857Y-82640952D01*
X181848095Y-82593333D01*
X182086190Y-82593333D01*
X182181428Y-82640952D01*
X182229047Y-82688571D01*
X182276666Y-82783809D01*
X182276666Y-83021904D01*
X182229047Y-83117142D01*
X182181428Y-83164761D01*
X182086190Y-83212380D01*
X181848095Y-83212380D01*
X181752857Y-83164761D01*
X181705238Y-83117142D01*
G04 #@! TO.C,J7*
X181276666Y-94912380D02*
X181276666Y-95626666D01*
X181229047Y-95769523D01*
X181133809Y-95864761D01*
X180990952Y-95912380D01*
X180895714Y-95912380D01*
X181657619Y-94912380D02*
X182324285Y-94912380D01*
X181895714Y-95912380D01*
G04 #@! TO.C,J1*
X233064380Y-131006333D02*
X233778666Y-131006333D01*
X233921523Y-131053952D01*
X234016761Y-131149190D01*
X234064380Y-131292047D01*
X234064380Y-131387285D01*
X234064380Y-130006333D02*
X234064380Y-130577761D01*
X234064380Y-130292047D02*
X233064380Y-130292047D01*
X233207238Y-130387285D01*
X233302476Y-130482523D01*
X233350095Y-130577761D01*
G04 #@! TO.C,J2*
X233064380Y-113226333D02*
X233778666Y-113226333D01*
X233921523Y-113273952D01*
X234016761Y-113369190D01*
X234064380Y-113512047D01*
X234064380Y-113607285D01*
X233159619Y-112797761D02*
X233112000Y-112750142D01*
X233064380Y-112654904D01*
X233064380Y-112416809D01*
X233112000Y-112321571D01*
X233159619Y-112273952D01*
X233254857Y-112226333D01*
X233350095Y-112226333D01*
X233492952Y-112273952D01*
X234064380Y-112845380D01*
X234064380Y-112226333D01*
G04 #@! TO.C,J4*
X204522380Y-71893333D02*
X205236666Y-71893333D01*
X205379523Y-71940952D01*
X205474761Y-72036190D01*
X205522380Y-72179047D01*
X205522380Y-72274285D01*
X204855714Y-70988571D02*
X205522380Y-70988571D01*
X204474761Y-71226666D02*
X205189047Y-71464761D01*
X205189047Y-70845714D01*
G04 #@! TO.C,J6*
X230806666Y-70782380D02*
X230806666Y-71496666D01*
X230759047Y-71639523D01*
X230663809Y-71734761D01*
X230520952Y-71782380D01*
X230425714Y-71782380D01*
X231711428Y-70782380D02*
X231520952Y-70782380D01*
X231425714Y-70830000D01*
X231378095Y-70877619D01*
X231282857Y-71020476D01*
X231235238Y-71210952D01*
X231235238Y-71591904D01*
X231282857Y-71687142D01*
X231330476Y-71734761D01*
X231425714Y-71782380D01*
X231616190Y-71782380D01*
X231711428Y-71734761D01*
X231759047Y-71687142D01*
X231806666Y-71591904D01*
X231806666Y-71353809D01*
X231759047Y-71258571D01*
X231711428Y-71210952D01*
X231616190Y-71163333D01*
X231425714Y-71163333D01*
X231330476Y-71210952D01*
X231282857Y-71258571D01*
X231235238Y-71353809D01*
G04 #@! TO.C,J10*
X232922380Y-97329523D02*
X233636666Y-97329523D01*
X233779523Y-97377142D01*
X233874761Y-97472380D01*
X233922380Y-97615238D01*
X233922380Y-97710476D01*
X233922380Y-96329523D02*
X233922380Y-96900952D01*
X233922380Y-96615238D02*
X232922380Y-96615238D01*
X233065238Y-96710476D01*
X233160476Y-96805714D01*
X233208095Y-96900952D01*
X232922380Y-95710476D02*
X232922380Y-95615238D01*
X232970000Y-95520000D01*
X233017619Y-95472380D01*
X233112857Y-95424761D01*
X233303333Y-95377142D01*
X233541428Y-95377142D01*
X233731904Y-95424761D01*
X233827142Y-95472380D01*
X233874761Y-95520000D01*
X233922380Y-95615238D01*
X233922380Y-95710476D01*
X233874761Y-95805714D01*
X233827142Y-95853333D01*
X233731904Y-95900952D01*
X233541428Y-95948571D01*
X233303333Y-95948571D01*
X233112857Y-95900952D01*
X233017619Y-95853333D01*
X232970000Y-95805714D01*
X232922380Y-95710476D01*
G04 #@! TO.C,J11*
X232922380Y-102409523D02*
X233636666Y-102409523D01*
X233779523Y-102457142D01*
X233874761Y-102552380D01*
X233922380Y-102695238D01*
X233922380Y-102790476D01*
X233922380Y-101409523D02*
X233922380Y-101980952D01*
X233922380Y-101695238D02*
X232922380Y-101695238D01*
X233065238Y-101790476D01*
X233160476Y-101885714D01*
X233208095Y-101980952D01*
X233922380Y-100457142D02*
X233922380Y-101028571D01*
X233922380Y-100742857D02*
X232922380Y-100742857D01*
X233065238Y-100838095D01*
X233160476Y-100933333D01*
X233208095Y-101028571D01*
G04 #@! TO.C,J12*
X232922380Y-107489523D02*
X233636666Y-107489523D01*
X233779523Y-107537142D01*
X233874761Y-107632380D01*
X233922380Y-107775238D01*
X233922380Y-107870476D01*
X233922380Y-106489523D02*
X233922380Y-107060952D01*
X233922380Y-106775238D02*
X232922380Y-106775238D01*
X233065238Y-106870476D01*
X233160476Y-106965714D01*
X233208095Y-107060952D01*
X233017619Y-106108571D02*
X232970000Y-106060952D01*
X232922380Y-105965714D01*
X232922380Y-105727619D01*
X232970000Y-105632380D01*
X233017619Y-105584761D01*
X233112857Y-105537142D01*
X233208095Y-105537142D01*
X233350952Y-105584761D01*
X233922380Y-106156190D01*
X233922380Y-105537142D01*
G04 #@! TO.C,R1*
X222083333Y-91511380D02*
X221750000Y-91035190D01*
X221511904Y-91511380D02*
X221511904Y-90511380D01*
X221892857Y-90511380D01*
X221988095Y-90559000D01*
X222035714Y-90606619D01*
X222083333Y-90701857D01*
X222083333Y-90844714D01*
X222035714Y-90939952D01*
X221988095Y-90987571D01*
X221892857Y-91035190D01*
X221511904Y-91035190D01*
X223035714Y-91511380D02*
X222464285Y-91511380D01*
X222750000Y-91511380D02*
X222750000Y-90511380D01*
X222654761Y-90654238D01*
X222559523Y-90749476D01*
X222464285Y-90797095D01*
G04 #@! TO.C,R2*
X222083333Y-98954880D02*
X221750000Y-98478690D01*
X221511904Y-98954880D02*
X221511904Y-97954880D01*
X221892857Y-97954880D01*
X221988095Y-98002500D01*
X222035714Y-98050119D01*
X222083333Y-98145357D01*
X222083333Y-98288214D01*
X222035714Y-98383452D01*
X221988095Y-98431071D01*
X221892857Y-98478690D01*
X221511904Y-98478690D01*
X222464285Y-98050119D02*
X222511904Y-98002500D01*
X222607142Y-97954880D01*
X222845238Y-97954880D01*
X222940476Y-98002500D01*
X222988095Y-98050119D01*
X223035714Y-98145357D01*
X223035714Y-98240595D01*
X222988095Y-98383452D01*
X222416666Y-98954880D01*
X223035714Y-98954880D01*
G04 #@! TO.C,U1*
X201322380Y-75691904D02*
X202131904Y-75691904D01*
X202227142Y-75644285D01*
X202274761Y-75596666D01*
X202322380Y-75501428D01*
X202322380Y-75310952D01*
X202274761Y-75215714D01*
X202227142Y-75168095D01*
X202131904Y-75120476D01*
X201322380Y-75120476D01*
X202322380Y-74120476D02*
X202322380Y-74691904D01*
X202322380Y-74406190D02*
X201322380Y-74406190D01*
X201465238Y-74501428D01*
X201560476Y-74596666D01*
X201608095Y-74691904D01*
G04 #@! TO.C,U2*
X181372380Y-122681904D02*
X182181904Y-122681904D01*
X182277142Y-122634285D01*
X182324761Y-122586666D01*
X182372380Y-122491428D01*
X182372380Y-122300952D01*
X182324761Y-122205714D01*
X182277142Y-122158095D01*
X182181904Y-122110476D01*
X181372380Y-122110476D01*
X181467619Y-121681904D02*
X181420000Y-121634285D01*
X181372380Y-121539047D01*
X181372380Y-121300952D01*
X181420000Y-121205714D01*
X181467619Y-121158095D01*
X181562857Y-121110476D01*
X181658095Y-121110476D01*
X181800952Y-121158095D01*
X182372380Y-121729523D01*
X182372380Y-121110476D01*
G04 #@! TO.C,J9*
X233064380Y-136086333D02*
X233778666Y-136086333D01*
X233921523Y-136133952D01*
X234016761Y-136229190D01*
X234064380Y-136372047D01*
X234064380Y-136467285D01*
X234064380Y-135562523D02*
X234064380Y-135372047D01*
X234016761Y-135276809D01*
X233969142Y-135229190D01*
X233826285Y-135133952D01*
X233635809Y-135086333D01*
X233254857Y-135086333D01*
X233159619Y-135133952D01*
X233112000Y-135181571D01*
X233064380Y-135276809D01*
X233064380Y-135467285D01*
X233112000Y-135562523D01*
X233159619Y-135610142D01*
X233254857Y-135657761D01*
X233492952Y-135657761D01*
X233588190Y-135610142D01*
X233635809Y-135562523D01*
X233683428Y-135467285D01*
X233683428Y-135276809D01*
X233635809Y-135181571D01*
X233588190Y-135133952D01*
X233492952Y-135086333D01*
G04 #@! TD*
M02*
