M48
;DRILL file {KiCad 5.0.1-33cea8e~68~ubuntu18.04.1} date Mon 19 Nov 2018 05:20:11 PM PST
;FORMAT={-:-/ absolute / metric / decimal}
FMAT,2
METRIC,TZ
T1C0.400
T2C1.000
T3C1.040
T4C1.300
T5C1.600
%
G90
G05
M71
T1
X232.41Y-90.17
T2
X181.61Y-97.79
X181.61Y-100.33
X226.202Y-112.893
X228.742Y-112.893
X231.282Y-112.893
X181.61Y-85.09
X181.61Y-87.63
X228.6Y-106.68
X231.14Y-106.68
X231.14Y-73.66
X231.14Y-76.2
X231.14Y-78.74
X231.14Y-81.28
X228.6Y-101.6
X231.14Y-101.6
X226.202Y-135.753
X228.742Y-135.753
X231.282Y-135.753
X226.202Y-130.673
X228.742Y-130.673
X231.282Y-130.673
X181.61Y-110.49
X181.61Y-113.03
X228.6Y-96.52
X231.14Y-96.52
X194.31Y-72.39
X194.31Y-74.93
X194.31Y-77.47
T3
X191.77Y-92.
X191.77Y-94.54
X191.77Y-97.08
X191.77Y-99.62
X191.77Y-102.16
X191.77Y-104.7
X191.77Y-107.24
X191.77Y-109.78
X191.77Y-112.32
X191.77Y-114.86
X191.77Y-117.4
X191.77Y-119.94
X191.77Y-122.48
X191.77Y-125.02
X191.77Y-127.56
X191.77Y-130.1
X191.77Y-132.64
X191.77Y-135.18
X191.77Y-137.72
X217.17Y-92.
X217.17Y-94.54
X217.17Y-97.08
X217.17Y-99.62
X217.17Y-102.16
X217.17Y-104.7
X217.17Y-107.24
X217.17Y-109.78
X217.17Y-112.32
X217.17Y-114.86
X217.17Y-117.4
X217.17Y-119.94
X217.17Y-122.48
X217.17Y-125.02
X217.17Y-127.56
X217.17Y-130.1
X217.17Y-132.64
X217.17Y-135.18
X217.17Y-137.72
T4
X180.34Y-133.35
X185.42Y-133.35
T5
X206.12Y-77.01
X210.82Y-74.01
X210.82Y-80.01
T0
M30
