G04 #@! TF.GenerationSoftware,KiCad,Pcbnew,5.0.1-33cea8e~68~ubuntu18.04.1*
G04 #@! TF.CreationDate,2018-11-19T17:19:21-08:00*
G04 #@! TF.ProjectId,Bioreactor,42696F72656163746F722E6B69636164,rev?*
G04 #@! TF.SameCoordinates,Original*
G04 #@! TF.FileFunction,Soldermask,Top*
G04 #@! TF.FilePolarity,Negative*
%FSLAX46Y46*%
G04 Gerber Fmt 4.6, Leading zero omitted, Abs format (unit mm)*
G04 Created by KiCad (PCBNEW 5.0.1-33cea8e~68~ubuntu18.04.1) date Mon 19 Nov 2018 05:19:21 PM PST*
%MOMM*%
%LPD*%
G01*
G04 APERTURE LIST*
%ADD10C,0.100000*%
G04 APERTURE END LIST*
D10*
G36*
X217397518Y-136969975D02*
X217539465Y-137028771D01*
X217539466Y-137028772D01*
X217539469Y-137028773D01*
X217667221Y-137114135D01*
X217667225Y-137114138D01*
X217775862Y-137222775D01*
X217775864Y-137222778D01*
X217775865Y-137222779D01*
X217861227Y-137350531D01*
X217920025Y-137492482D01*
X217950000Y-137643177D01*
X217950000Y-137796823D01*
X217920025Y-137947518D01*
X217861227Y-138089469D01*
X217775865Y-138217221D01*
X217775862Y-138217225D01*
X217667225Y-138325862D01*
X217667222Y-138325864D01*
X217667221Y-138325865D01*
X217539469Y-138411227D01*
X217539466Y-138411228D01*
X217539465Y-138411229D01*
X217397518Y-138470025D01*
X217246824Y-138500000D01*
X217093176Y-138500000D01*
X216942482Y-138470025D01*
X216800535Y-138411229D01*
X216800534Y-138411228D01*
X216800531Y-138411227D01*
X216672779Y-138325865D01*
X216672778Y-138325864D01*
X216672775Y-138325862D01*
X216564138Y-138217225D01*
X216564135Y-138217221D01*
X216478773Y-138089469D01*
X216419975Y-137947518D01*
X216390000Y-137796823D01*
X216390000Y-137643177D01*
X216419975Y-137492482D01*
X216478773Y-137350531D01*
X216564135Y-137222779D01*
X216564136Y-137222778D01*
X216564138Y-137222775D01*
X216672775Y-137114138D01*
X216672779Y-137114135D01*
X216800531Y-137028773D01*
X216800534Y-137028772D01*
X216800535Y-137028771D01*
X216942482Y-136969975D01*
X217093176Y-136940000D01*
X217246824Y-136940000D01*
X217397518Y-136969975D01*
X217397518Y-136969975D01*
G37*
G36*
X191997518Y-136969975D02*
X192139465Y-137028771D01*
X192139466Y-137028772D01*
X192139469Y-137028773D01*
X192267221Y-137114135D01*
X192267225Y-137114138D01*
X192375862Y-137222775D01*
X192375864Y-137222778D01*
X192375865Y-137222779D01*
X192461227Y-137350531D01*
X192520025Y-137492482D01*
X192550000Y-137643177D01*
X192550000Y-137796823D01*
X192520025Y-137947518D01*
X192461227Y-138089469D01*
X192375865Y-138217221D01*
X192375862Y-138217225D01*
X192267225Y-138325862D01*
X192267222Y-138325864D01*
X192267221Y-138325865D01*
X192139469Y-138411227D01*
X192139466Y-138411228D01*
X192139465Y-138411229D01*
X191997518Y-138470025D01*
X191846824Y-138500000D01*
X191693176Y-138500000D01*
X191542482Y-138470025D01*
X191400535Y-138411229D01*
X191400534Y-138411228D01*
X191400531Y-138411227D01*
X191272779Y-138325865D01*
X191272778Y-138325864D01*
X191272775Y-138325862D01*
X191164138Y-138217225D01*
X191164135Y-138217221D01*
X191078773Y-138089469D01*
X191019975Y-137947518D01*
X190990000Y-137796823D01*
X190990000Y-137643177D01*
X191019975Y-137492482D01*
X191078773Y-137350531D01*
X191164135Y-137222779D01*
X191164136Y-137222778D01*
X191164138Y-137222775D01*
X191272775Y-137114138D01*
X191272779Y-137114135D01*
X191400531Y-137028773D01*
X191400534Y-137028772D01*
X191400535Y-137028771D01*
X191542482Y-136969975D01*
X191693176Y-136940000D01*
X191846824Y-136940000D01*
X191997518Y-136969975D01*
X191997518Y-136969975D01*
G37*
G36*
X228908630Y-134915299D02*
X229068855Y-134963903D01*
X229216520Y-135042831D01*
X229345949Y-135149051D01*
X229452169Y-135278480D01*
X229531097Y-135426145D01*
X229579701Y-135586370D01*
X229596112Y-135753000D01*
X229579701Y-135919630D01*
X229531097Y-136079855D01*
X229452169Y-136227520D01*
X229345949Y-136356949D01*
X229216520Y-136463169D01*
X229068855Y-136542097D01*
X228908630Y-136590701D01*
X228783752Y-136603000D01*
X228700248Y-136603000D01*
X228575370Y-136590701D01*
X228415145Y-136542097D01*
X228267480Y-136463169D01*
X228138051Y-136356949D01*
X228031831Y-136227520D01*
X227952903Y-136079855D01*
X227904299Y-135919630D01*
X227887888Y-135753000D01*
X227904299Y-135586370D01*
X227952903Y-135426145D01*
X228031831Y-135278480D01*
X228138051Y-135149051D01*
X228267480Y-135042831D01*
X228415145Y-134963903D01*
X228575370Y-134915299D01*
X228700248Y-134903000D01*
X228783752Y-134903000D01*
X228908630Y-134915299D01*
X228908630Y-134915299D01*
G37*
G36*
X226368630Y-134915299D02*
X226528855Y-134963903D01*
X226676520Y-135042831D01*
X226805949Y-135149051D01*
X226912169Y-135278480D01*
X226991097Y-135426145D01*
X227039701Y-135586370D01*
X227056112Y-135753000D01*
X227039701Y-135919630D01*
X226991097Y-136079855D01*
X226912169Y-136227520D01*
X226805949Y-136356949D01*
X226676520Y-136463169D01*
X226528855Y-136542097D01*
X226368630Y-136590701D01*
X226243752Y-136603000D01*
X226160248Y-136603000D01*
X226035370Y-136590701D01*
X225875145Y-136542097D01*
X225727480Y-136463169D01*
X225598051Y-136356949D01*
X225491831Y-136227520D01*
X225412903Y-136079855D01*
X225364299Y-135919630D01*
X225347888Y-135753000D01*
X225364299Y-135586370D01*
X225412903Y-135426145D01*
X225491831Y-135278480D01*
X225598051Y-135149051D01*
X225727480Y-135042831D01*
X225875145Y-134963903D01*
X226035370Y-134915299D01*
X226160248Y-134903000D01*
X226243752Y-134903000D01*
X226368630Y-134915299D01*
X226368630Y-134915299D01*
G37*
G36*
X232132000Y-136603000D02*
X230432000Y-136603000D01*
X230432000Y-134903000D01*
X232132000Y-134903000D01*
X232132000Y-136603000D01*
X232132000Y-136603000D01*
G37*
G36*
X217397518Y-134429975D02*
X217539465Y-134488771D01*
X217539466Y-134488772D01*
X217539469Y-134488773D01*
X217667221Y-134574135D01*
X217667225Y-134574138D01*
X217775862Y-134682775D01*
X217775864Y-134682778D01*
X217775865Y-134682779D01*
X217861227Y-134810531D01*
X217861228Y-134810534D01*
X217861229Y-134810535D01*
X217920025Y-134952482D01*
X217937997Y-135042831D01*
X217950000Y-135103177D01*
X217950000Y-135256823D01*
X217920025Y-135407518D01*
X217861227Y-135549469D01*
X217775865Y-135677221D01*
X217775862Y-135677225D01*
X217667225Y-135785862D01*
X217667222Y-135785864D01*
X217667221Y-135785865D01*
X217539469Y-135871227D01*
X217539466Y-135871228D01*
X217539465Y-135871229D01*
X217397518Y-135930025D01*
X217246824Y-135960000D01*
X217093176Y-135960000D01*
X216942482Y-135930025D01*
X216800535Y-135871229D01*
X216800534Y-135871228D01*
X216800531Y-135871227D01*
X216672779Y-135785865D01*
X216672778Y-135785864D01*
X216672775Y-135785862D01*
X216564138Y-135677225D01*
X216564135Y-135677221D01*
X216478773Y-135549469D01*
X216419975Y-135407518D01*
X216390000Y-135256823D01*
X216390000Y-135103177D01*
X216402004Y-135042831D01*
X216419975Y-134952482D01*
X216478771Y-134810535D01*
X216478772Y-134810534D01*
X216478773Y-134810531D01*
X216564135Y-134682779D01*
X216564136Y-134682778D01*
X216564138Y-134682775D01*
X216672775Y-134574138D01*
X216672779Y-134574135D01*
X216800531Y-134488773D01*
X216800534Y-134488772D01*
X216800535Y-134488771D01*
X216942482Y-134429975D01*
X217093176Y-134400000D01*
X217246824Y-134400000D01*
X217397518Y-134429975D01*
X217397518Y-134429975D01*
G37*
G36*
X191997518Y-134429975D02*
X192139465Y-134488771D01*
X192139466Y-134488772D01*
X192139469Y-134488773D01*
X192267221Y-134574135D01*
X192267225Y-134574138D01*
X192375862Y-134682775D01*
X192375864Y-134682778D01*
X192375865Y-134682779D01*
X192461227Y-134810531D01*
X192461228Y-134810534D01*
X192461229Y-134810535D01*
X192520025Y-134952482D01*
X192537997Y-135042831D01*
X192550000Y-135103177D01*
X192550000Y-135256823D01*
X192520025Y-135407518D01*
X192461227Y-135549469D01*
X192375865Y-135677221D01*
X192375862Y-135677225D01*
X192267225Y-135785862D01*
X192267222Y-135785864D01*
X192267221Y-135785865D01*
X192139469Y-135871227D01*
X192139466Y-135871228D01*
X192139465Y-135871229D01*
X191997518Y-135930025D01*
X191846824Y-135960000D01*
X191693176Y-135960000D01*
X191542482Y-135930025D01*
X191400535Y-135871229D01*
X191400534Y-135871228D01*
X191400531Y-135871227D01*
X191272779Y-135785865D01*
X191272778Y-135785864D01*
X191272775Y-135785862D01*
X191164138Y-135677225D01*
X191164135Y-135677221D01*
X191078773Y-135549469D01*
X191019975Y-135407518D01*
X190990000Y-135256823D01*
X190990000Y-135103177D01*
X191002004Y-135042831D01*
X191019975Y-134952482D01*
X191078771Y-134810535D01*
X191078772Y-134810534D01*
X191078773Y-134810531D01*
X191164135Y-134682779D01*
X191164136Y-134682778D01*
X191164138Y-134682775D01*
X191272775Y-134574138D01*
X191272779Y-134574135D01*
X191400531Y-134488773D01*
X191400534Y-134488772D01*
X191400535Y-134488771D01*
X191542482Y-134429975D01*
X191693176Y-134400000D01*
X191846824Y-134400000D01*
X191997518Y-134429975D01*
X191997518Y-134429975D01*
G37*
G36*
X181640000Y-134650000D02*
X179040000Y-134650000D01*
X179040000Y-132050000D01*
X181640000Y-132050000D01*
X181640000Y-134650000D01*
X181640000Y-134650000D01*
G37*
G36*
X185799196Y-132099958D02*
X186035780Y-132197954D01*
X186248705Y-132340226D01*
X186429774Y-132521295D01*
X186572046Y-132734220D01*
X186670042Y-132970804D01*
X186720000Y-133221960D01*
X186720000Y-133478040D01*
X186670042Y-133729196D01*
X186572046Y-133965780D01*
X186429774Y-134178705D01*
X186248705Y-134359774D01*
X186035780Y-134502046D01*
X185799196Y-134600042D01*
X185548040Y-134650000D01*
X185291960Y-134650000D01*
X185040804Y-134600042D01*
X184804220Y-134502046D01*
X184591295Y-134359774D01*
X184410226Y-134178705D01*
X184267954Y-133965780D01*
X184169958Y-133729196D01*
X184120000Y-133478040D01*
X184120000Y-133221960D01*
X184169958Y-132970804D01*
X184267954Y-132734220D01*
X184410226Y-132521295D01*
X184591295Y-132340226D01*
X184804220Y-132197954D01*
X185040804Y-132099958D01*
X185291960Y-132050000D01*
X185548040Y-132050000D01*
X185799196Y-132099958D01*
X185799196Y-132099958D01*
G37*
G36*
X191997518Y-131889975D02*
X192139465Y-131948771D01*
X192139466Y-131948772D01*
X192139469Y-131948773D01*
X192267221Y-132034135D01*
X192267225Y-132034138D01*
X192375862Y-132142775D01*
X192375864Y-132142778D01*
X192375865Y-132142779D01*
X192461227Y-132270531D01*
X192520025Y-132412482D01*
X192550000Y-132563177D01*
X192550000Y-132716823D01*
X192520025Y-132867518D01*
X192461227Y-133009469D01*
X192375865Y-133137221D01*
X192375862Y-133137225D01*
X192267225Y-133245862D01*
X192267222Y-133245864D01*
X192267221Y-133245865D01*
X192139469Y-133331227D01*
X192139466Y-133331228D01*
X192139465Y-133331229D01*
X191997518Y-133390025D01*
X191846824Y-133420000D01*
X191693176Y-133420000D01*
X191542482Y-133390025D01*
X191400535Y-133331229D01*
X191400534Y-133331228D01*
X191400531Y-133331227D01*
X191272779Y-133245865D01*
X191272778Y-133245864D01*
X191272775Y-133245862D01*
X191164138Y-133137225D01*
X191164135Y-133137221D01*
X191078773Y-133009469D01*
X191019975Y-132867518D01*
X190990000Y-132716823D01*
X190990000Y-132563177D01*
X191019975Y-132412482D01*
X191078773Y-132270531D01*
X191164135Y-132142779D01*
X191164136Y-132142778D01*
X191164138Y-132142775D01*
X191272775Y-132034138D01*
X191272779Y-132034135D01*
X191400531Y-131948773D01*
X191400534Y-131948772D01*
X191400535Y-131948771D01*
X191542482Y-131889975D01*
X191693176Y-131860000D01*
X191846824Y-131860000D01*
X191997518Y-131889975D01*
X191997518Y-131889975D01*
G37*
G36*
X217397518Y-131889975D02*
X217539465Y-131948771D01*
X217539466Y-131948772D01*
X217539469Y-131948773D01*
X217667221Y-132034135D01*
X217667225Y-132034138D01*
X217775862Y-132142775D01*
X217775864Y-132142778D01*
X217775865Y-132142779D01*
X217861227Y-132270531D01*
X217920025Y-132412482D01*
X217950000Y-132563177D01*
X217950000Y-132716823D01*
X217920025Y-132867518D01*
X217861227Y-133009469D01*
X217775865Y-133137221D01*
X217775862Y-133137225D01*
X217667225Y-133245862D01*
X217667222Y-133245864D01*
X217667221Y-133245865D01*
X217539469Y-133331227D01*
X217539466Y-133331228D01*
X217539465Y-133331229D01*
X217397518Y-133390025D01*
X217246824Y-133420000D01*
X217093176Y-133420000D01*
X216942482Y-133390025D01*
X216800535Y-133331229D01*
X216800534Y-133331228D01*
X216800531Y-133331227D01*
X216672779Y-133245865D01*
X216672778Y-133245864D01*
X216672775Y-133245862D01*
X216564138Y-133137225D01*
X216564135Y-133137221D01*
X216478773Y-133009469D01*
X216419975Y-132867518D01*
X216390000Y-132716823D01*
X216390000Y-132563177D01*
X216419975Y-132412482D01*
X216478773Y-132270531D01*
X216564135Y-132142779D01*
X216564136Y-132142778D01*
X216564138Y-132142775D01*
X216672775Y-132034138D01*
X216672779Y-132034135D01*
X216800531Y-131948773D01*
X216800534Y-131948772D01*
X216800535Y-131948771D01*
X216942482Y-131889975D01*
X217093176Y-131860000D01*
X217246824Y-131860000D01*
X217397518Y-131889975D01*
X217397518Y-131889975D01*
G37*
G36*
X232132000Y-131523000D02*
X230432000Y-131523000D01*
X230432000Y-129823000D01*
X232132000Y-129823000D01*
X232132000Y-131523000D01*
X232132000Y-131523000D01*
G37*
G36*
X228908630Y-129835299D02*
X229068855Y-129883903D01*
X229216520Y-129962831D01*
X229345949Y-130069051D01*
X229452169Y-130198480D01*
X229531097Y-130346145D01*
X229579701Y-130506370D01*
X229596112Y-130673000D01*
X229579701Y-130839630D01*
X229531097Y-130999855D01*
X229452169Y-131147520D01*
X229345949Y-131276949D01*
X229216520Y-131383169D01*
X229068855Y-131462097D01*
X228908630Y-131510701D01*
X228783752Y-131523000D01*
X228700248Y-131523000D01*
X228575370Y-131510701D01*
X228415145Y-131462097D01*
X228267480Y-131383169D01*
X228138051Y-131276949D01*
X228031831Y-131147520D01*
X227952903Y-130999855D01*
X227904299Y-130839630D01*
X227887888Y-130673000D01*
X227904299Y-130506370D01*
X227952903Y-130346145D01*
X228031831Y-130198480D01*
X228138051Y-130069051D01*
X228267480Y-129962831D01*
X228415145Y-129883903D01*
X228575370Y-129835299D01*
X228700248Y-129823000D01*
X228783752Y-129823000D01*
X228908630Y-129835299D01*
X228908630Y-129835299D01*
G37*
G36*
X226368630Y-129835299D02*
X226528855Y-129883903D01*
X226676520Y-129962831D01*
X226805949Y-130069051D01*
X226912169Y-130198480D01*
X226991097Y-130346145D01*
X227039701Y-130506370D01*
X227056112Y-130673000D01*
X227039701Y-130839630D01*
X226991097Y-130999855D01*
X226912169Y-131147520D01*
X226805949Y-131276949D01*
X226676520Y-131383169D01*
X226528855Y-131462097D01*
X226368630Y-131510701D01*
X226243752Y-131523000D01*
X226160248Y-131523000D01*
X226035370Y-131510701D01*
X225875145Y-131462097D01*
X225727480Y-131383169D01*
X225598051Y-131276949D01*
X225491831Y-131147520D01*
X225412903Y-130999855D01*
X225364299Y-130839630D01*
X225347888Y-130673000D01*
X225364299Y-130506370D01*
X225412903Y-130346145D01*
X225491831Y-130198480D01*
X225598051Y-130069051D01*
X225727480Y-129962831D01*
X225875145Y-129883903D01*
X226035370Y-129835299D01*
X226160248Y-129823000D01*
X226243752Y-129823000D01*
X226368630Y-129835299D01*
X226368630Y-129835299D01*
G37*
G36*
X191997518Y-129349975D02*
X192139465Y-129408771D01*
X192139466Y-129408772D01*
X192139469Y-129408773D01*
X192267221Y-129494135D01*
X192267225Y-129494138D01*
X192375862Y-129602775D01*
X192375864Y-129602778D01*
X192375865Y-129602779D01*
X192461227Y-129730531D01*
X192461228Y-129730534D01*
X192461229Y-129730535D01*
X192520025Y-129872482D01*
X192537997Y-129962831D01*
X192550000Y-130023177D01*
X192550000Y-130176823D01*
X192520025Y-130327518D01*
X192461227Y-130469469D01*
X192375865Y-130597221D01*
X192375862Y-130597225D01*
X192267225Y-130705862D01*
X192267222Y-130705864D01*
X192267221Y-130705865D01*
X192139469Y-130791227D01*
X192139466Y-130791228D01*
X192139465Y-130791229D01*
X191997518Y-130850025D01*
X191846824Y-130880000D01*
X191693176Y-130880000D01*
X191542482Y-130850025D01*
X191400535Y-130791229D01*
X191400534Y-130791228D01*
X191400531Y-130791227D01*
X191272779Y-130705865D01*
X191272778Y-130705864D01*
X191272775Y-130705862D01*
X191164138Y-130597225D01*
X191164135Y-130597221D01*
X191078773Y-130469469D01*
X191019975Y-130327518D01*
X190990000Y-130176823D01*
X190990000Y-130023177D01*
X191002004Y-129962831D01*
X191019975Y-129872482D01*
X191078771Y-129730535D01*
X191078772Y-129730534D01*
X191078773Y-129730531D01*
X191164135Y-129602779D01*
X191164136Y-129602778D01*
X191164138Y-129602775D01*
X191272775Y-129494138D01*
X191272779Y-129494135D01*
X191400531Y-129408773D01*
X191400534Y-129408772D01*
X191400535Y-129408771D01*
X191542482Y-129349975D01*
X191693176Y-129320000D01*
X191846824Y-129320000D01*
X191997518Y-129349975D01*
X191997518Y-129349975D01*
G37*
G36*
X217397518Y-129349975D02*
X217539465Y-129408771D01*
X217539466Y-129408772D01*
X217539469Y-129408773D01*
X217667221Y-129494135D01*
X217667225Y-129494138D01*
X217775862Y-129602775D01*
X217775864Y-129602778D01*
X217775865Y-129602779D01*
X217861227Y-129730531D01*
X217861228Y-129730534D01*
X217861229Y-129730535D01*
X217920025Y-129872482D01*
X217937997Y-129962831D01*
X217950000Y-130023177D01*
X217950000Y-130176823D01*
X217920025Y-130327518D01*
X217861227Y-130469469D01*
X217775865Y-130597221D01*
X217775862Y-130597225D01*
X217667225Y-130705862D01*
X217667222Y-130705864D01*
X217667221Y-130705865D01*
X217539469Y-130791227D01*
X217539466Y-130791228D01*
X217539465Y-130791229D01*
X217397518Y-130850025D01*
X217246824Y-130880000D01*
X217093176Y-130880000D01*
X216942482Y-130850025D01*
X216800535Y-130791229D01*
X216800534Y-130791228D01*
X216800531Y-130791227D01*
X216672779Y-130705865D01*
X216672778Y-130705864D01*
X216672775Y-130705862D01*
X216564138Y-130597225D01*
X216564135Y-130597221D01*
X216478773Y-130469469D01*
X216419975Y-130327518D01*
X216390000Y-130176823D01*
X216390000Y-130023177D01*
X216402004Y-129962831D01*
X216419975Y-129872482D01*
X216478771Y-129730535D01*
X216478772Y-129730534D01*
X216478773Y-129730531D01*
X216564135Y-129602779D01*
X216564136Y-129602778D01*
X216564138Y-129602775D01*
X216672775Y-129494138D01*
X216672779Y-129494135D01*
X216800531Y-129408773D01*
X216800534Y-129408772D01*
X216800535Y-129408771D01*
X216942482Y-129349975D01*
X217093176Y-129320000D01*
X217246824Y-129320000D01*
X217397518Y-129349975D01*
X217397518Y-129349975D01*
G37*
G36*
X191997518Y-126809975D02*
X192139465Y-126868771D01*
X192139466Y-126868772D01*
X192139469Y-126868773D01*
X192267221Y-126954135D01*
X192267225Y-126954138D01*
X192375862Y-127062775D01*
X192375864Y-127062778D01*
X192375865Y-127062779D01*
X192461227Y-127190531D01*
X192520025Y-127332482D01*
X192550000Y-127483177D01*
X192550000Y-127636823D01*
X192520025Y-127787518D01*
X192461227Y-127929469D01*
X192375865Y-128057221D01*
X192375862Y-128057225D01*
X192267225Y-128165862D01*
X192267222Y-128165864D01*
X192267221Y-128165865D01*
X192139469Y-128251227D01*
X192139466Y-128251228D01*
X192139465Y-128251229D01*
X191997518Y-128310025D01*
X191846824Y-128340000D01*
X191693176Y-128340000D01*
X191542482Y-128310025D01*
X191400535Y-128251229D01*
X191400534Y-128251228D01*
X191400531Y-128251227D01*
X191272779Y-128165865D01*
X191272778Y-128165864D01*
X191272775Y-128165862D01*
X191164138Y-128057225D01*
X191164135Y-128057221D01*
X191078773Y-127929469D01*
X191019975Y-127787518D01*
X190990000Y-127636823D01*
X190990000Y-127483177D01*
X191019975Y-127332482D01*
X191078773Y-127190531D01*
X191164135Y-127062779D01*
X191164136Y-127062778D01*
X191164138Y-127062775D01*
X191272775Y-126954138D01*
X191272779Y-126954135D01*
X191400531Y-126868773D01*
X191400534Y-126868772D01*
X191400535Y-126868771D01*
X191542482Y-126809975D01*
X191693176Y-126780000D01*
X191846824Y-126780000D01*
X191997518Y-126809975D01*
X191997518Y-126809975D01*
G37*
G36*
X217397518Y-126809975D02*
X217539465Y-126868771D01*
X217539466Y-126868772D01*
X217539469Y-126868773D01*
X217667221Y-126954135D01*
X217667225Y-126954138D01*
X217775862Y-127062775D01*
X217775864Y-127062778D01*
X217775865Y-127062779D01*
X217861227Y-127190531D01*
X217920025Y-127332482D01*
X217950000Y-127483177D01*
X217950000Y-127636823D01*
X217920025Y-127787518D01*
X217861227Y-127929469D01*
X217775865Y-128057221D01*
X217775862Y-128057225D01*
X217667225Y-128165862D01*
X217667222Y-128165864D01*
X217667221Y-128165865D01*
X217539469Y-128251227D01*
X217539466Y-128251228D01*
X217539465Y-128251229D01*
X217397518Y-128310025D01*
X217246824Y-128340000D01*
X217093176Y-128340000D01*
X216942482Y-128310025D01*
X216800535Y-128251229D01*
X216800534Y-128251228D01*
X216800531Y-128251227D01*
X216672779Y-128165865D01*
X216672778Y-128165864D01*
X216672775Y-128165862D01*
X216564138Y-128057225D01*
X216564135Y-128057221D01*
X216478773Y-127929469D01*
X216419975Y-127787518D01*
X216390000Y-127636823D01*
X216390000Y-127483177D01*
X216419975Y-127332482D01*
X216478773Y-127190531D01*
X216564135Y-127062779D01*
X216564136Y-127062778D01*
X216564138Y-127062775D01*
X216672775Y-126954138D01*
X216672779Y-126954135D01*
X216800531Y-126868773D01*
X216800534Y-126868772D01*
X216800535Y-126868771D01*
X216942482Y-126809975D01*
X217093176Y-126780000D01*
X217246824Y-126780000D01*
X217397518Y-126809975D01*
X217397518Y-126809975D01*
G37*
G36*
X217397518Y-124269975D02*
X217539465Y-124328771D01*
X217539466Y-124328772D01*
X217539469Y-124328773D01*
X217667221Y-124414135D01*
X217667225Y-124414138D01*
X217775862Y-124522775D01*
X217775864Y-124522778D01*
X217775865Y-124522779D01*
X217861227Y-124650531D01*
X217920025Y-124792482D01*
X217950000Y-124943177D01*
X217950000Y-125096823D01*
X217920025Y-125247518D01*
X217861227Y-125389469D01*
X217857531Y-125395000D01*
X217775862Y-125517225D01*
X217667225Y-125625862D01*
X217667222Y-125625864D01*
X217667221Y-125625865D01*
X217539469Y-125711227D01*
X217539466Y-125711228D01*
X217539465Y-125711229D01*
X217397518Y-125770025D01*
X217246824Y-125800000D01*
X217093176Y-125800000D01*
X216942482Y-125770025D01*
X216800535Y-125711229D01*
X216800534Y-125711228D01*
X216800531Y-125711227D01*
X216672779Y-125625865D01*
X216672778Y-125625864D01*
X216672775Y-125625862D01*
X216564138Y-125517225D01*
X216482469Y-125395000D01*
X216478773Y-125389469D01*
X216419975Y-125247518D01*
X216390000Y-125096823D01*
X216390000Y-124943177D01*
X216419975Y-124792482D01*
X216478773Y-124650531D01*
X216564135Y-124522779D01*
X216564136Y-124522778D01*
X216564138Y-124522775D01*
X216672775Y-124414138D01*
X216672779Y-124414135D01*
X216800531Y-124328773D01*
X216800534Y-124328772D01*
X216800535Y-124328771D01*
X216942482Y-124269975D01*
X217093176Y-124240000D01*
X217246824Y-124240000D01*
X217397518Y-124269975D01*
X217397518Y-124269975D01*
G37*
G36*
X191997518Y-124269975D02*
X192139465Y-124328771D01*
X192139466Y-124328772D01*
X192139469Y-124328773D01*
X192267221Y-124414135D01*
X192267225Y-124414138D01*
X192375862Y-124522775D01*
X192375864Y-124522778D01*
X192375865Y-124522779D01*
X192461227Y-124650531D01*
X192520025Y-124792482D01*
X192550000Y-124943177D01*
X192550000Y-125096823D01*
X192520025Y-125247518D01*
X192461227Y-125389469D01*
X192457531Y-125395000D01*
X192375862Y-125517225D01*
X192267225Y-125625862D01*
X192267222Y-125625864D01*
X192267221Y-125625865D01*
X192139469Y-125711227D01*
X192139466Y-125711228D01*
X192139465Y-125711229D01*
X191997518Y-125770025D01*
X191846824Y-125800000D01*
X191693176Y-125800000D01*
X191542482Y-125770025D01*
X191400535Y-125711229D01*
X191400534Y-125711228D01*
X191400531Y-125711227D01*
X191272779Y-125625865D01*
X191272778Y-125625864D01*
X191272775Y-125625862D01*
X191164138Y-125517225D01*
X191082469Y-125395000D01*
X191078773Y-125389469D01*
X191019975Y-125247518D01*
X190990000Y-125096823D01*
X190990000Y-124943177D01*
X191019975Y-124792482D01*
X191078773Y-124650531D01*
X191164135Y-124522779D01*
X191164136Y-124522778D01*
X191164138Y-124522775D01*
X191272775Y-124414138D01*
X191272779Y-124414135D01*
X191400531Y-124328773D01*
X191400534Y-124328772D01*
X191400535Y-124328771D01*
X191542482Y-124269975D01*
X191693176Y-124240000D01*
X191846824Y-124240000D01*
X191997518Y-124269975D01*
X191997518Y-124269975D01*
G37*
G36*
X185085000Y-125395000D02*
X184485000Y-125395000D01*
X184485000Y-123845000D01*
X185085000Y-123845000D01*
X185085000Y-125395000D01*
X185085000Y-125395000D01*
G37*
G36*
X186355000Y-125395000D02*
X185755000Y-125395000D01*
X185755000Y-123845000D01*
X186355000Y-123845000D01*
X186355000Y-125395000D01*
X186355000Y-125395000D01*
G37*
G36*
X187625000Y-125395000D02*
X187025000Y-125395000D01*
X187025000Y-123845000D01*
X187625000Y-123845000D01*
X187625000Y-125395000D01*
X187625000Y-125395000D01*
G37*
G36*
X183815000Y-125395000D02*
X183215000Y-125395000D01*
X183215000Y-123845000D01*
X183815000Y-123845000D01*
X183815000Y-125395000D01*
X183815000Y-125395000D01*
G37*
G36*
X191997518Y-121729975D02*
X192139465Y-121788771D01*
X192139466Y-121788772D01*
X192139469Y-121788773D01*
X192267221Y-121874135D01*
X192267225Y-121874138D01*
X192375862Y-121982775D01*
X192375864Y-121982778D01*
X192375865Y-121982779D01*
X192461227Y-122110531D01*
X192520025Y-122252482D01*
X192550000Y-122403177D01*
X192550000Y-122556823D01*
X192520025Y-122707518D01*
X192461227Y-122849469D01*
X192375865Y-122977221D01*
X192375862Y-122977225D01*
X192267225Y-123085862D01*
X192267222Y-123085864D01*
X192267221Y-123085865D01*
X192139469Y-123171227D01*
X192139466Y-123171228D01*
X192139465Y-123171229D01*
X191997518Y-123230025D01*
X191846824Y-123260000D01*
X191693176Y-123260000D01*
X191542482Y-123230025D01*
X191400535Y-123171229D01*
X191400534Y-123171228D01*
X191400531Y-123171227D01*
X191272779Y-123085865D01*
X191272778Y-123085864D01*
X191272775Y-123085862D01*
X191164138Y-122977225D01*
X191164135Y-122977221D01*
X191078773Y-122849469D01*
X191019975Y-122707518D01*
X190990000Y-122556823D01*
X190990000Y-122403177D01*
X191019975Y-122252482D01*
X191078773Y-122110531D01*
X191164135Y-121982779D01*
X191164136Y-121982778D01*
X191164138Y-121982775D01*
X191272775Y-121874138D01*
X191272779Y-121874135D01*
X191400531Y-121788773D01*
X191400534Y-121788772D01*
X191400535Y-121788771D01*
X191542482Y-121729975D01*
X191693176Y-121700000D01*
X191846824Y-121700000D01*
X191997518Y-121729975D01*
X191997518Y-121729975D01*
G37*
G36*
X217397518Y-121729975D02*
X217539465Y-121788771D01*
X217539466Y-121788772D01*
X217539469Y-121788773D01*
X217667221Y-121874135D01*
X217667225Y-121874138D01*
X217775862Y-121982775D01*
X217775864Y-121982778D01*
X217775865Y-121982779D01*
X217861227Y-122110531D01*
X217920025Y-122252482D01*
X217950000Y-122403177D01*
X217950000Y-122556823D01*
X217920025Y-122707518D01*
X217861227Y-122849469D01*
X217775865Y-122977221D01*
X217775862Y-122977225D01*
X217667225Y-123085862D01*
X217667222Y-123085864D01*
X217667221Y-123085865D01*
X217539469Y-123171227D01*
X217539466Y-123171228D01*
X217539465Y-123171229D01*
X217397518Y-123230025D01*
X217246824Y-123260000D01*
X217093176Y-123260000D01*
X216942482Y-123230025D01*
X216800535Y-123171229D01*
X216800534Y-123171228D01*
X216800531Y-123171227D01*
X216672779Y-123085865D01*
X216672778Y-123085864D01*
X216672775Y-123085862D01*
X216564138Y-122977225D01*
X216564135Y-122977221D01*
X216478773Y-122849469D01*
X216419975Y-122707518D01*
X216390000Y-122556823D01*
X216390000Y-122403177D01*
X216419975Y-122252482D01*
X216478773Y-122110531D01*
X216564135Y-121982779D01*
X216564136Y-121982778D01*
X216564138Y-121982775D01*
X216672775Y-121874138D01*
X216672779Y-121874135D01*
X216800531Y-121788773D01*
X216800534Y-121788772D01*
X216800535Y-121788771D01*
X216942482Y-121729975D01*
X217093176Y-121700000D01*
X217246824Y-121700000D01*
X217397518Y-121729975D01*
X217397518Y-121729975D01*
G37*
G36*
X217397518Y-119189975D02*
X217539465Y-119248771D01*
X217539466Y-119248772D01*
X217539469Y-119248773D01*
X217667221Y-119334135D01*
X217667225Y-119334138D01*
X217775862Y-119442775D01*
X217775864Y-119442778D01*
X217775865Y-119442779D01*
X217861227Y-119570531D01*
X217920025Y-119712482D01*
X217950000Y-119863177D01*
X217950000Y-120016823D01*
X217920025Y-120167518D01*
X217861227Y-120309469D01*
X217775865Y-120437221D01*
X217775862Y-120437225D01*
X217667225Y-120545862D01*
X217667222Y-120545864D01*
X217667221Y-120545865D01*
X217539469Y-120631227D01*
X217539466Y-120631228D01*
X217539465Y-120631229D01*
X217397518Y-120690025D01*
X217246824Y-120720000D01*
X217093176Y-120720000D01*
X216942482Y-120690025D01*
X216800535Y-120631229D01*
X216800534Y-120631228D01*
X216800531Y-120631227D01*
X216672779Y-120545865D01*
X216672778Y-120545864D01*
X216672775Y-120545862D01*
X216564138Y-120437225D01*
X216564135Y-120437221D01*
X216478773Y-120309469D01*
X216419975Y-120167518D01*
X216390000Y-120016823D01*
X216390000Y-119863177D01*
X216419975Y-119712482D01*
X216478773Y-119570531D01*
X216564135Y-119442779D01*
X216564136Y-119442778D01*
X216564138Y-119442775D01*
X216672775Y-119334138D01*
X216672779Y-119334135D01*
X216800531Y-119248773D01*
X216800534Y-119248772D01*
X216800535Y-119248771D01*
X216942482Y-119189975D01*
X217093176Y-119160000D01*
X217246824Y-119160000D01*
X217397518Y-119189975D01*
X217397518Y-119189975D01*
G37*
G36*
X191997518Y-119189975D02*
X192139465Y-119248771D01*
X192139466Y-119248772D01*
X192139469Y-119248773D01*
X192267221Y-119334135D01*
X192267225Y-119334138D01*
X192375862Y-119442775D01*
X192375864Y-119442778D01*
X192375865Y-119442779D01*
X192461227Y-119570531D01*
X192520025Y-119712482D01*
X192550000Y-119863177D01*
X192550000Y-120016823D01*
X192520025Y-120167518D01*
X192461227Y-120309469D01*
X192375865Y-120437221D01*
X192375862Y-120437225D01*
X192267225Y-120545862D01*
X192267222Y-120545864D01*
X192267221Y-120545865D01*
X192139469Y-120631227D01*
X192139466Y-120631228D01*
X192139465Y-120631229D01*
X191997518Y-120690025D01*
X191846824Y-120720000D01*
X191693176Y-120720000D01*
X191542482Y-120690025D01*
X191400535Y-120631229D01*
X191400534Y-120631228D01*
X191400531Y-120631227D01*
X191272779Y-120545865D01*
X191272778Y-120545864D01*
X191272775Y-120545862D01*
X191164138Y-120437225D01*
X191164135Y-120437221D01*
X191078773Y-120309469D01*
X191019975Y-120167518D01*
X190990000Y-120016823D01*
X190990000Y-119863177D01*
X191019975Y-119712482D01*
X191078773Y-119570531D01*
X191164135Y-119442779D01*
X191164136Y-119442778D01*
X191164138Y-119442775D01*
X191272775Y-119334138D01*
X191272779Y-119334135D01*
X191400531Y-119248773D01*
X191400534Y-119248772D01*
X191400535Y-119248771D01*
X191542482Y-119189975D01*
X191693176Y-119160000D01*
X191846824Y-119160000D01*
X191997518Y-119189975D01*
X191997518Y-119189975D01*
G37*
G36*
X183815000Y-119995000D02*
X183215000Y-119995000D01*
X183215000Y-118445000D01*
X183815000Y-118445000D01*
X183815000Y-119995000D01*
X183815000Y-119995000D01*
G37*
G36*
X185085000Y-119995000D02*
X184485000Y-119995000D01*
X184485000Y-118445000D01*
X185085000Y-118445000D01*
X185085000Y-119995000D01*
X185085000Y-119995000D01*
G37*
G36*
X186355000Y-119995000D02*
X185755000Y-119995000D01*
X185755000Y-118445000D01*
X186355000Y-118445000D01*
X186355000Y-119995000D01*
X186355000Y-119995000D01*
G37*
G36*
X187625000Y-119995000D02*
X187025000Y-119995000D01*
X187025000Y-118445000D01*
X187625000Y-118445000D01*
X187625000Y-119995000D01*
X187625000Y-119995000D01*
G37*
G36*
X217397518Y-116649975D02*
X217539465Y-116708771D01*
X217539466Y-116708772D01*
X217539469Y-116708773D01*
X217667221Y-116794135D01*
X217667225Y-116794138D01*
X217775862Y-116902775D01*
X217775864Y-116902778D01*
X217775865Y-116902779D01*
X217861227Y-117030531D01*
X217920025Y-117172482D01*
X217950000Y-117323177D01*
X217950000Y-117476823D01*
X217920025Y-117627518D01*
X217861227Y-117769469D01*
X217775865Y-117897221D01*
X217775862Y-117897225D01*
X217667225Y-118005862D01*
X217667222Y-118005864D01*
X217667221Y-118005865D01*
X217539469Y-118091227D01*
X217539466Y-118091228D01*
X217539465Y-118091229D01*
X217397518Y-118150025D01*
X217246824Y-118180000D01*
X217093176Y-118180000D01*
X216942482Y-118150025D01*
X216800535Y-118091229D01*
X216800534Y-118091228D01*
X216800531Y-118091227D01*
X216672779Y-118005865D01*
X216672778Y-118005864D01*
X216672775Y-118005862D01*
X216564138Y-117897225D01*
X216564135Y-117897221D01*
X216478773Y-117769469D01*
X216419975Y-117627518D01*
X216390000Y-117476823D01*
X216390000Y-117323177D01*
X216419975Y-117172482D01*
X216478773Y-117030531D01*
X216564135Y-116902779D01*
X216564136Y-116902778D01*
X216564138Y-116902775D01*
X216672775Y-116794138D01*
X216672779Y-116794135D01*
X216800531Y-116708773D01*
X216800534Y-116708772D01*
X216800535Y-116708771D01*
X216942482Y-116649975D01*
X217093176Y-116620000D01*
X217246824Y-116620000D01*
X217397518Y-116649975D01*
X217397518Y-116649975D01*
G37*
G36*
X191997518Y-116649975D02*
X192139465Y-116708771D01*
X192139466Y-116708772D01*
X192139469Y-116708773D01*
X192267221Y-116794135D01*
X192267225Y-116794138D01*
X192375862Y-116902775D01*
X192375864Y-116902778D01*
X192375865Y-116902779D01*
X192461227Y-117030531D01*
X192520025Y-117172482D01*
X192550000Y-117323177D01*
X192550000Y-117476823D01*
X192520025Y-117627518D01*
X192461227Y-117769469D01*
X192375865Y-117897221D01*
X192375862Y-117897225D01*
X192267225Y-118005862D01*
X192267222Y-118005864D01*
X192267221Y-118005865D01*
X192139469Y-118091227D01*
X192139466Y-118091228D01*
X192139465Y-118091229D01*
X191997518Y-118150025D01*
X191846824Y-118180000D01*
X191693176Y-118180000D01*
X191542482Y-118150025D01*
X191400535Y-118091229D01*
X191400534Y-118091228D01*
X191400531Y-118091227D01*
X191272779Y-118005865D01*
X191272778Y-118005864D01*
X191272775Y-118005862D01*
X191164138Y-117897225D01*
X191164135Y-117897221D01*
X191078773Y-117769469D01*
X191019975Y-117627518D01*
X190990000Y-117476823D01*
X190990000Y-117323177D01*
X191019975Y-117172482D01*
X191078773Y-117030531D01*
X191164135Y-116902779D01*
X191164136Y-116902778D01*
X191164138Y-116902775D01*
X191272775Y-116794138D01*
X191272779Y-116794135D01*
X191400531Y-116708773D01*
X191400534Y-116708772D01*
X191400535Y-116708771D01*
X191542482Y-116649975D01*
X191693176Y-116620000D01*
X191846824Y-116620000D01*
X191997518Y-116649975D01*
X191997518Y-116649975D01*
G37*
G36*
X217397518Y-114109975D02*
X217539465Y-114168771D01*
X217539466Y-114168772D01*
X217539469Y-114168773D01*
X217667221Y-114254135D01*
X217667225Y-114254138D01*
X217775862Y-114362775D01*
X217775864Y-114362778D01*
X217775865Y-114362779D01*
X217861227Y-114490531D01*
X217920025Y-114632482D01*
X217950000Y-114783177D01*
X217950000Y-114936823D01*
X217920025Y-115087518D01*
X217861227Y-115229469D01*
X217775865Y-115357221D01*
X217775862Y-115357225D01*
X217667225Y-115465862D01*
X217667222Y-115465864D01*
X217667221Y-115465865D01*
X217539469Y-115551227D01*
X217539466Y-115551228D01*
X217539465Y-115551229D01*
X217397518Y-115610025D01*
X217246824Y-115640000D01*
X217093176Y-115640000D01*
X216942482Y-115610025D01*
X216800535Y-115551229D01*
X216800534Y-115551228D01*
X216800531Y-115551227D01*
X216672779Y-115465865D01*
X216672778Y-115465864D01*
X216672775Y-115465862D01*
X216564138Y-115357225D01*
X216564135Y-115357221D01*
X216478773Y-115229469D01*
X216419975Y-115087518D01*
X216390000Y-114936823D01*
X216390000Y-114783177D01*
X216419975Y-114632482D01*
X216478773Y-114490531D01*
X216564135Y-114362779D01*
X216564136Y-114362778D01*
X216564138Y-114362775D01*
X216672775Y-114254138D01*
X216672779Y-114254135D01*
X216800531Y-114168773D01*
X216800534Y-114168772D01*
X216800535Y-114168771D01*
X216942482Y-114109975D01*
X217093176Y-114080000D01*
X217246824Y-114080000D01*
X217397518Y-114109975D01*
X217397518Y-114109975D01*
G37*
G36*
X191997518Y-114109975D02*
X192139465Y-114168771D01*
X192139466Y-114168772D01*
X192139469Y-114168773D01*
X192267221Y-114254135D01*
X192267225Y-114254138D01*
X192375862Y-114362775D01*
X192375864Y-114362778D01*
X192375865Y-114362779D01*
X192461227Y-114490531D01*
X192520025Y-114632482D01*
X192550000Y-114783177D01*
X192550000Y-114936823D01*
X192520025Y-115087518D01*
X192461227Y-115229469D01*
X192375865Y-115357221D01*
X192375862Y-115357225D01*
X192267225Y-115465862D01*
X192267222Y-115465864D01*
X192267221Y-115465865D01*
X192139469Y-115551227D01*
X192139466Y-115551228D01*
X192139465Y-115551229D01*
X191997518Y-115610025D01*
X191846824Y-115640000D01*
X191693176Y-115640000D01*
X191542482Y-115610025D01*
X191400535Y-115551229D01*
X191400534Y-115551228D01*
X191400531Y-115551227D01*
X191272779Y-115465865D01*
X191272778Y-115465864D01*
X191272775Y-115465862D01*
X191164138Y-115357225D01*
X191164135Y-115357221D01*
X191078773Y-115229469D01*
X191019975Y-115087518D01*
X190990000Y-114936823D01*
X190990000Y-114783177D01*
X191019975Y-114632482D01*
X191078773Y-114490531D01*
X191164135Y-114362779D01*
X191164136Y-114362778D01*
X191164138Y-114362775D01*
X191272775Y-114254138D01*
X191272779Y-114254135D01*
X191400531Y-114168773D01*
X191400534Y-114168772D01*
X191400535Y-114168771D01*
X191542482Y-114109975D01*
X191693176Y-114080000D01*
X191846824Y-114080000D01*
X191997518Y-114109975D01*
X191997518Y-114109975D01*
G37*
G36*
X181776630Y-112192299D02*
X181936855Y-112240903D01*
X182084520Y-112319831D01*
X182213949Y-112426051D01*
X182320169Y-112555480D01*
X182399097Y-112703145D01*
X182447701Y-112863370D01*
X182464112Y-113030000D01*
X182447701Y-113196630D01*
X182399097Y-113356855D01*
X182320169Y-113504520D01*
X182213949Y-113633949D01*
X182084520Y-113740169D01*
X181936855Y-113819097D01*
X181776630Y-113867701D01*
X181651752Y-113880000D01*
X181568248Y-113880000D01*
X181443370Y-113867701D01*
X181283145Y-113819097D01*
X181135480Y-113740169D01*
X181006051Y-113633949D01*
X180899831Y-113504520D01*
X180820903Y-113356855D01*
X180772299Y-113196630D01*
X180755888Y-113030000D01*
X180772299Y-112863370D01*
X180820903Y-112703145D01*
X180899831Y-112555480D01*
X181006051Y-112426051D01*
X181135480Y-112319831D01*
X181283145Y-112240903D01*
X181443370Y-112192299D01*
X181568248Y-112180000D01*
X181651752Y-112180000D01*
X181776630Y-112192299D01*
X181776630Y-112192299D01*
G37*
G36*
X232132000Y-113743000D02*
X230432000Y-113743000D01*
X230432000Y-112043000D01*
X232132000Y-112043000D01*
X232132000Y-113743000D01*
X232132000Y-113743000D01*
G37*
G36*
X228908630Y-112055299D02*
X229068855Y-112103903D01*
X229216520Y-112182831D01*
X229345949Y-112289051D01*
X229452169Y-112418480D01*
X229531097Y-112566145D01*
X229579701Y-112726370D01*
X229596112Y-112893000D01*
X229579701Y-113059630D01*
X229531097Y-113219855D01*
X229452169Y-113367520D01*
X229345949Y-113496949D01*
X229216520Y-113603169D01*
X229068855Y-113682097D01*
X228908630Y-113730701D01*
X228783752Y-113743000D01*
X228700248Y-113743000D01*
X228575370Y-113730701D01*
X228415145Y-113682097D01*
X228267480Y-113603169D01*
X228138051Y-113496949D01*
X228031831Y-113367520D01*
X227952903Y-113219855D01*
X227904299Y-113059630D01*
X227887888Y-112893000D01*
X227904299Y-112726370D01*
X227952903Y-112566145D01*
X228031831Y-112418480D01*
X228138051Y-112289051D01*
X228267480Y-112182831D01*
X228415145Y-112103903D01*
X228575370Y-112055299D01*
X228700248Y-112043000D01*
X228783752Y-112043000D01*
X228908630Y-112055299D01*
X228908630Y-112055299D01*
G37*
G36*
X226368630Y-112055299D02*
X226528855Y-112103903D01*
X226676520Y-112182831D01*
X226805949Y-112289051D01*
X226912169Y-112418480D01*
X226991097Y-112566145D01*
X227039701Y-112726370D01*
X227056112Y-112893000D01*
X227039701Y-113059630D01*
X226991097Y-113219855D01*
X226912169Y-113367520D01*
X226805949Y-113496949D01*
X226676520Y-113603169D01*
X226528855Y-113682097D01*
X226368630Y-113730701D01*
X226243752Y-113743000D01*
X226160248Y-113743000D01*
X226035370Y-113730701D01*
X225875145Y-113682097D01*
X225727480Y-113603169D01*
X225598051Y-113496949D01*
X225491831Y-113367520D01*
X225412903Y-113219855D01*
X225364299Y-113059630D01*
X225347888Y-112893000D01*
X225364299Y-112726370D01*
X225412903Y-112566145D01*
X225491831Y-112418480D01*
X225598051Y-112289051D01*
X225727480Y-112182831D01*
X225875145Y-112103903D01*
X226035370Y-112055299D01*
X226160248Y-112043000D01*
X226243752Y-112043000D01*
X226368630Y-112055299D01*
X226368630Y-112055299D01*
G37*
G36*
X191997518Y-111569975D02*
X192139465Y-111628771D01*
X192139466Y-111628772D01*
X192139469Y-111628773D01*
X192267221Y-111714135D01*
X192267225Y-111714138D01*
X192375862Y-111822775D01*
X192375864Y-111822778D01*
X192375865Y-111822779D01*
X192461227Y-111950531D01*
X192461228Y-111950534D01*
X192461229Y-111950535D01*
X192520025Y-112092482D01*
X192537997Y-112182831D01*
X192550000Y-112243177D01*
X192550000Y-112396823D01*
X192520025Y-112547518D01*
X192461227Y-112689469D01*
X192375865Y-112817221D01*
X192375862Y-112817225D01*
X192267225Y-112925862D01*
X192267222Y-112925864D01*
X192267221Y-112925865D01*
X192139469Y-113011227D01*
X192139466Y-113011228D01*
X192139465Y-113011229D01*
X191997518Y-113070025D01*
X191846824Y-113100000D01*
X191693176Y-113100000D01*
X191542482Y-113070025D01*
X191400535Y-113011229D01*
X191400534Y-113011228D01*
X191400531Y-113011227D01*
X191272779Y-112925865D01*
X191272778Y-112925864D01*
X191272775Y-112925862D01*
X191164138Y-112817225D01*
X191164135Y-112817221D01*
X191078773Y-112689469D01*
X191019975Y-112547518D01*
X190990000Y-112396823D01*
X190990000Y-112243177D01*
X191002004Y-112182831D01*
X191019975Y-112092482D01*
X191078771Y-111950535D01*
X191078772Y-111950534D01*
X191078773Y-111950531D01*
X191164135Y-111822779D01*
X191164136Y-111822778D01*
X191164138Y-111822775D01*
X191272775Y-111714138D01*
X191272779Y-111714135D01*
X191400531Y-111628773D01*
X191400534Y-111628772D01*
X191400535Y-111628771D01*
X191542482Y-111569975D01*
X191693176Y-111540000D01*
X191846824Y-111540000D01*
X191997518Y-111569975D01*
X191997518Y-111569975D01*
G37*
G36*
X217397518Y-111569975D02*
X217539465Y-111628771D01*
X217539466Y-111628772D01*
X217539469Y-111628773D01*
X217667221Y-111714135D01*
X217667225Y-111714138D01*
X217775862Y-111822775D01*
X217775864Y-111822778D01*
X217775865Y-111822779D01*
X217861227Y-111950531D01*
X217861228Y-111950534D01*
X217861229Y-111950535D01*
X217920025Y-112092482D01*
X217937997Y-112182831D01*
X217950000Y-112243177D01*
X217950000Y-112396823D01*
X217920025Y-112547518D01*
X217861227Y-112689469D01*
X217775865Y-112817221D01*
X217775862Y-112817225D01*
X217667225Y-112925862D01*
X217667222Y-112925864D01*
X217667221Y-112925865D01*
X217539469Y-113011227D01*
X217539466Y-113011228D01*
X217539465Y-113011229D01*
X217397518Y-113070025D01*
X217246824Y-113100000D01*
X217093176Y-113100000D01*
X216942482Y-113070025D01*
X216800535Y-113011229D01*
X216800534Y-113011228D01*
X216800531Y-113011227D01*
X216672779Y-112925865D01*
X216672778Y-112925864D01*
X216672775Y-112925862D01*
X216564138Y-112817225D01*
X216564135Y-112817221D01*
X216478773Y-112689469D01*
X216419975Y-112547518D01*
X216390000Y-112396823D01*
X216390000Y-112243177D01*
X216402004Y-112182831D01*
X216419975Y-112092482D01*
X216478771Y-111950535D01*
X216478772Y-111950534D01*
X216478773Y-111950531D01*
X216564135Y-111822779D01*
X216564136Y-111822778D01*
X216564138Y-111822775D01*
X216672775Y-111714138D01*
X216672779Y-111714135D01*
X216800531Y-111628773D01*
X216800534Y-111628772D01*
X216800535Y-111628771D01*
X216942482Y-111569975D01*
X217093176Y-111540000D01*
X217246824Y-111540000D01*
X217397518Y-111569975D01*
X217397518Y-111569975D01*
G37*
G36*
X182460000Y-111340000D02*
X180760000Y-111340000D01*
X180760000Y-109640000D01*
X182460000Y-109640000D01*
X182460000Y-111340000D01*
X182460000Y-111340000D01*
G37*
G36*
X191997518Y-109029975D02*
X192139465Y-109088771D01*
X192139466Y-109088772D01*
X192139469Y-109088773D01*
X192267221Y-109174135D01*
X192267225Y-109174138D01*
X192375862Y-109282775D01*
X192375864Y-109282778D01*
X192375865Y-109282779D01*
X192461227Y-109410531D01*
X192520025Y-109552482D01*
X192550000Y-109703177D01*
X192550000Y-109856823D01*
X192520025Y-110007518D01*
X192461227Y-110149469D01*
X192375865Y-110277221D01*
X192375862Y-110277225D01*
X192267225Y-110385862D01*
X192267222Y-110385864D01*
X192267221Y-110385865D01*
X192139469Y-110471227D01*
X192139466Y-110471228D01*
X192139465Y-110471229D01*
X191997518Y-110530025D01*
X191846824Y-110560000D01*
X191693176Y-110560000D01*
X191542482Y-110530025D01*
X191400535Y-110471229D01*
X191400534Y-110471228D01*
X191400531Y-110471227D01*
X191272779Y-110385865D01*
X191272778Y-110385864D01*
X191272775Y-110385862D01*
X191164138Y-110277225D01*
X191164135Y-110277221D01*
X191078773Y-110149469D01*
X191019975Y-110007518D01*
X190990000Y-109856823D01*
X190990000Y-109703177D01*
X191019975Y-109552482D01*
X191078773Y-109410531D01*
X191164135Y-109282779D01*
X191164136Y-109282778D01*
X191164138Y-109282775D01*
X191272775Y-109174138D01*
X191272779Y-109174135D01*
X191400531Y-109088773D01*
X191400534Y-109088772D01*
X191400535Y-109088771D01*
X191542482Y-109029975D01*
X191693176Y-109000000D01*
X191846824Y-109000000D01*
X191997518Y-109029975D01*
X191997518Y-109029975D01*
G37*
G36*
X217397518Y-109029975D02*
X217539465Y-109088771D01*
X217539466Y-109088772D01*
X217539469Y-109088773D01*
X217667221Y-109174135D01*
X217667225Y-109174138D01*
X217775862Y-109282775D01*
X217775864Y-109282778D01*
X217775865Y-109282779D01*
X217861227Y-109410531D01*
X217920025Y-109552482D01*
X217950000Y-109703177D01*
X217950000Y-109856823D01*
X217920025Y-110007518D01*
X217861227Y-110149469D01*
X217775865Y-110277221D01*
X217775862Y-110277225D01*
X217667225Y-110385862D01*
X217667222Y-110385864D01*
X217667221Y-110385865D01*
X217539469Y-110471227D01*
X217539466Y-110471228D01*
X217539465Y-110471229D01*
X217397518Y-110530025D01*
X217246824Y-110560000D01*
X217093176Y-110560000D01*
X216942482Y-110530025D01*
X216800535Y-110471229D01*
X216800534Y-110471228D01*
X216800531Y-110471227D01*
X216672779Y-110385865D01*
X216672778Y-110385864D01*
X216672775Y-110385862D01*
X216564138Y-110277225D01*
X216564135Y-110277221D01*
X216478773Y-110149469D01*
X216419975Y-110007518D01*
X216390000Y-109856823D01*
X216390000Y-109703177D01*
X216419975Y-109552482D01*
X216478773Y-109410531D01*
X216564135Y-109282779D01*
X216564136Y-109282778D01*
X216564138Y-109282775D01*
X216672775Y-109174138D01*
X216672779Y-109174135D01*
X216800531Y-109088773D01*
X216800534Y-109088772D01*
X216800535Y-109088771D01*
X216942482Y-109029975D01*
X217093176Y-109000000D01*
X217246824Y-109000000D01*
X217397518Y-109029975D01*
X217397518Y-109029975D01*
G37*
G36*
X217397518Y-106489975D02*
X217539465Y-106548771D01*
X217539466Y-106548772D01*
X217539469Y-106548773D01*
X217667221Y-106634135D01*
X217667225Y-106634138D01*
X217775862Y-106742775D01*
X217775864Y-106742778D01*
X217775865Y-106742779D01*
X217861227Y-106870531D01*
X217920025Y-107012482D01*
X217950000Y-107163177D01*
X217950000Y-107316823D01*
X217920025Y-107467518D01*
X217861227Y-107609469D01*
X217775865Y-107737221D01*
X217775862Y-107737225D01*
X217667225Y-107845862D01*
X217667222Y-107845864D01*
X217667221Y-107845865D01*
X217539469Y-107931227D01*
X217539466Y-107931228D01*
X217539465Y-107931229D01*
X217397518Y-107990025D01*
X217246824Y-108020000D01*
X217093176Y-108020000D01*
X216942482Y-107990025D01*
X216800535Y-107931229D01*
X216800534Y-107931228D01*
X216800531Y-107931227D01*
X216672779Y-107845865D01*
X216672778Y-107845864D01*
X216672775Y-107845862D01*
X216564138Y-107737225D01*
X216564135Y-107737221D01*
X216478773Y-107609469D01*
X216419975Y-107467518D01*
X216390000Y-107316823D01*
X216390000Y-107163177D01*
X216419975Y-107012482D01*
X216478773Y-106870531D01*
X216564135Y-106742779D01*
X216564136Y-106742778D01*
X216564138Y-106742775D01*
X216672775Y-106634138D01*
X216672779Y-106634135D01*
X216800531Y-106548773D01*
X216800534Y-106548772D01*
X216800535Y-106548771D01*
X216942482Y-106489975D01*
X217093176Y-106460000D01*
X217246824Y-106460000D01*
X217397518Y-106489975D01*
X217397518Y-106489975D01*
G37*
G36*
X191997518Y-106489975D02*
X192139465Y-106548771D01*
X192139466Y-106548772D01*
X192139469Y-106548773D01*
X192267221Y-106634135D01*
X192267225Y-106634138D01*
X192375862Y-106742775D01*
X192375864Y-106742778D01*
X192375865Y-106742779D01*
X192461227Y-106870531D01*
X192520025Y-107012482D01*
X192550000Y-107163177D01*
X192550000Y-107316823D01*
X192520025Y-107467518D01*
X192461227Y-107609469D01*
X192375865Y-107737221D01*
X192375862Y-107737225D01*
X192267225Y-107845862D01*
X192267222Y-107845864D01*
X192267221Y-107845865D01*
X192139469Y-107931227D01*
X192139466Y-107931228D01*
X192139465Y-107931229D01*
X191997518Y-107990025D01*
X191846824Y-108020000D01*
X191693176Y-108020000D01*
X191542482Y-107990025D01*
X191400535Y-107931229D01*
X191400534Y-107931228D01*
X191400531Y-107931227D01*
X191272779Y-107845865D01*
X191272778Y-107845864D01*
X191272775Y-107845862D01*
X191164138Y-107737225D01*
X191164135Y-107737221D01*
X191078773Y-107609469D01*
X191019975Y-107467518D01*
X190990000Y-107316823D01*
X190990000Y-107163177D01*
X191019975Y-107012482D01*
X191078773Y-106870531D01*
X191164135Y-106742779D01*
X191164136Y-106742778D01*
X191164138Y-106742775D01*
X191272775Y-106634138D01*
X191272779Y-106634135D01*
X191400531Y-106548773D01*
X191400534Y-106548772D01*
X191400535Y-106548771D01*
X191542482Y-106489975D01*
X191693176Y-106460000D01*
X191846824Y-106460000D01*
X191997518Y-106489975D01*
X191997518Y-106489975D01*
G37*
G36*
X228766630Y-105842299D02*
X228926855Y-105890903D01*
X229074520Y-105969831D01*
X229203949Y-106076051D01*
X229310169Y-106205480D01*
X229389097Y-106353145D01*
X229437701Y-106513370D01*
X229454112Y-106680000D01*
X229437701Y-106846630D01*
X229389097Y-107006855D01*
X229310169Y-107154520D01*
X229203949Y-107283949D01*
X229074520Y-107390169D01*
X228926855Y-107469097D01*
X228766630Y-107517701D01*
X228641752Y-107530000D01*
X228558248Y-107530000D01*
X228433370Y-107517701D01*
X228273145Y-107469097D01*
X228125480Y-107390169D01*
X227996051Y-107283949D01*
X227889831Y-107154520D01*
X227810903Y-107006855D01*
X227762299Y-106846630D01*
X227745888Y-106680000D01*
X227762299Y-106513370D01*
X227810903Y-106353145D01*
X227889831Y-106205480D01*
X227996051Y-106076051D01*
X228125480Y-105969831D01*
X228273145Y-105890903D01*
X228433370Y-105842299D01*
X228558248Y-105830000D01*
X228641752Y-105830000D01*
X228766630Y-105842299D01*
X228766630Y-105842299D01*
G37*
G36*
X231990000Y-107530000D02*
X230290000Y-107530000D01*
X230290000Y-105830000D01*
X231990000Y-105830000D01*
X231990000Y-107530000D01*
X231990000Y-107530000D01*
G37*
G36*
X217397518Y-103949975D02*
X217539465Y-104008771D01*
X217539466Y-104008772D01*
X217539469Y-104008773D01*
X217667221Y-104094135D01*
X217667225Y-104094138D01*
X217775862Y-104202775D01*
X217775864Y-104202778D01*
X217775865Y-104202779D01*
X217861227Y-104330531D01*
X217920025Y-104472482D01*
X217950000Y-104623177D01*
X217950000Y-104776823D01*
X217920025Y-104927518D01*
X217861227Y-105069469D01*
X217775865Y-105197221D01*
X217775862Y-105197225D01*
X217667225Y-105305862D01*
X217667222Y-105305864D01*
X217667221Y-105305865D01*
X217539469Y-105391227D01*
X217539466Y-105391228D01*
X217539465Y-105391229D01*
X217397518Y-105450025D01*
X217246824Y-105480000D01*
X217093176Y-105480000D01*
X216942482Y-105450025D01*
X216800535Y-105391229D01*
X216800534Y-105391228D01*
X216800531Y-105391227D01*
X216672779Y-105305865D01*
X216672778Y-105305864D01*
X216672775Y-105305862D01*
X216564138Y-105197225D01*
X216564135Y-105197221D01*
X216478773Y-105069469D01*
X216419975Y-104927518D01*
X216390000Y-104776823D01*
X216390000Y-104623177D01*
X216419975Y-104472482D01*
X216478773Y-104330531D01*
X216564135Y-104202779D01*
X216564136Y-104202778D01*
X216564138Y-104202775D01*
X216672775Y-104094138D01*
X216672779Y-104094135D01*
X216800531Y-104008773D01*
X216800534Y-104008772D01*
X216800535Y-104008771D01*
X216942482Y-103949975D01*
X217093176Y-103920000D01*
X217246824Y-103920000D01*
X217397518Y-103949975D01*
X217397518Y-103949975D01*
G37*
G36*
X191997518Y-103949975D02*
X192139465Y-104008771D01*
X192139466Y-104008772D01*
X192139469Y-104008773D01*
X192267221Y-104094135D01*
X192267225Y-104094138D01*
X192375862Y-104202775D01*
X192375864Y-104202778D01*
X192375865Y-104202779D01*
X192461227Y-104330531D01*
X192520025Y-104472482D01*
X192550000Y-104623177D01*
X192550000Y-104776823D01*
X192520025Y-104927518D01*
X192461227Y-105069469D01*
X192375865Y-105197221D01*
X192375862Y-105197225D01*
X192267225Y-105305862D01*
X192267222Y-105305864D01*
X192267221Y-105305865D01*
X192139469Y-105391227D01*
X192139466Y-105391228D01*
X192139465Y-105391229D01*
X191997518Y-105450025D01*
X191846824Y-105480000D01*
X191693176Y-105480000D01*
X191542482Y-105450025D01*
X191400535Y-105391229D01*
X191400534Y-105391228D01*
X191400531Y-105391227D01*
X191272779Y-105305865D01*
X191272778Y-105305864D01*
X191272775Y-105305862D01*
X191164138Y-105197225D01*
X191164135Y-105197221D01*
X191078773Y-105069469D01*
X191019975Y-104927518D01*
X190990000Y-104776823D01*
X190990000Y-104623177D01*
X191019975Y-104472482D01*
X191078773Y-104330531D01*
X191164135Y-104202779D01*
X191164136Y-104202778D01*
X191164138Y-104202775D01*
X191272775Y-104094138D01*
X191272779Y-104094135D01*
X191400531Y-104008773D01*
X191400534Y-104008772D01*
X191400535Y-104008771D01*
X191542482Y-103949975D01*
X191693176Y-103920000D01*
X191846824Y-103920000D01*
X191997518Y-103949975D01*
X191997518Y-103949975D01*
G37*
G36*
X191997518Y-101409975D02*
X192139465Y-101468771D01*
X192139466Y-101468772D01*
X192139469Y-101468773D01*
X192267221Y-101554135D01*
X192267225Y-101554138D01*
X192375862Y-101662775D01*
X192375864Y-101662778D01*
X192375865Y-101662779D01*
X192461227Y-101790531D01*
X192520025Y-101932482D01*
X192550000Y-102083177D01*
X192550000Y-102236823D01*
X192520025Y-102387518D01*
X192461227Y-102529469D01*
X192375865Y-102657221D01*
X192375862Y-102657225D01*
X192267225Y-102765862D01*
X192267222Y-102765864D01*
X192267221Y-102765865D01*
X192139469Y-102851227D01*
X192139466Y-102851228D01*
X192139465Y-102851229D01*
X191997518Y-102910025D01*
X191846824Y-102940000D01*
X191693176Y-102940000D01*
X191542482Y-102910025D01*
X191400535Y-102851229D01*
X191400534Y-102851228D01*
X191400531Y-102851227D01*
X191272779Y-102765865D01*
X191272778Y-102765864D01*
X191272775Y-102765862D01*
X191164138Y-102657225D01*
X191164135Y-102657221D01*
X191078773Y-102529469D01*
X191019975Y-102387518D01*
X190990000Y-102236823D01*
X190990000Y-102083177D01*
X191019975Y-101932482D01*
X191078773Y-101790531D01*
X191164135Y-101662779D01*
X191164136Y-101662778D01*
X191164138Y-101662775D01*
X191272775Y-101554138D01*
X191272779Y-101554135D01*
X191400531Y-101468773D01*
X191400534Y-101468772D01*
X191400535Y-101468771D01*
X191542482Y-101409975D01*
X191693176Y-101380000D01*
X191846824Y-101380000D01*
X191997518Y-101409975D01*
X191997518Y-101409975D01*
G37*
G36*
X217397518Y-101409975D02*
X217539465Y-101468771D01*
X217539466Y-101468772D01*
X217539469Y-101468773D01*
X217667221Y-101554135D01*
X217667225Y-101554138D01*
X217775862Y-101662775D01*
X217775864Y-101662778D01*
X217775865Y-101662779D01*
X217861227Y-101790531D01*
X217920025Y-101932482D01*
X217950000Y-102083177D01*
X217950000Y-102236823D01*
X217920025Y-102387518D01*
X217861227Y-102529469D01*
X217775865Y-102657221D01*
X217775862Y-102657225D01*
X217667225Y-102765862D01*
X217667222Y-102765864D01*
X217667221Y-102765865D01*
X217539469Y-102851227D01*
X217539466Y-102851228D01*
X217539465Y-102851229D01*
X217397518Y-102910025D01*
X217246824Y-102940000D01*
X217093176Y-102940000D01*
X216942482Y-102910025D01*
X216800535Y-102851229D01*
X216800534Y-102851228D01*
X216800531Y-102851227D01*
X216672779Y-102765865D01*
X216672778Y-102765864D01*
X216672775Y-102765862D01*
X216564138Y-102657225D01*
X216564135Y-102657221D01*
X216478773Y-102529469D01*
X216419975Y-102387518D01*
X216390000Y-102236823D01*
X216390000Y-102083177D01*
X216419975Y-101932482D01*
X216478773Y-101790531D01*
X216564135Y-101662779D01*
X216564136Y-101662778D01*
X216564138Y-101662775D01*
X216672775Y-101554138D01*
X216672779Y-101554135D01*
X216800531Y-101468773D01*
X216800534Y-101468772D01*
X216800535Y-101468771D01*
X216942482Y-101409975D01*
X217093176Y-101380000D01*
X217246824Y-101380000D01*
X217397518Y-101409975D01*
X217397518Y-101409975D01*
G37*
G36*
X231990000Y-102450000D02*
X230290000Y-102450000D01*
X230290000Y-100750000D01*
X231990000Y-100750000D01*
X231990000Y-102450000D01*
X231990000Y-102450000D01*
G37*
G36*
X228766630Y-100762299D02*
X228926855Y-100810903D01*
X229074520Y-100889831D01*
X229203949Y-100996051D01*
X229310169Y-101125480D01*
X229389097Y-101273145D01*
X229437701Y-101433370D01*
X229454112Y-101600000D01*
X229437701Y-101766630D01*
X229389097Y-101926855D01*
X229310169Y-102074520D01*
X229203949Y-102203949D01*
X229074520Y-102310169D01*
X228926855Y-102389097D01*
X228766630Y-102437701D01*
X228641752Y-102450000D01*
X228558248Y-102450000D01*
X228433370Y-102437701D01*
X228273145Y-102389097D01*
X228125480Y-102310169D01*
X227996051Y-102203949D01*
X227889831Y-102074520D01*
X227810903Y-101926855D01*
X227762299Y-101766630D01*
X227745888Y-101600000D01*
X227762299Y-101433370D01*
X227810903Y-101273145D01*
X227889831Y-101125480D01*
X227996051Y-100996051D01*
X228125480Y-100889831D01*
X228273145Y-100810903D01*
X228433370Y-100762299D01*
X228558248Y-100750000D01*
X228641752Y-100750000D01*
X228766630Y-100762299D01*
X228766630Y-100762299D01*
G37*
G36*
X181776630Y-99492299D02*
X181936855Y-99540903D01*
X182084520Y-99619831D01*
X182213949Y-99726051D01*
X182320169Y-99855480D01*
X182399097Y-100003145D01*
X182447701Y-100163370D01*
X182464112Y-100330000D01*
X182447701Y-100496630D01*
X182399097Y-100656855D01*
X182320169Y-100804520D01*
X182213949Y-100933949D01*
X182084520Y-101040169D01*
X181936855Y-101119097D01*
X181776630Y-101167701D01*
X181651752Y-101180000D01*
X181568248Y-101180000D01*
X181443370Y-101167701D01*
X181283145Y-101119097D01*
X181135480Y-101040169D01*
X181006051Y-100933949D01*
X180899831Y-100804520D01*
X180820903Y-100656855D01*
X180772299Y-100496630D01*
X180755888Y-100330000D01*
X180772299Y-100163370D01*
X180820903Y-100003145D01*
X180899831Y-99855480D01*
X181006051Y-99726051D01*
X181135480Y-99619831D01*
X181283145Y-99540903D01*
X181443370Y-99492299D01*
X181568248Y-99480000D01*
X181651752Y-99480000D01*
X181776630Y-99492299D01*
X181776630Y-99492299D01*
G37*
G36*
X191997518Y-98869975D02*
X192139465Y-98928771D01*
X192139466Y-98928772D01*
X192139469Y-98928773D01*
X192267221Y-99014135D01*
X192267225Y-99014138D01*
X192375862Y-99122775D01*
X192375864Y-99122778D01*
X192375865Y-99122779D01*
X192461227Y-99250531D01*
X192520025Y-99392482D01*
X192550000Y-99543177D01*
X192550000Y-99696823D01*
X192520025Y-99847518D01*
X192461227Y-99989469D01*
X192375865Y-100117221D01*
X192375862Y-100117225D01*
X192267225Y-100225862D01*
X192267222Y-100225864D01*
X192267221Y-100225865D01*
X192139469Y-100311227D01*
X192139466Y-100311228D01*
X192139465Y-100311229D01*
X191997518Y-100370025D01*
X191846824Y-100400000D01*
X191693176Y-100400000D01*
X191542482Y-100370025D01*
X191400535Y-100311229D01*
X191400534Y-100311228D01*
X191400531Y-100311227D01*
X191272779Y-100225865D01*
X191272778Y-100225864D01*
X191272775Y-100225862D01*
X191164138Y-100117225D01*
X191164135Y-100117221D01*
X191078773Y-99989469D01*
X191019975Y-99847518D01*
X190990000Y-99696823D01*
X190990000Y-99543177D01*
X191019975Y-99392482D01*
X191078773Y-99250531D01*
X191164135Y-99122779D01*
X191164136Y-99122778D01*
X191164138Y-99122775D01*
X191272775Y-99014138D01*
X191272779Y-99014135D01*
X191400531Y-98928773D01*
X191400534Y-98928772D01*
X191400535Y-98928771D01*
X191542482Y-98869975D01*
X191693176Y-98840000D01*
X191846824Y-98840000D01*
X191997518Y-98869975D01*
X191997518Y-98869975D01*
G37*
G36*
X217397518Y-98869975D02*
X217539465Y-98928771D01*
X217539466Y-98928772D01*
X217539469Y-98928773D01*
X217667221Y-99014135D01*
X217667225Y-99014138D01*
X217775862Y-99122775D01*
X217775864Y-99122778D01*
X217775865Y-99122779D01*
X217861227Y-99250531D01*
X217920025Y-99392482D01*
X217950000Y-99543177D01*
X217950000Y-99696823D01*
X217920025Y-99847518D01*
X217861227Y-99989469D01*
X217775865Y-100117221D01*
X217775862Y-100117225D01*
X217667225Y-100225862D01*
X217667222Y-100225864D01*
X217667221Y-100225865D01*
X217539469Y-100311227D01*
X217539466Y-100311228D01*
X217539465Y-100311229D01*
X217397518Y-100370025D01*
X217246824Y-100400000D01*
X217093176Y-100400000D01*
X216942482Y-100370025D01*
X216800535Y-100311229D01*
X216800534Y-100311228D01*
X216800531Y-100311227D01*
X216672779Y-100225865D01*
X216672778Y-100225864D01*
X216672775Y-100225862D01*
X216564138Y-100117225D01*
X216564135Y-100117221D01*
X216478773Y-99989469D01*
X216419975Y-99847518D01*
X216390000Y-99696823D01*
X216390000Y-99543177D01*
X216419975Y-99392482D01*
X216478773Y-99250531D01*
X216564135Y-99122779D01*
X216564136Y-99122778D01*
X216564138Y-99122775D01*
X216672775Y-99014138D01*
X216672779Y-99014135D01*
X216800531Y-98928773D01*
X216800534Y-98928772D01*
X216800535Y-98928771D01*
X216942482Y-98869975D01*
X217093176Y-98840000D01*
X217246824Y-98840000D01*
X217397518Y-98869975D01*
X217397518Y-98869975D01*
G37*
G36*
X182460000Y-98640000D02*
X180760000Y-98640000D01*
X180760000Y-96940000D01*
X182460000Y-96940000D01*
X182460000Y-98640000D01*
X182460000Y-98640000D01*
G37*
G36*
X191997518Y-96329975D02*
X192139465Y-96388771D01*
X192139466Y-96388772D01*
X192139469Y-96388773D01*
X192267221Y-96474135D01*
X192267225Y-96474138D01*
X192375862Y-96582775D01*
X192375864Y-96582778D01*
X192375865Y-96582779D01*
X192461227Y-96710531D01*
X192461228Y-96710534D01*
X192461229Y-96710535D01*
X192520025Y-96852482D01*
X192550000Y-97003176D01*
X192550000Y-97156824D01*
X192520025Y-97307518D01*
X192480878Y-97402029D01*
X192461227Y-97449469D01*
X192392383Y-97552500D01*
X192375862Y-97577225D01*
X192267225Y-97685862D01*
X192267222Y-97685864D01*
X192267221Y-97685865D01*
X192139469Y-97771227D01*
X192139466Y-97771228D01*
X192139465Y-97771229D01*
X191997518Y-97830025D01*
X191846824Y-97860000D01*
X191693176Y-97860000D01*
X191542482Y-97830025D01*
X191400535Y-97771229D01*
X191400534Y-97771228D01*
X191400531Y-97771227D01*
X191272779Y-97685865D01*
X191272778Y-97685864D01*
X191272775Y-97685862D01*
X191164138Y-97577225D01*
X191147617Y-97552500D01*
X191078773Y-97449469D01*
X191059123Y-97402029D01*
X191019975Y-97307518D01*
X190990000Y-97156824D01*
X190990000Y-97003176D01*
X191019975Y-96852482D01*
X191078771Y-96710535D01*
X191078772Y-96710534D01*
X191078773Y-96710531D01*
X191164135Y-96582779D01*
X191164136Y-96582778D01*
X191164138Y-96582775D01*
X191272775Y-96474138D01*
X191272779Y-96474135D01*
X191400531Y-96388773D01*
X191400534Y-96388772D01*
X191400535Y-96388771D01*
X191542482Y-96329975D01*
X191693176Y-96300000D01*
X191846824Y-96300000D01*
X191997518Y-96329975D01*
X191997518Y-96329975D01*
G37*
G36*
X217397518Y-96329975D02*
X217539465Y-96388771D01*
X217539466Y-96388772D01*
X217539469Y-96388773D01*
X217667221Y-96474135D01*
X217667225Y-96474138D01*
X217775862Y-96582775D01*
X217775864Y-96582778D01*
X217775865Y-96582779D01*
X217861227Y-96710531D01*
X217861228Y-96710534D01*
X217861229Y-96710535D01*
X217920025Y-96852482D01*
X217950000Y-97003176D01*
X217950000Y-97156824D01*
X217920025Y-97307518D01*
X217880878Y-97402029D01*
X217861227Y-97449469D01*
X217792383Y-97552500D01*
X217775862Y-97577225D01*
X217667225Y-97685862D01*
X217667222Y-97685864D01*
X217667221Y-97685865D01*
X217539469Y-97771227D01*
X217539466Y-97771228D01*
X217539465Y-97771229D01*
X217397518Y-97830025D01*
X217246824Y-97860000D01*
X217093176Y-97860000D01*
X216942482Y-97830025D01*
X216800535Y-97771229D01*
X216800534Y-97771228D01*
X216800531Y-97771227D01*
X216672779Y-97685865D01*
X216672778Y-97685864D01*
X216672775Y-97685862D01*
X216564138Y-97577225D01*
X216547617Y-97552500D01*
X216478773Y-97449469D01*
X216459123Y-97402029D01*
X216419975Y-97307518D01*
X216390000Y-97156824D01*
X216390000Y-97003176D01*
X216419975Y-96852482D01*
X216478771Y-96710535D01*
X216478772Y-96710534D01*
X216478773Y-96710531D01*
X216564135Y-96582779D01*
X216564136Y-96582778D01*
X216564138Y-96582775D01*
X216672775Y-96474138D01*
X216672779Y-96474135D01*
X216800531Y-96388773D01*
X216800534Y-96388772D01*
X216800535Y-96388771D01*
X216942482Y-96329975D01*
X217093176Y-96300000D01*
X217246824Y-96300000D01*
X217397518Y-96329975D01*
X217397518Y-96329975D01*
G37*
G36*
X223528992Y-96156576D02*
X223562883Y-96166857D01*
X223594111Y-96183548D01*
X223621485Y-96206015D01*
X223643952Y-96233389D01*
X223660643Y-96264617D01*
X223670924Y-96298508D01*
X223675000Y-96339891D01*
X223675000Y-97365109D01*
X223670924Y-97406492D01*
X223660643Y-97440383D01*
X223643952Y-97471611D01*
X223621485Y-97498985D01*
X223594111Y-97521452D01*
X223562883Y-97538143D01*
X223528992Y-97548424D01*
X223487609Y-97552500D01*
X222887391Y-97552500D01*
X222846008Y-97548424D01*
X222812117Y-97538143D01*
X222780889Y-97521452D01*
X222753515Y-97498985D01*
X222731048Y-97471611D01*
X222714357Y-97440383D01*
X222704076Y-97406492D01*
X222700000Y-97365109D01*
X222700000Y-96339891D01*
X222704076Y-96298508D01*
X222714357Y-96264617D01*
X222731048Y-96233389D01*
X222753515Y-96206015D01*
X222780889Y-96183548D01*
X222812117Y-96166857D01*
X222846008Y-96156576D01*
X222887391Y-96152500D01*
X223487609Y-96152500D01*
X223528992Y-96156576D01*
X223528992Y-96156576D01*
G37*
G36*
X221653992Y-96156576D02*
X221687883Y-96166857D01*
X221719111Y-96183548D01*
X221746485Y-96206015D01*
X221768952Y-96233389D01*
X221785643Y-96264617D01*
X221795924Y-96298508D01*
X221800000Y-96339891D01*
X221800000Y-97365109D01*
X221795924Y-97406492D01*
X221785643Y-97440383D01*
X221768952Y-97471611D01*
X221746485Y-97498985D01*
X221719111Y-97521452D01*
X221687883Y-97538143D01*
X221653992Y-97548424D01*
X221612609Y-97552500D01*
X221012391Y-97552500D01*
X220971008Y-97548424D01*
X220937117Y-97538143D01*
X220905889Y-97521452D01*
X220878515Y-97498985D01*
X220856048Y-97471611D01*
X220839357Y-97440383D01*
X220829076Y-97406492D01*
X220825000Y-97365109D01*
X220825000Y-96339891D01*
X220829076Y-96298508D01*
X220839357Y-96264617D01*
X220856048Y-96233389D01*
X220878515Y-96206015D01*
X220905889Y-96183548D01*
X220937117Y-96166857D01*
X220971008Y-96156576D01*
X221012391Y-96152500D01*
X221612609Y-96152500D01*
X221653992Y-96156576D01*
X221653992Y-96156576D01*
G37*
G36*
X231990000Y-97370000D02*
X230290000Y-97370000D01*
X230290000Y-95670000D01*
X231990000Y-95670000D01*
X231990000Y-97370000D01*
X231990000Y-97370000D01*
G37*
G36*
X228766630Y-95682299D02*
X228926855Y-95730903D01*
X229074520Y-95809831D01*
X229203949Y-95916051D01*
X229310169Y-96045480D01*
X229389097Y-96193145D01*
X229437701Y-96353370D01*
X229454112Y-96520000D01*
X229437701Y-96686630D01*
X229389097Y-96846855D01*
X229310169Y-96994520D01*
X229203949Y-97123949D01*
X229074520Y-97230169D01*
X228926855Y-97309097D01*
X228766630Y-97357701D01*
X228641752Y-97370000D01*
X228558248Y-97370000D01*
X228433370Y-97357701D01*
X228273145Y-97309097D01*
X228125480Y-97230169D01*
X227996051Y-97123949D01*
X227889831Y-96994520D01*
X227810903Y-96846855D01*
X227762299Y-96686630D01*
X227745888Y-96520000D01*
X227762299Y-96353370D01*
X227810903Y-96193145D01*
X227889831Y-96045480D01*
X227996051Y-95916051D01*
X228125480Y-95809831D01*
X228273145Y-95730903D01*
X228433370Y-95682299D01*
X228558248Y-95670000D01*
X228641752Y-95670000D01*
X228766630Y-95682299D01*
X228766630Y-95682299D01*
G37*
G36*
X191997518Y-93789975D02*
X192139465Y-93848771D01*
X192139466Y-93848772D01*
X192139469Y-93848773D01*
X192267221Y-93934135D01*
X192267225Y-93934138D01*
X192375862Y-94042775D01*
X192375864Y-94042778D01*
X192375865Y-94042779D01*
X192461227Y-94170531D01*
X192520025Y-94312482D01*
X192550000Y-94463177D01*
X192550000Y-94616823D01*
X192520025Y-94767518D01*
X192461227Y-94909469D01*
X192375865Y-95037221D01*
X192375862Y-95037225D01*
X192267225Y-95145862D01*
X192267222Y-95145864D01*
X192267221Y-95145865D01*
X192139469Y-95231227D01*
X192139466Y-95231228D01*
X192139465Y-95231229D01*
X191997518Y-95290025D01*
X191846824Y-95320000D01*
X191693176Y-95320000D01*
X191542482Y-95290025D01*
X191400535Y-95231229D01*
X191400534Y-95231228D01*
X191400531Y-95231227D01*
X191272779Y-95145865D01*
X191272778Y-95145864D01*
X191272775Y-95145862D01*
X191164138Y-95037225D01*
X191164135Y-95037221D01*
X191078773Y-94909469D01*
X191019975Y-94767518D01*
X190990000Y-94616823D01*
X190990000Y-94463177D01*
X191019975Y-94312482D01*
X191078773Y-94170531D01*
X191164135Y-94042779D01*
X191164136Y-94042778D01*
X191164138Y-94042775D01*
X191272775Y-93934138D01*
X191272779Y-93934135D01*
X191400531Y-93848773D01*
X191400534Y-93848772D01*
X191400535Y-93848771D01*
X191542482Y-93789975D01*
X191693176Y-93760000D01*
X191846824Y-93760000D01*
X191997518Y-93789975D01*
X191997518Y-93789975D01*
G37*
G36*
X217397518Y-93789975D02*
X217539465Y-93848771D01*
X217539466Y-93848772D01*
X217539469Y-93848773D01*
X217667221Y-93934135D01*
X217667225Y-93934138D01*
X217775862Y-94042775D01*
X217775864Y-94042778D01*
X217775865Y-94042779D01*
X217861227Y-94170531D01*
X217920025Y-94312482D01*
X217950000Y-94463177D01*
X217950000Y-94616823D01*
X217920025Y-94767518D01*
X217861227Y-94909469D01*
X217775865Y-95037221D01*
X217775862Y-95037225D01*
X217667225Y-95145862D01*
X217667222Y-95145864D01*
X217667221Y-95145865D01*
X217539469Y-95231227D01*
X217539466Y-95231228D01*
X217539465Y-95231229D01*
X217397518Y-95290025D01*
X217246824Y-95320000D01*
X217093176Y-95320000D01*
X216942482Y-95290025D01*
X216800535Y-95231229D01*
X216800534Y-95231228D01*
X216800531Y-95231227D01*
X216672779Y-95145865D01*
X216672778Y-95145864D01*
X216672775Y-95145862D01*
X216564138Y-95037225D01*
X216564135Y-95037221D01*
X216478773Y-94909469D01*
X216419975Y-94767518D01*
X216390000Y-94616823D01*
X216390000Y-94463177D01*
X216419975Y-94312482D01*
X216478773Y-94170531D01*
X216564135Y-94042779D01*
X216564136Y-94042778D01*
X216564138Y-94042775D01*
X216672775Y-93934138D01*
X216672779Y-93934135D01*
X216800531Y-93848773D01*
X216800534Y-93848772D01*
X216800535Y-93848771D01*
X216942482Y-93789975D01*
X217093176Y-93760000D01*
X217246824Y-93760000D01*
X217397518Y-93789975D01*
X217397518Y-93789975D01*
G37*
G36*
X221653992Y-92014076D02*
X221687883Y-92024357D01*
X221719111Y-92041048D01*
X221746485Y-92063515D01*
X221768952Y-92090889D01*
X221785643Y-92122117D01*
X221795924Y-92156008D01*
X221800000Y-92197391D01*
X221800000Y-93222609D01*
X221795924Y-93263992D01*
X221785643Y-93297883D01*
X221768952Y-93329111D01*
X221746485Y-93356485D01*
X221719111Y-93378952D01*
X221687883Y-93395643D01*
X221653992Y-93405924D01*
X221612609Y-93410000D01*
X221012391Y-93410000D01*
X220971008Y-93405924D01*
X220937117Y-93395643D01*
X220905889Y-93378952D01*
X220878515Y-93356485D01*
X220856048Y-93329111D01*
X220839357Y-93297883D01*
X220829076Y-93263992D01*
X220825000Y-93222609D01*
X220825000Y-92197391D01*
X220829076Y-92156008D01*
X220839357Y-92122117D01*
X220856048Y-92090889D01*
X220878515Y-92063515D01*
X220905889Y-92041048D01*
X220937117Y-92024357D01*
X220971008Y-92014076D01*
X221012391Y-92010000D01*
X221612609Y-92010000D01*
X221653992Y-92014076D01*
X221653992Y-92014076D01*
G37*
G36*
X223528992Y-92014076D02*
X223562883Y-92024357D01*
X223594111Y-92041048D01*
X223621485Y-92063515D01*
X223643952Y-92090889D01*
X223660643Y-92122117D01*
X223670924Y-92156008D01*
X223675000Y-92197391D01*
X223675000Y-93222609D01*
X223670924Y-93263992D01*
X223660643Y-93297883D01*
X223643952Y-93329111D01*
X223621485Y-93356485D01*
X223594111Y-93378952D01*
X223562883Y-93395643D01*
X223528992Y-93405924D01*
X223487609Y-93410000D01*
X222887391Y-93410000D01*
X222846008Y-93405924D01*
X222812117Y-93395643D01*
X222780889Y-93378952D01*
X222753515Y-93356485D01*
X222731048Y-93329111D01*
X222714357Y-93297883D01*
X222704076Y-93263992D01*
X222700000Y-93222609D01*
X222700000Y-92197391D01*
X222704076Y-92156008D01*
X222714357Y-92122117D01*
X222731048Y-92090889D01*
X222753515Y-92063515D01*
X222780889Y-92041048D01*
X222812117Y-92024357D01*
X222846008Y-92014076D01*
X222887391Y-92010000D01*
X223487609Y-92010000D01*
X223528992Y-92014076D01*
X223528992Y-92014076D01*
G37*
G36*
X217397518Y-91249975D02*
X217539465Y-91308771D01*
X217539466Y-91308772D01*
X217539469Y-91308773D01*
X217667221Y-91394135D01*
X217667225Y-91394138D01*
X217775862Y-91502775D01*
X217775864Y-91502778D01*
X217775865Y-91502779D01*
X217861227Y-91630531D01*
X217861228Y-91630534D01*
X217861229Y-91630535D01*
X217920025Y-91772482D01*
X217950000Y-91923176D01*
X217950000Y-92076824D01*
X217926018Y-92197391D01*
X217920025Y-92227518D01*
X217861227Y-92369469D01*
X217775865Y-92497221D01*
X217775862Y-92497225D01*
X217667225Y-92605862D01*
X217667222Y-92605864D01*
X217667221Y-92605865D01*
X217539469Y-92691227D01*
X217539466Y-92691228D01*
X217539465Y-92691229D01*
X217397518Y-92750025D01*
X217246824Y-92780000D01*
X217093176Y-92780000D01*
X216942482Y-92750025D01*
X216800535Y-92691229D01*
X216800534Y-92691228D01*
X216800531Y-92691227D01*
X216672779Y-92605865D01*
X216672778Y-92605864D01*
X216672775Y-92605862D01*
X216564138Y-92497225D01*
X216564135Y-92497221D01*
X216478773Y-92369469D01*
X216419975Y-92227518D01*
X216413982Y-92197391D01*
X216390000Y-92076824D01*
X216390000Y-91923176D01*
X216419975Y-91772482D01*
X216478771Y-91630535D01*
X216478772Y-91630534D01*
X216478773Y-91630531D01*
X216564135Y-91502779D01*
X216564136Y-91502778D01*
X216564138Y-91502775D01*
X216672775Y-91394138D01*
X216672779Y-91394135D01*
X216800531Y-91308773D01*
X216800534Y-91308772D01*
X216800535Y-91308771D01*
X216942482Y-91249975D01*
X217093176Y-91220000D01*
X217246824Y-91220000D01*
X217397518Y-91249975D01*
X217397518Y-91249975D01*
G37*
G36*
X192550000Y-92780000D02*
X190990000Y-92780000D01*
X190990000Y-91220000D01*
X192550000Y-91220000D01*
X192550000Y-92780000D01*
X192550000Y-92780000D01*
G37*
G36*
X181776630Y-86792299D02*
X181936855Y-86840903D01*
X182084520Y-86919831D01*
X182213949Y-87026051D01*
X182320169Y-87155480D01*
X182399097Y-87303145D01*
X182447701Y-87463370D01*
X182464112Y-87630000D01*
X182447701Y-87796630D01*
X182399097Y-87956855D01*
X182320169Y-88104520D01*
X182213949Y-88233949D01*
X182084520Y-88340169D01*
X181936855Y-88419097D01*
X181776630Y-88467701D01*
X181651752Y-88480000D01*
X181568248Y-88480000D01*
X181443370Y-88467701D01*
X181283145Y-88419097D01*
X181135480Y-88340169D01*
X181006051Y-88233949D01*
X180899831Y-88104520D01*
X180820903Y-87956855D01*
X180772299Y-87796630D01*
X180755888Y-87630000D01*
X180772299Y-87463370D01*
X180820903Y-87303145D01*
X180899831Y-87155480D01*
X181006051Y-87026051D01*
X181135480Y-86919831D01*
X181283145Y-86840903D01*
X181443370Y-86792299D01*
X181568248Y-86780000D01*
X181651752Y-86780000D01*
X181776630Y-86792299D01*
X181776630Y-86792299D01*
G37*
G36*
X182460000Y-85940000D02*
X180760000Y-85940000D01*
X180760000Y-84240000D01*
X182460000Y-84240000D01*
X182460000Y-85940000D01*
X182460000Y-85940000D01*
G37*
G36*
X231306630Y-80442299D02*
X231466855Y-80490903D01*
X231614520Y-80569831D01*
X231743949Y-80676051D01*
X231850169Y-80805480D01*
X231929097Y-80953145D01*
X231977701Y-81113370D01*
X231994112Y-81280000D01*
X231977701Y-81446630D01*
X231929097Y-81606855D01*
X231850169Y-81754520D01*
X231743949Y-81883949D01*
X231614520Y-81990169D01*
X231466855Y-82069097D01*
X231306630Y-82117701D01*
X231181752Y-82130000D01*
X231098248Y-82130000D01*
X230973370Y-82117701D01*
X230813145Y-82069097D01*
X230665480Y-81990169D01*
X230536051Y-81883949D01*
X230429831Y-81754520D01*
X230350903Y-81606855D01*
X230302299Y-81446630D01*
X230285888Y-81280000D01*
X230302299Y-81113370D01*
X230350903Y-80953145D01*
X230429831Y-80805480D01*
X230536051Y-80676051D01*
X230665480Y-80569831D01*
X230813145Y-80490903D01*
X230973370Y-80442299D01*
X231098248Y-80430000D01*
X231181752Y-80430000D01*
X231306630Y-80442299D01*
X231306630Y-80442299D01*
G37*
G36*
X212120000Y-81310000D02*
X209520000Y-81310000D01*
X209520000Y-78710000D01*
X212120000Y-78710000D01*
X212120000Y-81310000D01*
X212120000Y-81310000D01*
G37*
G36*
X231306630Y-77902299D02*
X231466855Y-77950903D01*
X231614520Y-78029831D01*
X231743949Y-78136051D01*
X231850169Y-78265480D01*
X231929097Y-78413145D01*
X231977701Y-78573370D01*
X231994112Y-78740000D01*
X231977701Y-78906630D01*
X231929097Y-79066855D01*
X231850169Y-79214520D01*
X231743949Y-79343949D01*
X231614520Y-79450169D01*
X231466855Y-79529097D01*
X231306630Y-79577701D01*
X231181752Y-79590000D01*
X231098248Y-79590000D01*
X230973370Y-79577701D01*
X230813145Y-79529097D01*
X230665480Y-79450169D01*
X230536051Y-79343949D01*
X230429831Y-79214520D01*
X230350903Y-79066855D01*
X230302299Y-78906630D01*
X230285888Y-78740000D01*
X230302299Y-78573370D01*
X230350903Y-78413145D01*
X230429831Y-78265480D01*
X230536051Y-78136051D01*
X230665480Y-78029831D01*
X230813145Y-77950903D01*
X230973370Y-77902299D01*
X231098248Y-77890000D01*
X231181752Y-77890000D01*
X231306630Y-77902299D01*
X231306630Y-77902299D01*
G37*
G36*
X206499196Y-75759958D02*
X206735780Y-75857954D01*
X206948705Y-76000226D01*
X207129774Y-76181295D01*
X207272046Y-76394220D01*
X207370042Y-76630804D01*
X207420000Y-76881960D01*
X207420000Y-77138040D01*
X207370042Y-77389196D01*
X207272046Y-77625780D01*
X207129774Y-77838705D01*
X206948705Y-78019774D01*
X206735780Y-78162046D01*
X206499196Y-78260042D01*
X206248040Y-78310000D01*
X205991960Y-78310000D01*
X205740804Y-78260042D01*
X205504220Y-78162046D01*
X205291295Y-78019774D01*
X205110226Y-77838705D01*
X204967954Y-77625780D01*
X204869958Y-77389196D01*
X204820000Y-77138040D01*
X204820000Y-76881960D01*
X204869958Y-76630804D01*
X204967954Y-76394220D01*
X205110226Y-76181295D01*
X205291295Y-76000226D01*
X205504220Y-75857954D01*
X205740804Y-75759958D01*
X205991960Y-75710000D01*
X206248040Y-75710000D01*
X206499196Y-75759958D01*
X206499196Y-75759958D01*
G37*
G36*
X194857027Y-76730852D02*
X194998401Y-76773738D01*
X195128694Y-76843380D01*
X195242896Y-76937104D01*
X195336620Y-77051306D01*
X195406262Y-77181599D01*
X195449148Y-77322973D01*
X195463628Y-77470000D01*
X195449148Y-77617027D01*
X195406262Y-77758401D01*
X195336620Y-77888694D01*
X195242896Y-78002896D01*
X195128694Y-78096620D01*
X194998401Y-78166262D01*
X194857027Y-78209148D01*
X194746839Y-78220000D01*
X193873161Y-78220000D01*
X193762973Y-78209148D01*
X193621599Y-78166262D01*
X193491306Y-78096620D01*
X193377104Y-78002896D01*
X193283380Y-77888694D01*
X193213738Y-77758401D01*
X193170852Y-77617027D01*
X193156372Y-77470000D01*
X193170852Y-77322973D01*
X193213738Y-77181599D01*
X193283380Y-77051306D01*
X193377104Y-76937104D01*
X193491306Y-76843380D01*
X193621599Y-76773738D01*
X193762973Y-76730852D01*
X193873161Y-76720000D01*
X194746839Y-76720000D01*
X194857027Y-76730852D01*
X194857027Y-76730852D01*
G37*
G36*
X231306630Y-75362299D02*
X231466855Y-75410903D01*
X231614520Y-75489831D01*
X231743949Y-75596051D01*
X231850169Y-75725480D01*
X231929097Y-75873145D01*
X231977701Y-76033370D01*
X231994112Y-76200000D01*
X231977701Y-76366630D01*
X231929097Y-76526855D01*
X231850169Y-76674520D01*
X231743949Y-76803949D01*
X231614520Y-76910169D01*
X231466855Y-76989097D01*
X231306630Y-77037701D01*
X231181752Y-77050000D01*
X231098248Y-77050000D01*
X230973370Y-77037701D01*
X230813145Y-76989097D01*
X230665480Y-76910169D01*
X230536051Y-76803949D01*
X230429831Y-76674520D01*
X230350903Y-76526855D01*
X230302299Y-76366630D01*
X230285888Y-76200000D01*
X230302299Y-76033370D01*
X230350903Y-75873145D01*
X230429831Y-75725480D01*
X230536051Y-75596051D01*
X230665480Y-75489831D01*
X230813145Y-75410903D01*
X230973370Y-75362299D01*
X231098248Y-75350000D01*
X231181752Y-75350000D01*
X231306630Y-75362299D01*
X231306630Y-75362299D01*
G37*
G36*
X194857027Y-74190852D02*
X194998401Y-74233738D01*
X195128694Y-74303380D01*
X195242896Y-74397104D01*
X195336620Y-74511306D01*
X195406262Y-74641599D01*
X195449148Y-74782973D01*
X195463628Y-74930000D01*
X195449148Y-75077027D01*
X195406262Y-75218401D01*
X195336620Y-75348694D01*
X195242896Y-75462896D01*
X195128694Y-75556620D01*
X194998401Y-75626262D01*
X194857027Y-75669148D01*
X194746839Y-75680000D01*
X193873161Y-75680000D01*
X193762973Y-75669148D01*
X193621599Y-75626262D01*
X193491306Y-75556620D01*
X193377104Y-75462896D01*
X193283380Y-75348694D01*
X193213738Y-75218401D01*
X193170852Y-75077027D01*
X193156372Y-74930000D01*
X193170852Y-74782973D01*
X193213738Y-74641599D01*
X193283380Y-74511306D01*
X193377104Y-74397104D01*
X193491306Y-74303380D01*
X193621599Y-74233738D01*
X193762973Y-74190852D01*
X193873161Y-74180000D01*
X194746839Y-74180000D01*
X194857027Y-74190852D01*
X194857027Y-74190852D01*
G37*
G36*
X211199196Y-72759958D02*
X211435780Y-72857954D01*
X211648705Y-73000226D01*
X211829774Y-73181295D01*
X211972046Y-73394220D01*
X212070042Y-73630804D01*
X212120000Y-73881960D01*
X212120000Y-74138040D01*
X212070042Y-74389196D01*
X211972046Y-74625780D01*
X211829774Y-74838705D01*
X211648705Y-75019774D01*
X211435780Y-75162046D01*
X211199196Y-75260042D01*
X210948040Y-75310000D01*
X210691960Y-75310000D01*
X210440804Y-75260042D01*
X210204220Y-75162046D01*
X209991295Y-75019774D01*
X209810226Y-74838705D01*
X209667954Y-74625780D01*
X209569958Y-74389196D01*
X209520000Y-74138040D01*
X209520000Y-73881960D01*
X209569958Y-73630804D01*
X209667954Y-73394220D01*
X209810226Y-73181295D01*
X209991295Y-73000226D01*
X210204220Y-72857954D01*
X210440804Y-72759958D01*
X210691960Y-72710000D01*
X210948040Y-72710000D01*
X211199196Y-72759958D01*
X211199196Y-72759958D01*
G37*
G36*
X231990000Y-74510000D02*
X230290000Y-74510000D01*
X230290000Y-72810000D01*
X231990000Y-72810000D01*
X231990000Y-74510000D01*
X231990000Y-74510000D01*
G37*
G36*
X195460000Y-73140000D02*
X193160000Y-73140000D01*
X193160000Y-71640000D01*
X195460000Y-71640000D01*
X195460000Y-73140000D01*
X195460000Y-73140000D01*
G37*
M02*
